<mxfile host="app.diagrams.net" modified="2024-03-23T17:44:30.561Z" agent="Mozilla/5.0 (Windows NT 10.0; Win64; x64) AppleWebKit/537.36 (KHTML, like Gecko) Chrome/121.0.0.0 Safari/537.36 OPR/107.0.0.0" etag="XnJKhBIznh5G9D6ObXgW" version="24.0.7" type="device">
  <diagram name="Page-1" id="6yywsfHCfG7WsfUpc9PS">
    <mxGraphModel dx="783" dy="835" grid="1" gridSize="10" guides="1" tooltips="1" connect="1" arrows="1" fold="1" page="1" pageScale="1" pageWidth="850" pageHeight="1100" math="0" shadow="0">
      <root>
        <mxCell id="0" />
        <mxCell id="1" parent="0" />
        <mxCell id="T3MYvNxmJvyqQomHxMLC-1" value="" style="shape=actor;whiteSpace=wrap;html=1;" parent="1" vertex="1">
          <mxGeometry x="940" y="220" width="40" height="60" as="geometry" />
        </mxCell>
        <mxCell id="yfIk8GiUyLvoCovwsHje-1" value="" style="shape=image;verticalLabelPosition=bottom;labelBackgroundColor=default;verticalAlign=top;aspect=fixed;imageAspect=0;image=data:image/png,iVBORw0KGgoAAAANSUhEUgAAAjAAAAEMCAYAAADaoYwkAAAAAXNSR0IArs4c6QAAAARnQU1BAACxjwv8YQUAAAAJcEhZcwAADsMAAA7DAcdvqGQAAP+lSURBVHhe7L0HgBzHdSb87eSZnd3ZnPMuFoucE5EI5kyRipSsYMmylWzJZ/t853TS73yWTw6yZEsOkpUDJWZSjCDBAIDIGYvF5pzz5Jn/fa9nFovADGwA+wN6u6e7urq6uurVV69evUopKS2Lh0NBmDBhwoQJEyZMzBdYEnsTJkyYMGHChIl5A5PAmDBhwoQJEybmHXQIqb2tNfHz3Y2UxB/uU7iXP5bE77hsPHbZAafdAqfNAqvQP57jtZj8CUXiuk0GY4jE5KSA9/Iwpr/jiEs4hufehIn5CNaLxIFuxi/+jcNiscBit8NmtSHFZtUgSLEgLhUkHosiGo0iFokgGo5oeAaIa6VIVAjZ65FZQUzMUyTrw1Q1SWxGiU6BTeqIXTYr60qy/sjFmPyJSrmPSmMRkS0aTzQigmRtSNYNs3YYeNcSGBIPmzVFClEK7DbAKgWpIMOGyhw7qvKcqCpwoCDTjtJsGwp8dqS7LPDYpfAJeYnLPXGrlCPuE4WULMUihc4i+ziJTDiOkWAUQxNRdAxF0NYfRudgGA3dQZztDaFjMIKxgBRSEeyRqGxyH49NuW1iriCFAlY27lOEhNicDqT6MpCakQlvZiY8GRnwpKfDLZvD5YbV4YDVKqTFIpuwe72X4ln+GyRFqokQmLjUE+6jkTDCoRAC4+Pwj47APzKC8eFhjA8OyH4IoclJJTwMP7WZFcTEHAHLNgnIuQ3w2p3wOV3IdLuR7fYgzeGCT7Y0u0PaGesUcZEakqgfjMggMSzbscRGIkMSE45FEBDCPxoMYjjo1/1gYBJDAT+GZQuzLknFSt7H7d2Edw2BIVlxCQFxyuZxWFCebceaKjdqy1xYX+lGdY4DTqcV0ZQ4UoR8iNzUwqDlQUuX/ldIeXtd8J6pIBIfWY7IfyVLFkmHsCUlOX1jYRxpD+Joix+HG/042SGFUwhPQJ4fCMcQlDDvsvJoYhZhtdl0s8hmd7mQkZuHjKJiZOTnIyMvH87UVCm/VoOAiFCNsYeYKJ/cJaqJFHn5+1qVJHHtUuFV4ynx6zPkXzQUxvjQEIZ7ujHU3YWhrg5MDI8YGpzExrSYMDETIEmh9sQmwtwhZTRdiEmhN023gtQ0ZDjdcErdIag94TYlv88r8Od+Xohk8HPX2AawbhjnWEfY2WY6wtLhDUknoGN8DD0TY+iSfe+kdAbkXESerVoc2ZJxXo24agkM2bBLiAo1J17ZqvMd2FDrwYZqD5aXCkNOoyAGRAbqhyZYOJIFhwJUvzwLjpZCFqTkuWQo4twdU3v5r0GoOtcIjNPGoRHeiJIqdxZGNh4pSlya+kI40OzHi6cmcViIzeB4VDU147JRU2PCxOUCe4A2hwM2pxN22bJKSpBbVo7MgiKkZvikTNqnSMKU5iNRRy7UhPC3UaS1xAsMoTsdekciHMEGIRnfdLAeJsMmf6eQXEl6g5OTGO3txWBnO3qam4XQDCESDIEzKZnW5D0mTFwO2C1WOIWskJj4pI6Up2WiNM2H3FQv3FI/CGpLqAfRjmqyMEsxTJZEo04Y7YdRPPknGZZ1gHtBouwm65bWDJZ9NmbnzpwLL2BQ/tR2RMJGhNRQM9M5Poq2sWF0CbGZCIcRjEYQptYzEffVgquKwPA7pzotyBJyku+zY2WZC9sWpyppyc+2q9YjosYp00oAoUw58WGpKrFIL9QqhdMi96RYjfOEljhDPZ4iYSRA4pyAbCgelXhki0TlhPzmJYlXdzERrtGQsY/xOp/HQixXk3EImA5qamxCukKhGI42B7Dr1AR2nZ5A60AYA2PGsJRJZky8HVC7Qe2K0+PR4SASltyKStWwWB12hINBLbPTYQheY9MeIImPCHRuPD5XelmUpezKM1Sbw2u8KH94b0yEK4eOIrLpUJJxi4Cqb+lIyLkwNSu8zhNy72uRHL4HydfkyAh6W1rQ19KsmprgxDiCfj8iodBF72HCxJsBtSsemwOpdjvyhahU+oS0pGcg3elSrXyywzsdtPGiRlKLu5R7ln+b3G+VjQRESXmiOGrZtSe0nVpHjNIdk3iNodUIImHpOEyVX2Mfk3aF5Vq1j6w/Et4Y3k20I9PAGsPhKmpgeibH0TwypISGQ08kNByWmm5jM19xVRAYDg0VZNhRkmXDygo3rl/mxdpqNzJcVm3ojfKWKAy6ozAW0pIiBcjuRopssDhlL5sjDSkuHyyeHFjcWbJlG5ucS3GmC3lxSlgWmgSx0YIj2xQJEnJCARyeQDw4jJh/CLHJAdkPytaPuPyOB0YRD09KuKAUyoAQHr9Ib8MXD20NzklrQ3Bz+CtFttPdQew8OobnT0ygsT+M7qGwDjmZctrE64HCzeF2w+VNgzcrC7nlFSioqtZjHQ6KknyTcBtEg6Aw5X12EbJu6Xk6RBA7hOC4hfx4JS5fWhoyM9KRIQI+w+uFT7a01FS57lRiY5B8w0hRIdHqkCyfJ4I4GA5hYtKPESEcI2PjGB4fx9DYGEZGRzE6MaHXgqGwqsgDwZAch5TgMD4V2EaUxrFsbBRoTzPQ3o7e5kYMdnbAL3EFJK6oCGwTJl4PVpG76Q4nUqWMF6WmoyYzR0iLTzUvYakfUnJVzrI4s44YWklpCmxWuKQ+2N0uJdROOfakedU2LCM3F2nZmfBIRyE9Nxten0+O07Qu0sjdQluxRPllaVaSL1s0KgRGynxgYhITQtDHhoYwPjisw6kjvX0YGx5W4u4fnxSiE9JOR1DCsvyfIzXn2hHu+H7c036maXgQLaPDGJDjMbmXQ05GrZ9/mLcEhtqWLK8VFbkOLCp24sZladi4wI0Cn03tV2gQy4JhCGTZKKAtduEpQlBIUhypQlQyYE0vgzWzHNa0Uli8BUJiPPK1HUb4uETEvdxvDCMRyX2idFwEXqfCMAEtSBKWhIfHEg/JSzwwjOhYB6IjLbK1Ijbei3hIiE1IrgVHDILDWOQ+fQ8ey3+HzaJGWwdaAth5bAIv1U+guY9GwSLow1NPNWFCe39uIRo0uM0uLUN+ZRV8uXna2LOnlwTrCHtqLNEuIStpqR54SFQ8HmSK0C3Jz0dxbg7ycrLhS0+TDoP0KiUsawZV0irQE/Vjegm8VA3R64lAWi3kDzcSE6kdck8KwrEoJv0BDIrA7uwfQHt3N3oGBzEyMopJEeyTgQDGhPCEhQip0XAiHkarBEcEOIlLf2sLehOamUkR+iG/fyqdJkwQHptdOrqGwW2tkJby9Ayk2h2ISGmiFpBli0WGHV4SfTtJvBAUl9Qrt5B2b4YPeSUlyKssQ25ZGbLy84TApCmxYUlLIdHRDkKyjjAyfbRRAS6FZBllWWaYxD4u5Vo7zxIBy/LY8Cj6WtvR396GrrONGJG6Mj48osOs/tEx+KUOMC7Wd4kkGaXa0FDBSbuZppFBtI+NYEDiGwkFVA7MJ8w7AkPiUpYjpKXEiY01Hly/JBVLSt16TXuS/Lxa4oxjJSruTEObkloAG8lKdq0SF4srU++LR8+pzfmBZwJ8nBZODkXJRi1MdKwL0aEmRAcbEB1tR8w/gDg1N0J2pBsp4Qwyk4TNnoLhiSh2Hh/HzpMTONoWQEN3SM+ZeJdCiofdKeQjKwuZBYXIq6jUYSKHkBElLYlyzjoSpUAWQWtoTzzIyshAfnYWykuKUVFYiGz5zR5ohGGV0Guh1ftnBPI8khGO7fO5YyKQO6QH2tLZhbbOTvSxVyrCemhMiE3AqMPTVfI85tuO9PWi5+xZ1cqM9PbCL+GnEzgT7y6Q5HJmUI7UiZI0H2oystUI17BlMeoHdxwSInFxp6ZqfdKOQGEB8ivKUVxbg7zyMqSmp0sZlfLG8kRWMINgHWZZTxGCwhmxHFoa7O5Bd0MjOhrOore1TUnNxJDUEyHwkVDYqB9ML5MqO9r4UANDrUyzkJmeyQn0TY4jOE/qx7whMPS5siDfidVVbly7KBXblnhRlCnCNWSo3RRJIevwwuotEJJSBIuvDLasWtiyFwiRySK9kWARfrs5Cdrc0L4mHhE2PNqKSN9Jg9SMdarGJj7eq+FYaLUECngYjMZxuCWAZ46OY3fDJI4LmekfM4X0uwYiyBycOVRQgOziEuRXVSMjv0B7X9oDZLmXvxw7p9Yi05eO3MwsFOZko0TISnVJEYpFOOu4uQQ0hLdGO6fA5CTtbjj01NTRgca2dnT196N3YBC9g0OqvaFRowp33iThKbj9Y2OqkelrbsZQVyfGh6RzYBKZdw04jJIpdaTQm47K9ExUSvnntOdkWWcNUWIfiSppySoWEi91Iq+iDMULalCyYAHSpb5onUhoVeYkpKxz49BSn9SNtlP16DzbiH4h/QMdnRjt69dyn9TM8H0sOsQU15lM9UP96BCSTw3NpJCbuYw5T2BIFhcXu7B+gRs7Fnlx3dJUpLms6mdFyYj8UyMXafQt6cWwZVTAmlkFa/ZCIS5VOlzEopnC4SBDnM0TsHKwZAmZiUYQHe8WMnMC0YEzqp2JDp9FzD8sRMbGIqhhhUyrFfqpziCePT6BF09N4GCz3yQyVzlIXDiDKKesQnqHFUjPzVOhZBAXylqjX0lNS2FuDorz81BZXIzq0hLkZWepINMwIpCna/jmOvhOVIdz6Gnc70drZxcapNfZ3tOLzt5edEvvMyK9UhI2QgmNVJKgfwKDHe3oaWzSYaaxgX59dxNXJ6hx4RBRWVoGKnyZKEvP0BlErBX61eXb02jWarMiT+pETnkZCiorUL64DsU1NUgVss82Ji6NvtaOeVRHmGB2dsPyfoNd3Wg5eRId9Q069MTyT3sa1n+j3ktdkgaX9alvYkKHl5pGh9BJDeccJTJzlsAwPxcUOHDtYi+uX+LF5joPvPTTIkJ5StYIKUlx+oSo1BiEJYeallqkuLP1GjUy86iovTbkfekwL4WzoujNdLgZ4b5jQmYaEB2sR3SkTSqYvK+SGWNqNm2A6rtCeP7kBJ4+NoZXz/ox6jcaNBNXBzjLIaesXIeJuKXn5mpDrI2xbDTE5Yyg/OxsVJUWo0JIS1VZKYrzctXQdr6Nd78RKDPYjxwZn0BzewfOtraiWUhNiwhu2swogWEg2UhqQoGAEJhWEebN6G5oUI2MiasHJC6ZLreSlkpflhIXl8hIpfPyn5r7mHQOU30+FNZUo3RRLcpqa1GyqA7pQuwh12Z6WOiKQ8lMCP1t7Wg5fgqtp+vRWX8GvVIPOJNKnVAmGk12DvonJ9AoRKZ5ZFhnMXH20lzCnCQwHBq6YakXNyzzYmudFxkeiypZjF6SbNEwUlLzYS9aI4SFxGUhrL5yzXwlLlc7VAhb1TYm0n9atpMI9x4XQnPamM1kIZGRnRAZzho/0RHAM8fH8djBMRxrC5jGvlcBMguLRNAuShCXPD3HGQgEiQlnDVUUFaFOepLVZSVKXtJTPWp4+274+my8aBNALUyDCOuGllacamrGoPQ4pxMZDi2FgwH0tbQIiTmDTtnoAdjE/IbX7kBVRhYWJGYTeeS3zoKTwq8GuVI2MqmJXLkcZYsXoaxuIQqrKqQ8SBvybhhWZPmXsk8NTIcQmNaTp9F05Chajp2U16c2StoQ1hMJSnkx4J/E2eEBnBnsR+fE2Jzp/MwpAkOHc9vqUnHnmjTZe1GYYUsUOGahFD5pnK2+MthLN8Ceuyxh15KjWod3h1i+GPEUi+ZLdLjFIDKd+xARMgNOzVYiQyENTARjONIewK8Oj+PBV0fROhhSUmhifoFTMsuWLEFeZTWyhKDQyHWKuIjgdTocqBXSsqSmCjWlpSjOz4fTaQjvdyOSInhwZAQtHV1CYppwVHqdPYNDSnKSZIZEhlNWaejbeuyo2sqwkTMxv0AfLnQ0tzg7H2VCXOi7RVsH+UNbF37T/LJS1KxdjfIli3WYKCNX2pBkoHcjrCTxIXQ2NqFN6saZfQfQsP+gGv1a7eeIDP3f9EyMK5E5NdCnU7JnO8fmBIGh47bFJU68d4MPNy31oibfob5PpLxJBsm/aBiWtEI4y7fBVrAStqxqYwZRzPTvMAUSmVgE0ZF2ITKnEGp7RYjMEWnVgnKNhVC1h+gdiWBfcwA/3z2sGhlTGzM/wCnRRQsWonTpUiEuxepLIi7CmF+PQ0X017JQiMuqRXWoKS9Dfk62nnu3EpcLQQFMQTwyPo62TiEyZ5uw9+gx9A+PSL04N3OJWtzh3h70C4FpPnIYo32G0byJuY3kcNHy3ALUZGYjy5Uq55LERdoQqSNZRQVYtHE9FqxZhZLaBcYMIt5s1hEDkmHMie7mVrSePIVTr+xF/av7wTXLuECr1iH5F5DfHWMjODnYi4ahQZ3FNFuYdQKT4bHitpVefGBTBlZVuNX1PzuUJC70XEvncY6aW2AvXAO7EBfQoRy92Zq4NEhkhPBxSna49yhCTc8poaEfGxpzsRDG5E9LXwhPHx3Ht54ZRGNvSAuuibkJ2rZUrVqjw0VJ53NJWxf6qqgqLcE26VFWS8+SRrkmcXl9sLEbm5hEW1cXDp06jZcOHII/EFC7GCUystH5HWcqtR4/ho5Tp6Q3ajiaNDH3wHWB6rLzlLzke7xwS2NrDBdxRlEEaZmZWLp1M+qu2YDi6ip4fSQu8p3NOnJpsPyLjOnv6ETTsRM4/OxONB46Iu2HMZuP9YdZNxoMoGF4AId7u9A7OWG02TOMWSMwZMd0QPeJa7Nwy3IvCtLpmZAZI5lAg1TpCTnKt8FReR2sQlyszgy5yxzzeLPQOVqRIGITPQh37EXwzOM6k4lDDvLZRVin6PpKp7qC+PdnB/GTV0aMG03MGVDrUlK3CBUrV8GXlyffzGaICKkjIRHMeUJmbti0AUtFKOdS4yLhjeFWE28GJCujY+Po6O7B8/v2Y/fhI2r0rL4ySGQEOvW6uQln97+qPmRMzC1w5edrispQnZmjdi/aQxNwVpHd6UDdxvVYef0OlNUuUKdzbHxNvElIXkWEyPd2dqLh4GG8+sjj6G5q1nXTkvWD6yv1CXk52NuJ+sF+XXNpJjErBIbrFd20zItPX5+NZaVOeOU3e5KG1iUCa24dnHX3wJ63GFbOKNJSaQrmt4M4LOrVNzrahuDZpxBufk5+J+xjJFu5dY9G8NjBUXz14X50j5jarbkAb2YWatavR0F1Ddxp6UpaDI0LSXwc165bi2vlek52prr6NzUubw/J5mxoZBSNrW14+PldaO5oFzLoMHqaco0+M0Z6utF4cD86T5/WXr2J2Qc9524uLke2xwM73U3Iv2T9oLO5jXffiYVrVyM9M1O1a6xDJt4GpB4EAwF0NrfgyM5dOPTUM5gUYk/7GMN7DDARDuH0QB/2dXdgaAZtY6zpPt+XR0dnrvedm27Db16fhd+7PVcd0zlsdGssr0vncvZUuBbdC/ey+2DPXQSL+nAx8U7A4pVitcPizjQIYVY1YvTyG+CUUWq8gHSXFXVFTmys9aCxO4j2QVNAzyY4VLRkxw7kV9XA4XIb9F0+VDAYQkVJET71vnuxccUy5GQZgtkUy+8cbrdLh9+W1QphFELIWUvJ9aCokeE6Ulylm16O6TeGPVMTswNbigWbS8uxtaQCmS6Pfh9tQqTz65Bvt/H223Djr38M1cuWwJuebmpdLgO4+KQvKwulC2tRWFOF0f4BDHX3KLlhHeGK3TluLwpTvRgOBjAWDs6IXJoxAsMho5pCB/6/9+fjvs0ZyPIY880pmGmzYctbAs+6z8BReS0sniy5ZjifMnF5wELGhSit3kI4Sq+RE1Z1jMfeComMzWpBUYYd25Z5EQjFcbRNCqDZMs4o6NelctVqLNqyzVgdmu6nKZgTNi93Xbcd9912C4ry83XNIvPzXF6wIUx1u1FeXIQlVVXoHhhAd3+/fgcujsfGMbOwUO2QxuVacHIicaeJmUK6fIO7axbrLCOXLTGkKn85A6+wohx3/c7nsfqmG5CZk63DgSYuH9iGOJwOZBcVonLlCjg9bvQ0NSHoD6jxOyfj8PvQiHpSCD4Xi7zSmuEZITCcUbRxQSr+9TeKsbHKA6dNGLOcp4dZ2Jxw1d0Nz+pPwpZZBYuV1s4mY75S0FVK7W7Y85fCnrcMkZ4jiIfG5IIx7u9zWeRbeVCabcPes35zltIl4PF41BEcvbxeLri8XiEuW1GzbiOc3lT9Fqz7IREExQUF+Oz778W6FcuRKs/mNRNXDjSCzs7MwLIFC+Cw2dHY2q5D3Mx2ei31ZmXrTLDgxDgmhofZC0vcaeJKgo7o7q1dhnzp5XM5CYI+XZj/G26/Fe/5H19AcVWlrppu1pArByX6Iq/Kly5GfmWlOsUbE0Kvckk2TmWnD55U6ZC1jY3oGlNXClfcBsYu5OX2VV78/UcLkeE2/LqQMXPKL9crcq/4KBxlW5XBmZg58DuwvEVD45h85R8QbNmpK3GTPHJcMyS9/p2nJvD7/92N9qHZUZcbjbhR+PPz87Fy5UosXrwYbuklF0ijnpubi+zsbCUU3JzC/kkseB97ZGFp/IPBIMbHx3UbHBxEZ2cnRkZG0C8968OHD+Po0aMIBKQHMe1ZrwevVNwvfvGLGv+3vvUtjfOdIi0nB3Wbt+o0aWOhNcPeJRwJY+uaNXjvjTcgPZ2kxhDaJmYOLEPHTp/Bjx5/Av1Dw0puWHHYQAYmJ3DihRfQfuLYrNjFpKamYvXq1ViyZAkyudCg1AXWE+5ZTnk9WSfY6CTrBLdknRgWAtbT04Pe3l5MTMj7nDiB/fv363nizdaLJBh++fLlOH36tNary4VVeUXYVlYJt3Rw6ZWcPWAOGdkcDrz3976IZdu3wKoyjRdNzBTo1Xiwtx9P/ud3cWzXS9Kuc/VrQ06xlrSODuH++mNXzIPvFSUwJC+/fXMW/s9786W3qrRFzlI4x2CT3n/q2s/CmlmZWKfIxMyDX4RDS274T/wUk3u+rhoxY0zZ6HEeaPHjf/6gGwebL58wej3kSGNOorJixQrdUxhWVVVNEROmLSmk3qywupQATg7LcCPJOXjwoArvQ4cOqQA/duwYQqGQhuVzknGsW7cOf/mXf4nt27fj61//Or761a+iq6tLr70dsCe/9LrrkVNSathcyDk2NJxR9KHbbsE1K5cbs4uM4CZmAXSpzrWVfvDIE+oEjz18rRwCrjd18sUX0HTogC6ed7mQLNssdy6XS+vDqlWrdM86QdJCcsJw3FgviOllNRnHa4HhpofnPlkvWAZPnTqlBJ9E/8iRI1o33oiwM60vvfQSdu7ciT/7sz9TUvROwEZwW0kF1hWW6kKjdAEhCVSjUmpbPva3f45s6cikJNb9MjELkG8SlXK066f347kf/hTBSf+UbR7rDm1ifnjyEIYDfiP8ZcQVIzAkYX95Xz6+eHMuJv1CULSiSCFLserUaM+az0iP3ymF8SpZr2geg/KLi0KG+05jfOefIh4clRPGuD8LYH13AH/6sx48eXRcw75TJAUuSUlJSQm2bNmCrVu36r6iokIaCMeUYJ2+XQieY2/S7/erwOWQDkkHhTAbfW6sSNxTsCb9fCTj5p5I7pONAK+x90gi8+KLL+Lll1/WjZqbT3/600pgMjIy9L4f/vCH+PKXv4yGhoZLpvG1wOnsXMdo+fU3ICOvQNJPhm80HHnSg/7E3XegrrrKdBwwR0BDUGosHtm5C8/u2atj+1pu5DvyWv2e3WjYuweBifHEHW8NjIsbyyDL1qZNm7Q+cCORp9ZRnydg+U7ueW56ueMx6wHLL+sGj7lPkmJufAb3jDNZJy5EMj3JjSDRP3v2LHbt2oVXXnlF60ZbW5vGnSQ+H/jAB/D3f//3Wq9/9KMfaX15uySG6xbtKK/G0px82CQNcW7yjLDU8TU37MAH/+yPkcJOxrT3NzF7SBFif+Ll3XjoX/5NDXy5LANLDpXKXGT4+8cPoGti7LJ2xq4IgeE06a9/sgjv3+CTQk8lk4CFzJEKV9174F72IXWsJidlu7jymJgdcMp1zN+P8ef+DJGhZm1k+X1sNhHQXSH8xS978NihcUSib70IkqxQaFKtvWzZMtxzzz2qxaitrdWeJEHhRGGYJCNJwUhyQAJBTQeHgFpaWtDX14eBgQFVdSc1Ja8FCmkSGKrZ8/LydCNRoqq9rq4OmzdvRlYWDceNRf6Y1ukaH4LkhVoapn/t2rV6jmCYJ598En/4h3+ovVWm+Y1AO4q8yiohLzfCK2mKae9Rer9C5hdVVuIDt96MsqJCc2r0HAO/NWcfPfPKHjzy/C4EpEHnOS03UrbP7N2N+t2vwC9E5800qkkiwY1axltuuQU33XSTli+fz6dhksSA9WF6neCQD+sEtSSsB6wTHAri0CjrBEk973stMM0kMGlpaToUyyHZ0tJSHYKqlDK4fv16rSNMI7dkneAx7yVIaDhURI3L/fffr1oakpf3ve99U4TrkUcewSc+8QnV3Lxeei5EmsOJHaVVqMvJU4LIe5P33/zJj+Ha+z6IuNT7ZFpMzA2kSBnp7ejED//8b9DT2MgzymD0K8n3+/HJw2gdG7lssu2yEhiWJXrW/c/fKsENy1IRlHZFip7+4wrRnlW/DmfVjaB7exZGs/DNLaiASBESExqHf++/INT2Es/KZji+O9sXwlcf7sMDr46+KeNeCmbapqSnp+vQy5133qlCmkKS4PNIPigIuR8dHcXx48dx4MABHcLhnj08Cu4rDZIoquWXLl2qdgXcKMhJfLhRK5QkNdORLMckN3/wB3+gjcrrjf2zoaNvl5U33QKH5E3Sqy5j3bhiOd5z/Q41IDXJyxxF4lvtOXwUDz63E32DQ0aZkI3ftuXwYR1Smhi5tHEvCQDLE21UWL5uvfVW3HHHHTosxPLFssDynqwXk5OTqvVgXWAZY/0gUb5UnWA6tA5fJiSJFdPGjcNXtEFjfWZ94HswTLJOkEBRe8RrBM9z49DThz70Ie2IvBHBZ1Pnk7pIzcvCrNzEWSFyQvIdbhc+9Md/gDqRJSl0dqpfwsScAsufdNAmhUD//G+/itP7Dur6Uyz3bEpo0Pvo2ZOoH+rXtZXeKS4bgWFRKs2x42sfLcR1S1KloBrnmWpLWgk8az8De5H0XGPCmhNXTMxNUETT+Z3/2E8QrH9IvllEzlhYLtHcH8LfPdKPX+4dxWTo4gJIgUUBR0FGoXfXXXepgCZp4TUKMKqUk0a1FMZs9F999VUVzjw/F8AKRw0NiRc3amlIaqipeS00So+DmhhqZMbGxhJnz4EGh4ULFmL59dfD6UkVoRxVeuiS81vXrMKtW7cg3SvnjeAm5jA4tHrkdD0eePY5tHZ2GyflHFfxbT95HMeee+48EsNGnWWnuLgYN954oxKXa665Zoq0UGPCss9yU19fj71792L37t06jEkNC7UucwGs2yT5a9as0WEualP5XtRMcpuuoZmOesmrj3/i40rCXktjyvuyXW5sLakU8pKjjUqSj2UXFuKe3/sdVCxeBAvz4hLPMDE3oB0yKQchIZmPfv1bOPD007owJDXPBL33Pt3SgBP9PQi/w3J92QhMRa4Df3NfPm5YmjZV6uLxKKyZ1Uhd/zuw5y5Ufy+XKtwm5h4MD74TCJz6JYKnH0I8NCGlRUiMJQVneoL4+0f78ciBMV3lmmBvjA0+BfTtt9+Oe++9VwUdQeFL7UpyFhDHz5999lkVzhwKmstgeWWF5FDTV77yFbz//e9PXLk0hoaGVBPzwAMPnGfwaLXZhbzUYvkNNwp5Oad5SfW4sX39Oty8eRM8kocJeW1iHoBr8Bw7exYPPv0cmto65NvJ15PyQn8+LUcO4/gLz4Pm1yTvrAvUQpC8kNyzTlDDwjJCgsLhl6eeekrJfHNz84xoHS8HaHRP42LW+Q9+8INT2tVLgQT/S1/6ktZ9apamg5qXLLcbm4srsCg7V+udTl2Xa3ScdudvfxZlNTXyW86Zbcj8gdSFR//129jzyGMIBYLSfhgkhksOPN1yBqcH+pXovF1cFgJTlmPH336oADcsS5NmjzCs2a3ZNfBu+V+wphUZvXiz4M0jiDgWwhIPTSLY8CQCJ3+OeEB6lClW1cSQxPzfh/vwUqMNGdkFWLlyhQ4RsWfJXhq/NXuTVCu3t7frOPlz0isleWFvcz6B70LbhP/3//6fEpnXKsfa85BrHEKioe93vvMddHR0aM+Dw0arb70ddulhxqXCMmxaqgfXb1iPm7ZsVk+XJuYfSGLONLfigWeeQ70QD6rIWQZIWDkzaU1ZKT77m5/WRp7fnMSEpJ32XBwmfeaZZ/DCrhfQ0tySiHF+gnX/b//2b7V+XAp8d4L14U//9E/x4IMPnjdVO9NJ8lKOpbn5pIFTdalkYa2Sl+LKcqSY7H5eIfkN4XDgue//CC/87Be6tljScHwiFMLO1kacGux72yTmHRMYkpf/dVcu7lmXDofVmH4r7AXWvMVIveb3YfMWyJu8fYZlYrYhPaGwH8HGpxA4/lMlMfSSTBJzuGUcB0LrsfKm38T6jZvV3oUCmlqW1tZW7Nu3TwU0p1TOlaGhtwOqxj/5yU/iT/7kTxJnjMqZFMoXHif3//Zv/4ZvfvObsPkysOqW2+BOS1PNC5EucV63cT1uvGaj2hGYsnn+gk7Vmts78PMnn8bppuapGUr8pjeuX4eP3nITLHKuqalJh4dI5F944QUdPr0awPL7ta99DR//+Me1rrwRaID8N3/zN/jxj3+Mnu5u+IS8bCwu1dWkLew0SV5xYd+K5ctw8yc/jpLqKtXEmJif0O/pdGLX/b/EM//9QzVyVxIjFWQk6MfONqkXb9Mm5h0RmOJMG37n9lzct9GHVAcLXkwEdAT2glVI3fAlWNLyhcxEDRZmYh5DSExoAsGzv0Lw1AOI+QfllAVWRGEtWA3Xmi8g4F2MppY2nZXw9NNPqx0IVeFXA6jy54wpGjEmZ4GwUib3r3XMcn/oxEnYyyvhy801zsuWJkKeq0jfsGmjdE5M8nI1gJqYhtY2/IIkhtoU+f5SABCQXuZ9N9+IcakLv/zF/aqBfKe+UeYaOIPpL/7iL7Bx40b9nbSDUcNNwYXH3KiF+vd//3c89sCDWODyYk1BMezSqJH8cdZR5YpluPETv4bSmhr9bWL+Iy7fd9fPfoHnf/pzTAyPJjQxQP/kBJ5rbUTT6BCiIh/fCt42gcn2WvGZG7LwqR1ZOvOI9TXGNY1yl8C7+fdh8RYIw3pnBjom5hJIYsYRPPMEAqcfRDwwJKdEKMk3t5dtwZOdNfjew7vx7HPzW9tyOeHLy8eqW29DVmHRFKmhncv1G9fjtm1b1ODTxNUDLjLY0NqKnwmJOSMkhg01ERHSe/qlF9F0cD8ir2HAOp9BuxfO4OOUbBIVNkzJPcFjbknykjwOTfrhb2xBWcyi6xrpzDs5X75kEW769Y+hYlFdwt2GiasFYfmeL/3iQXV6NzFqkBj24DonRvF8axPaxobf0gzMt0Vg6OflQ9f48Lu35qAoUwqe8BRqXmw5i5C67nO64rE0dxLSZM5XFyyIBUaEwDwgROYxxIXQKImJR/HL/eP4ywf60dIfUjL7bofH59Op0gULahELh5W8OB127NiwHrdv3waX02FqXq5CqJF7cyu+//CjaOuiMy+RgdJgk7gcf/5ZNB88qGXh3Q6ul8Np0luKypHhdmujxXwprVuIGz72YVSvWK4zvUxcfQhKXSCJ2fmTnyEcDCmh5fdvGh7ErvYmdL8FZ5BveTFHLg9w84o0fOHmHFTmihCWuhiPhWHNrEHqqk/CnrNQwyV7HyauJsjHtrth9RbpNOvoaDukdZZvbUVdiVsF0KGWAPyhd7eAtrtcWLxtO0oWLRFuF5VsM4aTtqxdjdu2bdUVj80m7OoE5WFuZiYyfelobGvHxOSkfnsacnOF8fGhQYxPm532boRVOj1cmHFrSQVy6E5A8owuBQqqKrHjIx/EglUrdUjOxNUJrhKeV1mBkD+ArrONOixPEpPudKkWs88/gQA9k78JvGUCw5WKv3RrNlaUucCpb5xRYUnNUyd19sLVWllN7nL1gqaJFmcaLN5CxCb7ERvvVg2MRa4sLnFiaDKGo60BRN6lo4f0f7Bg/QZUr05465UWjb2LlYsW4n033oj0tFSTvFzl4PcuzM1FmseNU03N6veEctHmdMKbkYWR/l4ELuEn6N0ANg3Zbg+2l1Wh2Juu5IVtSFZhAba9/71Yes0m2G3G0JOJqxd2hwO55eU6jNQjdYQgaSWJoTFvv3/yTRn1viUCU5XnULuX6xZ79WE02k1xeHRpgOSK0iZ3uQTYLbuqWF0cKU4fLGkFiA01ITbRr2cddgsWFbtwuiOoDu/42u82FC+sw6LNW9VpHTOARmmVxcX4yJ23ITc7yyQvlxnU+s1FbS/TVZwnHTshLQdPndYeJo1RnampcEgDPtDeflXaw7wR3DY7NpeUY2FWnsoH2oZ5fOnYcMdtWH3jdepP6qoEX9bs2U+BOeF0u5ElsnGkr09JTIrVqkOLJDHjoSAGA37tDLwe3jSByfJa8WtbMvDBTRnwOmm0a3wQZ9174FpwK1LsbpO8vBYkn+Ip0qvQzTBkIwl4O9C7LDYhizY9ni1bI2pirJ5spLgyERk4g3jQWKQrw23FwhIXnj4yjhH/u0sNk1lYhCXbdyA1M1MFFoVzRloafv2eu1FRXPSGldHEa4PyhgZ/dIRFsxI9JxvrEs8nhxzmUg4zLeWFBQhFojq9mtOtqaFzpwv5l31/W6shR98l4DdanVeENQUlSua49heXB1i+fRs2Sx1JEyKjDf1VgBSrfGsb5TRtBN893/itgHXXI/LRm52NvrZ2ITL9sEi+keR67U70+ycwKkTm9fCmCAztXm5a4cVnbshGcaZdBXE8GoKzcgfci+6B1Z1lkpfXg+RXdLQDEy9/VTUW9qI1cu7tNe4pFjsCR36gflk4hGdJL5nFvI/DklogpcguJKYeiATkTAqKsuzISrXo6tXvllXuHdKbWLLtWuSUlmnFZMNE7cun7r0byxbWXpXkheWOjTI34kq/4dDwCH7w8KPYc/QYNq1YjqgULq5M/Iunn8WBEyd1hldmujSC2kGYfbAcsAGrKCpEV28vOqWnqfklDZsrPQ2B8XGMznFP1JcLlFVlaT5cX1EDlzRQ0oJo/lQsXYIbP/5ryC7Iu2oaetb9wd5+PPyNb+H4rpewcOM6IWymTc+lQCKblpUJuxDZjjNnEZiYlDqTAq+DC/ymoG9y/HXtYd5Uri4pdeIjmzPUaFeHpWJR2HIXwbHgNrV/MfHGiAdHEWp6BpHugzor4e1BKrjFhnDXAYSaXxBS1CZCYHYrBgW0s+JaOMu3KJHhsGIkEsfda9Px0e2ZiVBXP6pWrUFuReVUjysUieCO7duxesniq1bzEgqH8cK+/fj+w4+hrbtHBfeVhH9yEq8cOoyXDh5KaFziiEWiOHTqNPYfP4mBIcOz61zLbW+qB++9+UbkS08zOZ3e7U1DxYpVOtX+3QCn1YodZdXw2KUNIX2RfMgWYrf9g+9DbnGRdIivrp7OxNgYDj4jxFrINRtiE68NrhO2aMM6rL7pOtjtnNXMbjBQl5WDBZk5UnZe293EG7Z+OWlW3Lk6HZsXpuqcfLV7cWfCufBO2LJqlUWbeCNIHgnR0MZN14Jgnr1dMct7k8NQjFdPzio4fOhadh+sGVX6VhTQ9Mr8v+/IxeJiMumrG3mVlShZvAR2p7yrvDv9fixfsAC3bb3G+OZXIVTDJO95XHpNO/fsxcDwsJ67kmAvPlngz8vVqcfOgcpwCTB5hXm5+PBtt7B4aD6x/mYWFqJy5SrDXuoqxzXF5SgQ0iaUU2ccedLTsPHO21G5bLG2K1dbO+LxpkqjvB6LN66bo6VyDkG+vzctDWtvuhGLNm9ClG4n5LTTZsPqgiIUpHoTdf9ivK505dARicuHNvngTA48y85ZeQMcReumVpeckzAkBQ+M30kkz3MIR6+/ARLh30TIc5iK/4JnJEnHa0U2/b7XeeKlP+XsQe1hXJk6E40zlCigmfocrxV//RG6BzfCXY1web2oWr1W7V74mnx3etr90G03w+25/NOlkyQh+ay3grcTPqkxuNS9PMUZNpOBgIYzyveloXG8TlxvFpd6xBsVL5ZGPpM9u7fy7GRak9s7AVXlC6srcdv2LQiLgJYIddHH/OoalCxanAh1daIiPVM97TIL43FjscvadWux+uYbYEss7nc1gWQsIycHd33+M7jrC59Te6fXgtaJRL14XbzB9XdaPmcdkv6s/Dysvul6FNfWCMmNqOzMcnmwMq8IPnYOL4HXJTA1BQ782hYfCn1c8p0jRyHYClbBUXEtUqShmgugskkNZKUixOV14haH+t6IDLchPNiEWDgo12jwKuEsdgmbgshIO8IDjYjSEZvt0isAMxzDcx2gUM8xhDr2IjLULIVNQjOeRLgkVMhxb3XKvRZEJ3rlOZ1yTv7ZXl8LwXRD7uOzIoPN+pxYRIQc3+UNxfMcQTwKW94SuOru1grM/OBU6g3VHnxs69U7lFS2ZBmyioqn3tkvjfl90tMukB73pcrV2wHjZfxu6ZH09ffjyIlTOChbd3cP7CIc6VeDFXT689hg0qfCyNAITpxukHtOo6enDxYpvww/XeCxhHGMXj2oci/32uXsQP8gmppb0d/XDzYzNjnP52h4eS6fQUdteixnjd9yxL1syfj0ujyuta0DvYxLfhMMx6GgwKQfZxqbcFjeictRcHYOfUVcDjAPLFIOBwYGcbapSZ+veZBIw3Ro2plW2Xid7zswMITW9g7VGrwjSFxcM2j7ujWoLS9X7RUbLk96OorrFiEtOycR8OoCy+dNFTXGkJ8UHOYjbR5u+PhH4J4HM45Yq2iTIQUCKZzefclyybYixbjOysFyLQ1uRnEhMkqKdHYN600SeiTnwhK2q7MTZ46fQJeUsQjvTU4hT9R5xqXPlrKjx0kwTSyrcp5llgbDU2A4nmOea75Pu28OgzWyevkyrNixHW7pGGqHQ84tzslDaXpGYtj4fLymJ950twW/vj0Tf/ZermfE/IzC4s6Ce9Wn4KzYISHmxgKN0cAwAoe/h1DXIbgW3AmLNxf+Q/+FWHCExUo+vguupR+Es/pmYy2f+ocQD4xoAaH/AXvJBl0xm8Uq+ZnZS4j5B+A/8t8It76s4XiRaqwUT7Y00veoATPJjz4jcY8ExMTBbyHUuBMp8YThkZAnR+X1uo089Ek4Clcj/bavM+FyUe4WARsdPAv/0R8h0nNY7YsIkjJ70Wp4JL8tqbmJ58hmS8XY478jJOcsXMs+DPeS903dM9vQFEpaxp/5Q4T767XxIrpGwrjjb5vR3C+k7CpCVnEJll9/ow4FsDEKRyJYv2wpPn73nap9uRxgnrIhpY3J9x6id9cuKWvssZEsALlZ2Xi/9GRXLKxFWNJAsBy3S/gHn3kOJxrOTtngUI7lZGbi3ptuwLIFC0SGCpGR82ysv/XT+7Hv+HHcd/PNyMvLwfcefBgj9FVi3Ir83Bzcfd0OrFpsuHd/8Nmd+NVLr6g2gUNmLocDgVAYX/rYR7Bs4QL8x/0P4NUjx/DhW29GSUkx/vl7P1CbmbVLFuPT77sHEYljZHQMj77wInYfPqKaHIJ1jDYjXOhy29o18LiNDgYJV3dXD/7PN/8NQSH3v/j7/4uxYBDByQD+8t//U7VAH7zlZqxbvkQ7H8wDpm3P4aN48uVXDPsYRiQXfGle3LR5E7auXqXagGT8fiFSn/3zv0JlcRH+96c/ie89/Bj2HjmKMvm+n73vA8jOzJCQ7wzUVJ0524R//OGPlcTwo7BRP7v/VZx6cReiUoauJmwvrcTmogrEUgxtnsPlxN2/8wWsvm67djS1kZ7D4OK0p/cdwA/+/K9RtKAat37qE9rISoFJhBDYbXjyO9/H3kceR1FVBd7zxS9oWfr2H/5vkfNx/PGP/1uCCMHgPVLXaB+3/1dP4YWf3I9xDr1KFMyGrLw8bLrnLqy67lo4hdyxSfnxX/0djkv53SQy5dr334tUIbzaoZF68a+f/110CfEnIfzSt7+hHY8k6Tm+ey++92d/jhXXb8cdv/UbSPP5jLTOA4wMDuGRb/0Hju58QUd5hIphMDCJ++uP68yk6biY0iRQW+jEZ27MNtaikDyhULCVbYW9eL1cnRsNpkKSF4+GEQ+NItT8JCb3fQPxSABWX6lIfjdigSEEhByM7/yyEJLvIzY5hJTUAtUgxSOTCLa8IPd8U6Q4x6GVb+s94y/8hRCepySHUuAoXquExSJxRse6MLH3XxA49QDiYb/cI9RC8ohju+Mv/jXCZx5HXMiPhX5SsqrkfiuCp36JyT3/KEz8/LFu6Qci3HkQ4y//P4Rad0ka7LDm1sGaXSNXYwhJ2kaf+gOdwaQvOsdBUcTp3Z5Nvy81P2QMK0iyOZT0P+7ONQJdJeBMkvLlK5CRX2B8f9m8qam4S3oPLhEulwOMk0KpUXpn//T9H+K0CCtqNZbU1mKlEAmHw4nmjg58V8hGfUubkf8S/mxrG/7rFw+oYavb7RbSsQgbVixDVkYmOnr78I0f/gS7Dx1WwkVQW0JyEQoEcbjxLL72X9/D0Oio2m3kC5khAWpqa8fjQjYa2+Q5IoRd0sMkEbBJPrCnxJXI6X3WbqfWJQVhITN0Gd4nAvrv/v0/0Ds4CH8oqM9kGmkz8+PHnsCTL72sDfmi6ipcI4SiTHqtI+Pj+OkTTwpJeg7j4xRYfLM3ASMDdBcIhvDErpfxg0ceQ0//gPrg4RBOdkYG+kVAfv/BR3D/U89oGgnWLua13+9X77k/ELL44v4DqlFj3nDK7+WogyT1ZaUluGXLNZLGID+ylqXC6hrkVYq8uIqQ4XSp7UuM7YVkHTVbC+Qbr5RGVQqN0djOcfDbZBYVIkMI/EBnF5qlTqmmJQHWUf/YODrPnNWpwNXrhHSncxg9huCEH4GJCekgGOFZeljenvzO9/DgP/4Lhnt7kCNkmcsmZOTmoVfuf/CfvoFnpH5OcjaO1Ybc0lLYJR8bpb76pU6xkDPfqKVsPXla6mwAA9JZ6eICogn4pc50NTUL+QrDm5klG906JC7OA6TnZGONdLLyK8qF0EeVyNFj84q8Qp1iPR2XnEadm27Db+zIwo4lXolA3pzrHGXXwb3oXljTCiUL505ukKxEeg4hMnBaSEwAzuob4d3xFzq921G+DbGJbkQGG4R4dOjvtGv/DJ5lH4ZT3oUu8KO9RxAdbFQtDZf3jkeCCJy8H6HGZ2HLXYy06/9KDZbtxRvgrLkFFpcPscEziPQehS2rBpb0YiUeXKU52PikNNxBeK//C3g2/g5cNbfBJffGpVEPNjwhXMYJiycXzgW3ScqlWo+1I3D8p4h07dNw3q1/Ivu79DkOeY9o/2lER5rV46299Bq5R7iokKBQw+NKsmz5y2DPW8xapHkxF8CykeLO0aUGIj1HlcBR9VeaacOBZj9aB64OLUxR7UIhMMvhlIab+U8NwgdvvhF10ku7XMMfhE1y9B+//yN09PSgtqIMf/75z2HzquVYv2Qxtq5ZjTOtreju7ZfGMCAkZTn6h4bwtPTYXj1+AptWLscXPvwhCbcKq+rqsGP9WhW4rSKID58+g/XLFivp4vd59egxdA8MoqevHwsqy/GVz30GN23agB1r16CqpASnW1owKHKC05RrRbDw3DXyvNaubrT1dOPT73svPn7X7cgRosD33yvx9QlpOSNC2S5C53998hP46F13YNWiRQhSM3LoCB7e+TyqRUD/1vvfi9u3b8WKulrVuuRlZaFF0rjvxEksqqzQ3xTaJDM79+3X6enM65AQn2g4gl0HDioxWrqgBsX5edpjO3jihJCgX8Ergu/X7rgNH7vzDmyW/OBCmnT1f0ZI3pH6M1gu92Sk+zR+CssHn9spuZ6Czv5+XbPqix/9MG7cvFHzidXsHTe6crtDGkVfqgdnhHSOSQNHwkcHd5wSPtjRftVoYW6vrlMbBsk0JYAOlwsf+fIfI9Xl1nPzAUwlu6cjwyOo37sP6VmZqJN6lBwqJZlvEVJz5IVdiAj5vfbXPoScggKMCkHfJyScCoAdH/mQfmNK6aZjx/HTv/l7+IQQvff3fxd3/s7nsfKGa7Hu9luQKWW3XUhJx+kG5JQWo7C8jIwXZ48cRaec23DXbfD60rSd6pJ6/8KPfy5Nj0292vqks1G5bImmeVgI+4Enn1bNHn3sFNdUz6k24g0hac0Rkk/C2NVwVmUWU1/o9aJhqB/jiU4HcZEGxipnFhc78MlrM0U4SK+DX9CZBnvZNbBJYylF0Qg41yAVxFa4Au7lH5HCJYUlMgmrN18YWpk0+nbYfKVwLXofrEIgOHyTIsSHxIQ2MvHA8JQjtnhoDMHTDwoxKYRr8b3qbTYlGpRCIz1HVsKqm4RMbEHMP4xQ5wFEJwdVExNqkgIjx54NX4CjcI3cI5nM50iPy73wvXCUbZIPcU5zRbuXSN8p1bLYy7bCWXePkKN04TXSK5P7eOxe9znZZyLc/Lwx7DUvIAVG8suz9rck7Rla+NiDT3db8cf35s8XufW6oOFusRCCtKxsrWxsUBeJkFi9ZAkcHKu+TKCQ3HviOAZFGLJM/9YH3w+Lw6YruoakBDmcDmnIb8KINIJNHZ2YmPSjs7sXLx48jAVlpdi+djV8aWk6XCP9GCHSwHtvuA4lBfkYm5wQknNyauiGoPYx1ePG733s16TXJ0RZ7iPdzM/Nxgpp6MeEQAxLbzPK+KQuqE5CKg0VbURUPm6UNmIJUMBzGOevvvgFVAsporbGJgJ3aGQEO/fvR05mBq5ZtQK1ck3TKBvdh2+Sc6sX1yFdyOHzBw6pRubNFhuG6x0axKFT9UJqorhOGpuNQlxoEhiSuPmcLdJLXrN0sQ5PPbt7rzGUMw0cUrt23Vo1xE71pqoa+3KCOZSXk4s7r92mx0lD6aKaBSiU7WpATUY2FmRm6/sZZSSG6z8qjXtREQuGEWiewCsEl6SFGs/+zk40nTypZVuNb6WsnN5/AL0trVgqJDwzW2TCpSDhQ9EYnvi3/0S6kPz1QqpXXrcdFqkfKaEw7JJHq6Q8rLrpegz39qJJOiAj0hkplnrH4R9qcgY7u6W9EnIrjXT97n0SZxwbb7kJk6NjaDp0WIey+JyJ8TG0St2mJqOktlrawvlHiFOkTnLYrGzxIiX0rB+2FCs2FperH6EkLiIweT4bfuvGbOklGBWNwzP2nMVwVl6HlNjczYgUm0sISwEsTqPRpCKZajxqR2C1wZpRqWFIdAzI2wm50KpEWw0SjlgUkZFWISdD6irfXrROzvOdExVOdil2lw4lpXjzEB1uAkKjiA7VC+8Y00JtL9lihJ2CpMUSh1OITzzhkIf5GhPSRO0Kn2nLqhSiVCSVPCqNvZySjZWDq3unONLkh/Q0Bxp4Uu+f69DckvR7rvl91ZARbICr86XB3fTO7QhmFfKNC6prkFVUYjQ8snF/+5bN8KV7E4EuD2j7crKhSbULdVVVSJNeexLMYxKc0uIi/N5HP4wP3HiDpqNfyM7o2BgKcnNRUSJp1NKWhGFcW1lSjHTp8Z9qbNL0G4MulIspWFhZCbfLqXWI4J5+GjJFiHOoiD1pltPpSNSOc09KHLA+LBVilytEhfHwNNM4Jj1VaoGy0tOxWN4rfAGBICGskjRmpqehVYiZkiyJ681AXgGDQ8M4296B0vx8lMimr5LYmA7m56KqStUEnGppgUXzwEAi6bh50wb4pXGZDr7P5QI9jvI7rFlUp3nCRNJDL4eRuJL5fAY1ehw6Yl4yy2jrkiEN++b3vxexaYR5voBalsy8PFQsW4Ih6SBQQyJsXF/OL+S6r61DHbAtENKbliHyTQvc+eDkj0kh7q2nT8PqsGPJ1msQCQSVtLOOcrNIp4FDSlwXqre1TT3TutK8yCkpRZqQkaYjR3U4My7300EeRxA2feSDWn56pbyHJwOISdke6xvASP8AsguLkFdamkjB/AFrGeVSTlEBFks+8d1ZmGLSDi7LKUA+p1Un6uJ5BMZmTcGyUhduXS69NppES+ZyyMNeskn2c9hhHd/FYhdykUrJoJVmCpobsjlStSAaPwxQcCeDajDJoMhQEyw2D6yeHCEP5zJqCiLAaT9jlWvxoOH7grOahBrDStsai/PieyRtXPzQ0F4lyFVwBLHxHsl0F8Kdh+B/9Rvw7/2n87aJV76KeGhcWL4VsUkJe3G9mLNIkbx0lm2GvWC5ZJn0/yXtWS4LProlQ3rWF/HmeYNUaVy0kaHHV3kpNrbXrFqJkqJCJRSXGxwSCoVDKM7KPk+7kQSHa9asWI5lSxZJDy+CvsEhnd3h83rhvYQhcUTKXl52jpASu2HYOo08sNRmiMBUyj5Vhkl66D3WqDvGvzcH5k2hEAhqPZLx0eB3SJ4blp4k7WiKC4Rg6JVz4H2ZaWnSEFoxNjl5EcF5fUijEgiolmdceq3P7zuA7zzwEP77wYeN7YGH9feeo8cxIeEmJ/0ISZ2engYSNvZ6L6jFlx05WZladnR1cpalSBh5FZXILa9IyKr5ibqsXOR6RN7KN1f5KJ3gu7/0eVjf0necO+AwkC87CwvWr9F1e3pbW1UjYhES03rilJCaLhRWy3crK1ZycikoyejoQDAYVOKy+xcP4Rf/+C/4xT98XTbu/wW//NrXcXTnLrVdCY9PGGtlCSGpWLoI3gwfWo4cU/LNHm5Hw1khhVlCbopRtqBavTp3NjWpA73mEyc1fH5FmQ4xXdQezQMwzbFQGKuv24GiavoX478UBEXGbS4qV8eIxHm1hOsdff4mabilNkvRkz8W2POXwFGxDSmxucyc5QPRUMqSsPSeEj3nPtwbfUJDgMlfTq2m5z9Ofeb07EtBznP2kDE7SbIwNKGMkUNt0oolAp2DPpvpS6aCu1gkoZ2QDzXailDbK7LtPW8Lt7woSYrC6jJYPT/gvAGFVzSI1A1fNN6VxE+6xzWFDrx/YwYvzzuwUcmvqkZeebkKJJaZVI8HW6QRyvTRSdflgzZosmfjTeLi8VzaMJgVncSJwx6xaEwFpF3KL3vBl87iOKzSUeE1xq2z56YFtLLMax1Kwih1xh0G5TeO3xgMxWdNj435FgxyAMwgNXR4eKnoeI0b6xXz4s2Cw5VhyQeSIGp66pubcfD4CRw4cW7j7/rGJrjsdv1+DHshZqR8iuyoLC1RA2sdxpK00xaGw0hqeDkP4RA5t6GoDHbZ87OxTFYtX44lWzbLtzxHZOcbXPJdOJzjzchQjQttMygBWk+eQl9ru/q1oZZJClPijvPBt6YGhh0OGrif3L0Xx1/efd527MWX0X6mQYcs7S7pCEsdZp5VrVqh5aJDroU4TNzQgIB/EjXraKoQw5JrtyEidar58BG1L2uTNPny81C+ZPFrpmc+gGXFIx2qdTffCF9Owou1nK+SulGWLm2IHE+1tpQj1L5ctzwVEck0CoIUal9Kt8BCzcablyGzi3dUP+Rmu/SGSEyk10Cbl4shYcITsvlhcaQZFdKa0LqExiihE+HOQfus0pgbmZhIoFRw2uZwBW/HgjuRfvM/yva1C7Z/QPpNst3yz2rUmyKNwbyClCGrrxKOss1ynHBM5LHirtVpyEsXkjjP4En36VpHzlSvvhsbnfVLF6Mwlz48Lu+3YXli5VQiIschjn1fAqzUI2Pjap/CcPQ1EpHyG1Wt18WVluvFD4+OS8cuqtoWLVOJYBr+Yv799sE6wXyZlg4OYXHqMs/zeSQbyecnwTDj/oDaw1Cb9FaMopkHnB7OIcsSEeIfu/N2/MlvfQp/8pvntj/W7ZO6/e9PfeK8oTkDM1XP4shIT9Mp7Zk+n+YHl0ZgGePCoPNRC0P37+kOh/Hp5f34TrdI/sfn4dDRdFALk11QgIXr16K3uQVt9Wcw1D+A7qZm1VBWLV+KdGlYWf4uCTlNEsL6mpaVgV//mz/Hb/3D/71o+81//Dt8+mt/h3v/4H+gqKpS6w5nQOWWFCMknZPutjYce+ElaT5sWLhpPT1Jomr1KgQDATQcOIzJyQl01jcIAc5QrZB2rOcxaL9Td81GFFRWKLGT7FB+sqmoXDW0UzUk1WnBZ2/IEiaXkCbyUTjLxl68TqSkCM+ZqtOzCBV+aUWSQwHE/IOIhUY1w6bAH7QBGO9VOxkupEjyQmNhDhNFJnokw8fOv4eVWBqTyFCjHCUEsVzncJfFna2zdajysngyYE3Nmdos3Ly5iAcHEZ3oZuL0vvkE5mdKPKz+anQKuWQM7SwW5Dlwy4q0RKj5ATYm2aWlspXpODMFc5Y0Opyi7POlX5FPwyrHhs0pDX6XCMsLZSPTwKGS7/7yITzwzHOa3wwflB7emPTUJgLnr+TK8NzoS8YvwrBKev8k0kqwk3g7L/IWZAOngaene+Gw2xAQ4dvV36/pnoKkjw0CZwFNBvwoyMnR93+zoPbYLeHTPB61F7A57MjNzUW29I6TW67EaXM4Mez3w0+7tFmsV+wolhcXYbWUIzlUOCTtxjDl/LKFcdlsWJJTADsbGvkdkfxfvGkDqpYu0e86ryHppxagfNkSTI6NoaetHU1HjqGnuRUVQl5yig1nlq+NFGQV5Gv5Z74QBUVFKCgsPLdJHG6nE/4BaXt0ir0G0+pVsWSRDlufPXgYZ/cflDoCLFizWq/nlcp9Qo56WlrR39iiRq9cX8ol5ejNakvnMlie1t9+q5IyQ4YBpWnpsvkMAsN8X1LqwvVLUw2NkzTSFk8WHJXXIsXGKW8MdfWDPkxsmdVIcaUjNtGHUMer+u6GEl0DqE+WyFCDDo/YchbqTBv6bdEZRPGo+pWJU9sgYQnONopxIcfGZ6QRT/Yk5awrE5YMw09MdOAMosMtIt1t8lvuk3NS0uU5ZzD67J9i7Mk/kPQM6H3zDcw7a0YFHKVbqE9WBVWez45bVqXBN49sYdxpacgtK9c9vwJXQl5VtxAl0iu7UhWEBn5LpXfulB7tqeZm9Ilgo3aC4N9IOKLO4g6ePKl+VTIkbdQGcSZRW1c3GkSgqR+nRHh64O0QYtDZ26vaIxrY2qb5tHh7YPyGcS+foULcSOIlQQGeJenkdOeBkVGdyjx9aIHDYaPj4+rLhjOeli2ohpvO7BLv8Uag+MrIyEBlSQl6B4bQ0tGlM6HUK7DErQ2ICPhHdr6Av/zmt/Hocy+8pnZrpkAtzKKqKmRnJLQw8m1oKJ6Rnz+vtDCcdZQrDWnS0zM/2XUf/4h00ua39iUJh5ALagLyy8vQ09iMQ08+jcHOTlSuXI6sQunEvk4Z5fB5lhBnDkOFpWNx9PldOkTMNoHfmPtJ2mz97Bf4+m//LnY98BD88pvVKx6J6nCRU+p1y+Gj6GltFdJSAp+Qcd7LNdiKFy7A+NCQpolGr9WrVlA9+7p1cT6AcoFG4LXr16JI5BWN35nLlI1bS8oNAmOTzP30DVnyrhx3Zp5JRU8vhaN4vQjA2a3cbwpacF6j8Lx2mVJMXeaHlopncWfCUXUD4v5BnU4d7j6sxrbRyX7VogTPPIZI73F1m6+zhGxO1aQ4Sq9RUhI48TOE215GbLjNuGfwLEJnHkVkoJ6l1XiWgENH9pxa2ApWanzBs08iLGG4BAGd5UW6j8J/8L/l43G6912wpp1rKM97pTd4v9mG0Z6lwFl7h7ROho0SuV1NvgNb61IToeY2WIm4ajBV+2xcqJZN96ZicXWVkoYr9RFom7FSBFNpYQECgYB6v21oblH/KtTIHDp5Ck+9slvS4sWaJYt12KRAhBd78+09PXj+1X2ol/A01h0YHkFTe4c23Dxm2iukB8gGnXi9N0hqaLhPhmNJ5NCORcoxXQU0t3fijDyLBrTJMJciHTyXnubFphXL1ch2z+Ej+h698j5DQmg6unvw7O49Sr7odI6+Xaa7nE9GOT3m846FSHHWEz0Tcyhp/4mT2H3oCLp7+zA4LPF39WCX9GAPyDO5ZtX1G9ZfBhL3zkAtTGVJEeqkcdQ8k43+hXS4UvbzAQ4pCwsyclQLw+9BLcDCtatRyHcSgnpVQOpjjtTFiuXL1Aam+dgJpAuJKKyqUM+502FI6nPQ+iJ5s/ne96jvosPPPY+ju15Cb0cnhvr60NnUjD2PPaF2MHTgtnjjBvU5ozdKeSiorFQvvN2NTeo4r2b1Ku0QarySvZwBFfIHUH/wsHrmLZHOFa9fDaD8paxZfeP1Wh+U5MtWkZFlEJjKPDtu5syjKFmz0Bdnmjp9S7HMh1VS5evFwuyOagG7QJrJf2lwoiGpRGF9t+mQbJBrEdnkXrV3kcZVCAmXCrDmL0d0sAETr3wNk4e+A//hHxgeeIXApAhRcS18D2y+MilAck8sAueCOzTP6BOG90wc+Lbc831M7v26EJjH4ay63kgL08pE0jhX7nfVvQfWzAoEG5/C5J5/wuTh78nz/gvjL39ViM0x2IXguJa8XwkPyQDvjasBcFAL6PlvNDfBtPNd7cV0pCbfQbK62GfH9cu88Lrmfg/TLsKJNgken2FMzXHspbU1KC0q4NdIhLr8YMXlbKE7r92OxdL72Hf8BP7zFw/g5796Gj8RYfdf0kuLRGNYt2wpNgohoO1LljTedFhXXVaKY2ca1EvvL596Bg88/Sy+88CD6rCOHnbpgyQ1YfvBN6BGiTOD1HZGzxpIakY4e4gzIKKsL6xHmjYH8oUwuR1OPLNnD74tvcd2IQg03GR4DuFQ03NhDtE7MJ3urVu6BJ1CLL730CP42RNP4qFnnsP3H34MT7z0ivrTuUvSyLQaKZDiLgUnLPWcmqdkGpj6ZNr4XQg2FEsXVKvTulEhSfS4+5PHf4UHn3lWPfP+VI5Jqm/btgWVkk/J2WMav8QdTr7jDCIrw4eFVZVql8Rnc5gyv6YG3izpZSe+wVxGsTddZx4ltS9M89YPvhfWxPHVAvpwKZVOBTExOopyKcP5nKp8QXlhJycSDhkziRLlkuVsxXXbdMHCkN+PB772z3js3/4Dv/ruD/DQ1/8VO3/wE9WYXvOeO1G5RDrHepdRB1lCyxbX6WP8Y2Oou2aDtDWGcoEzjaqXL9VnMu85VEW7GblTr18VkDpOXzz55aXSnsh7SZ7Qfk498X58kw3bF7LiMCRV/uXwrPiohJGeyVzPAxE6HM5JcWUbWhFfiZ4jKKTioQkdBrPnLoZNiAIJyhTk3eKTQ7Bm18JRukntNFhYOH3allNnaAyE5MQmaPPSr9Or7fnLdMFCrlOk4Y2Y2MrBLvdwGIoRc4o1HdtZPDmq0aGHXRr52nMWaRzMbPZcrd4iWNLlo3BmU3hSnwXZW7wFcJRsgHvZh43p2SoEjC3uH1a7G1veMtjSCvn0uQ+WJUcqQk3P6rHTbkwqP9YeRPsc987ryy9A9dp1aoQnHw4eaYDpMbaORnZXWDizSuZJj4qaFZfLqTMY6OeFwyBVxcXYtGolbtqyScfOCZYT2uYU5+XpzCT6UOkfGdFhGa+ke3FNlTTcW5XgJLUvvIcNPYcyaisq1NHddDANNPolMairrkJpgVEeuXmlR0R7Fq6FxPiXL6yFT+IZn5zU/ULGl593EYnhMFdFUaHGScHLpQsGR0Z1bJ9p41pI1CTxnZP30g/NZDCEiuIirJGGIzl7aFwag6LcXHWIl8Hp7ZIufqMiIT9c7oAkiusuafwSW5U0OPx+29auhl3SPgV50LDk04Lycl3PSYfruM0E5DlupwMdPb263AMbO6cQgvHBAYz0ivyRd5irYD6tLyhBSXqGppvfqUTy79r7PnBZHTvOBegwpJRZh8uN3JISLL92q3q6TQ7tEqwX7AgEpVwWV1djkZANXmcIGtnTjobDQSzXI/39GKUdmNTF0kV12Hjn7VguxNrjvcCnlLQXdKBptdmRJ/Vj4913wG5jp9aohw6nC+FgEKV1C1EndadAynCiQb9qYJW845JGZ17drzKDFVYXc3z6913IdVH1JyesTjilx+9eet+8GD4yPhGLhhzJf37M5FmeP9dDNs6fK2YC9hYSajaSCZIV4x49Iz+lxznWpa78eS3FmWEspSANMUnSeXEJkrFHh1uFZPAeq3ryVcNganuSz5JKcF7hkmfHQpPyrE71D8MGnh6DLWkcA+ewiyGoDUj6eC8Lru4Tp+c4+LYkdOPPfwWRwUbNgxF/DN94ZhD/8GifYXs1B0FhVbZsOVbefKsQ5ag2hktEYL3v5htRJg3wtK94RUEBSLVpe2eXkgOur8IGOk0aaJ6/EAwfCATRLcKRvlRYTOi8josyUnNyoYaBPzkERS2GUYfOB89MlTvZkvfzOVzfZWxsQu+nQTP3vE6RfXHKzoHx0H1/nzTSJBccaWAjTq2O4brfqL3J1CSfy02njfMZiXOaPiPYFJL3cQiN/nQ4bZwGwbQT0vgT15Pguygpkj2PGe9MghLosed34RHZqFFiHaGNxYHHHsHYAOXJ3ESWNOZ31ixCkTddv2EkFMS9v/8lrL1+hxLUqw9SNowKoeVPcWFZSZQfNrQWDlFSwCXDCmJyOCxEta+9Q37E1HA7u7DQGDZiXJcqe8k4ZdMZOVKep56fuKbPkP25J109YI5MBgP459/4HEZoD0gySQ3MH93h1hEYzRh3JtyrPgmLgxbMcx9M49R2iQSfd50nzoNRAKcKQSLEVHghFjTOJWkhCbFK3ujUZ96nIc9H8j4u5KjhhbxY7FTTM+svfNZ0yDV6C5b49T56FKbjPSVVFxdkRqGxXCqqOQojqSRuUYQ7XxXhbIXHaZHGNYq9DX6MCpmZi+BMkPIVK+GTHj4FA7UW65ctwyrpLV1uF/Ovh2QpSJNeGB2gcajI/hpOswiGt4rgpBaEhIDrCaWnpWn6L4Vksbx0+UzgEtf0ORInNSXcLqxLbwSqg6nFycvOQp6kkwtCTu+1XyoWPuPiWvHaoBFwdmYm8uUZWRkZSuAuBcapddT4OePgk/n81u5uIXRcTd9YtqK/tQUTw4bTzLmIuqw81GRmw8FJCJKLHL64/mO/Bi+n6V+izFwN4Fu90ZtpGL6/UbD0XBL85fakqk0Nve9mcrZdQov6ejgXp9GeTIdeS2xXI9hh53paw30DaD91mmcMG5hwgI2H5DJtFXLqhNUUX7WZ8PbAEvgWhIdmXuKet1yB3+59cx8pdidseUuFJGclzgALi5xYU32xx9g5AfkGdOueW1ammgn2+NnQVpUWi7CZHfswCq3p25uB9toSx1cKbyU9F0Hu01J/hRvoK50H7xRcX4oG2xyi0xWMJV+oAcwpL9eZJnMRNN4tEZKfaqdWD7qi+dLtW+AV4vy2y8O7BcnsSZZ7M79eH8yfSBRrb7tZh5NYo5XARGOG+okFjsamVGmZMHG5IU2ckhdb4RrQEJnFrCzHiWXlbnAZi7kGrvKaWVgItzdNhQztTri+TkVx8SWHbUyYeEeg/BViXCk9ctrucPiBti9FC2rhcM9Nkp/v8SLb5dYhN4K7hRs36JRjEyauBGgDxCnVLHFKYFjo+IMLB9oL1oiwvjqmX5mYaxDGLGXMUbRGyQx/u+wpWFjoQEXO3DP2o9Eu16ZJzm6hYSh7yFxnyISJyw3WCPq3qKkoV8NtLXfCk72ZWTqNfyaHLN8sitJ88DndavvCRT7LFy9CdgHTqk2LCROXHRxKWnHDdTqhQUuZqm5TLLAXrwd0Jo6GM2HisoM2RJb0Ytlo2Ex3/HHU5juxuPTSa/3MGtgbFgLD6dOsH2xM6BVWtS+JICZMXHZIWaOtTlF+ntrqUBZzWnpeRQVsr2G7M1twWm3Idaeq52Oty+EI6jZvUq+w9IhswsQVQTSKpVs36XpRUzSZo+TOiu1SW+g10WQwJq4U4urwz5a/HPEIffMAZdl2LMh3QBc8niPg7An2eh1uIVaSSJIYNixX2veLiXc3OIzP2RX0JOzzJmZixaLILa+EzT63CEy2240MpzOhTU2B3elA+eK6i5y6mTBxOcE6kp6ZhQpOpOAJimOLwwdrnuGfxISJKwnOdKMxr7Bl2TiMZMHiEhdKs+eOgKbzupyycu39Eqluj05bTlfPqGYdMXHlQPsqeuVNTzV82LC0pYrA9mbn6NTquYLC1HRkuQzPqHT1UFxbg/Sc+eF4z8Q8RySCNbfdfE4DQ+dqKRa7qixNmLiSoG8bqycPltQ8+RVHNBZHab4DJXlzxw6GBCavnG7QjdlHNKrkukcJTz7614SJK4XcDJ96503avXCeFmfDzRU7GBrtZrndSKVPIfnH9abKly2Fx5Nq1g4TVxz0gcPhSkMDEwnAUb4diF4di26ZmOOIR5Hi9sGWu0gJAjtwtbkOVM4RDQx7kC7p/XrS0vWYacxKT0d5YYE5+8jEjICepjhd3+tx0zrWWGG4vBxW9bUy+0izO5HucKlDQYLDXlTpe7zzY30zE/Mb1ER6Uj0GgdFVmAtWSJUxzRNNzAwsXPohs4bsWX7FkemxoDLXjrQ5sDYSbQ24kB7X/dHf9MWRlYnszAyzd2liRhAR0rJAyqDX7VHSTCKdUVAIy/SlD2YROR4PfE6nppOUPrugQFdB5ro8JkzMCMIRg8BwPR4uUChMRs+bMHGlkeJww8JlGawJgz+RgqVZduSmz74ApJOkrOJiRMPGAqDsBRfk5phj+yZmDlLUigsLkKo2V1o91KmdLyd3TpTDdKcLabIRXG26oLoSqVyZ3VRQmpgxJBzZ2QppvDu3F9QzcXWByySkcGmGVGPhQNrKVuQ6UJAx+wTGwoYin/Y5FM4xpLrduiAhe5smTMwIhDh7nA5kZ6TDLuWRvi9IpjOLimedwND+Jc3ugNtm1zQF/ZMorK0RAuPVdJswMRNgUVMC4yjdIi2Ioco3YWJGEIsaM998XDXVMJRdUOREaQ7XmppFiHB2pnrg9hr2L3QsRgd2ZdIb1tkWJkzMALjqLtUwpQX5UyuN03Axu6xMx/9nE1w2IMPphi2hsacdTG5pqa7bZMLETIGk3tDAcPq02r/MvmrSxLsFUvg8mbCmF4lgNrR/malW+NxcIl5/zgqops8uLtVjEhYmxet2ITPNXNvFxMyBJS0kncqS3DzYrDYl+PyXUzz7GpgMpws+l0vXbiK8GT645LdZP0zMKKS8KYGhQaXhjMiEiZlDij0VVg99WxjDRjFrCvKzbPB5Zm+qKIUwjRFjEWPCtEcEc362/Da1LyZmAcUFebo+kkGmU3RmnLGQ3eyBnne5kb4wXfkVFUJiMvjDCGDCxAzB0AFybN/kLyZmFCKO6XfIlYEUZ5pxKhxDRaYdWd7ZIzAWixU+6fVyXRfC5XKiIC/XJDAmZhwk01mZmWrIm9RuRIVYZxZxGY7ZQ6rNrjYwtDgg0c8qLRZiZXgNNmFiJpEgMH7dmTAxs5BepcOrK1QTkUgchUJgMlJnUQNjkV6uT3qTAgpkpwjq/KwstYUxYWKmYRXiku0zDHkJ+oPhEhezBRrwuoTA2FVraqwRliEE3+31mn1gEzMOJTDxmOHvwoSJmUQ8HlMCk0ICowQhBYUZNqS7DV49G7CKcKYTO46vGgTGjuyMDLN3aWJWwFKXk50JW8K/SiwaQVp2jh7PBhxWKzxC6q1C9KkV4qrTaZmZcLjM9Y9MzDxmr6Uw8a4H3aNb3D5d3BFCoqklz02zIc05S8WSvcv0NBXKtHAnnC4nfNIDNnuXJmYD1PwVZGXDmmJREs0tLTs7cXXmwRWo3QltEOFwOuFJS4N1jixxYOLdhURLYYpnE7MBDiEJOXD5DC2gCOdUIS+pLosI7ESQGQR7lKkZQqYS4PRQGvE6bXYlNyZMzDRIWHJ8Pi1+SS2gmw7jZglOISr0/2LMioJOnea6YWb9MDEbUAKTkmKqx03MDiw2F1Ls9B9BfYyQBnuKTqd2yn6mwSe6vdI4xEQ4i0C22e3qhddImQkTMw+SlqxMEhhjSJNEgUOcSaPemYbDaoPLZjNqhPzxZmbAxfWaTJiYBZgaGBOzCCl3FpsQGOnB6SJ18lsEc2aaCEn7LAwjaeOQKvwlpjXCJr1Nb8KVuwkTswESlUzVwBgymn+53pBqPWYBxhCSXbiL8c8p9cXusKv21ISJmcYsGRuYMJEEp1M7kGLlMI38jMaR67XC7ZglApOWpjMrKJBpqJjmTWVH04SJWQN9rlgSXm9ZFskVPEJqZgPJISRWVi6zYXe7jBWyTQJjYhZgEhgTsw4u6KiLOooQJHfgEJLLYfQ4ZxJ8orpDl3RQHNMGJt1DjYwpnE3MLlwO55QWhnCnpxsFdoZht1jhTBjxksB4hOA7hcSYBMbEbMAkMCZmHxxCshvj6NFYHDaXVW1hZhzSQDjd54aM6PlUPY6awtnELIK2L6keNyxCqFkrlGgLsWb5nGnQD4yugSRVggTG6fHAzlWpp5ErEyZmCiaBMTHLiCHFapMtsWAdtR82EYaW2RGI9uTCeQnSYrNZjSElEyZmEW6n49wwkpRNm5TTZBmdSZCnJGtmTDobDrdL0uJInDFhYmZhEhgTswsKYRryWrkKtTF0w0I5G/SFz+Q6M9wbbYP0NpMzLkyYmCWwPDrsjiklB4kLFx2dLSSHstQGxuHU2XomTMwGTAJjYpZBAiPF0GJVokDRaONPvTbTSFFPvAZhiUuyUqZcuJswMVtgebTbuUp7YkK/EBiu2TUbYBqSRIopowM7Dm2ZMDEbMEueidmFqjqkGKacE8gkMOeE5AxCnjldGDMNpnA2MRdgFcKimg9DNThLFYRVJPncuKaHa4fNTkpMmDAJjIk5gfNFIGXzLMnni56rQjpxbMLE7CFZClkehTwkfs0k+Mzzn504M1uV1cS7HiaBMTHLoPCjkWyiZymgzWyyoznTOM9gV9LABSdnKSkmTEwhLnVEy6FUF1KI2TAr5/OTG2G4spNfs1VZTbzrYRIYE7MLEci6cGIsqlSGCIt0js2GTGQyJB1JsMmIRGajqTBh4hxYL6JRg9UbdUT+Rs+V05kEq6rBVyQNPJ6VimrChAGTwJiYXaSkiECMiiCM8AdlIiLyZ3Z6mHFEI9MIjAjncITpMoW0idkDS18oHJZ6YpRDjthMJ9ozCWOeYKI+SEIi4ZDUGdYREyZmHiaBMTHLsCAejcgmAlp+sYepvcyEjJxpREIh3ScNJiOStqT/DRMmZgtBKZdJh4opVotBGmbJ9kRTIY+mfXs4GBQSE9bzJkzMNEzJbGKWIZIwIqQhEtBjrj+UEpTeZXQWGIw8MuSfVOJiTBeVHqY0FPQ+asLEbIGlz+8PqN8VAylSTv16fqZBDkVv2awrKSlWBCcDSmIStMaEiRmFSWBMzDriYT/iESEO2qtLwaQ/hjANYWYccQSlYdCerchjyunxYEiJjAkTswYpf+NSLqNCYEgTuAXGx2eFMkTiMUQSRIqaoMDkBEIBITBxs46YmHnMYQJjNCJXH5IV/Uq83HwUIinSswzrEJLmiZTI/vEo/KGZ//i0MQiMjSHFYlEOE41FMSYNhdUkMJcdzNHLmquJ4ZUkLmfcs+Gyfzr49DBtYPSHYcg7OTJy0TvPBIKRCAIRo67SR1JgnAQmMD9Fj4l5jzlJYKRqIOofQEwNOy9GXBqWOIcd3iJY3WPRkHG/IQ5mFPFoVN5rxFAFX6LHEmfaaAvydpImN8XC0ksLTWgcsSjVuvMBHC4SASjvzk+SYk1B30RECMxsaGCkZ0sCI4SFvi2i8r1GRUDPtGy2yANHhTiFQu/MtmBSGpZJP4fmLkZM3k0bxSvYCAbk+eeGPQzweX45PzA0jPFJf+LsWwcFF+PgtxkaGZWCc+4rKRENhuT51Axc/H6hUEi/7RuBYRj3Ox1C5NT8oKTn7YCpH5V84p6pUG2gvNPkmLzzLCAksnNS5Au90TAtYfmWLEvT89+EiZlCgsBcOSH21iCVgB5ZbW74D/0XYmMdck6SyHO6ybFU3thEPyKDZ4xzyXuS188DryXvZ6/aiuhAI2L+QWN84FL3ToVnhZx+v2z8TUw/l6y454W7NGLBMYRaXkY8PGHcNxWH3GuxyTs1ITreKyEvSFvyuRell7+5WZSURQcbEek+ich4jxy3AFwgUcMRRjjdzxkIjSRhE+I1NS00EsPwWBSB8MyXSTZ8wcmJKe+7YUkTVffs816iHbwIzFkKdTZ42tAIeJzckrjwHP8mf/PYJmV+98HD6O7rP+9rMU7d5HgqvGyvhdONTTh1thFWeZ9keG7EuBCkxpZ2aXxi58WXvJ58j0ttDDH9nmS6pl+3yTMPnTilJCmZeTxPUvH83n345dPPYqfsI+GI5nsSGrfEMf2Y+2Tc3Aiuy/yvP/4ZIkIMnnzpFSUbGk62YDCIw6dO42j9Gf2WPKclX+5luhqaWzA6OqbPnR638aQE5NqwhNm559WL8o+hpt+n56bOn4sjeW5CSPAZ+RZMi56T7U1D0jE4OGTkkdzHnKLGIzZLM3+Cks8B+WbJV/APjyJIovhW3smEicsEa7rP9+Uvfe5jb61SXQFQ6xKbHER0tAPx4ChCzc/BVrRO2lw7IiOtQjqGZBuAxZ2NwJknEOnaL9dXIxaanLoej/iRYk9V6ULREYsEhRBIYy5bXMgDrA4ETvxSjodhzaxUIhEZaVFCFA9PIsWZjuhYN2KBYUQnByQuj6SnTY775TnjwhvsKkiiY50aJ8OJ+BJJZpdzHYhO9Mo7SKPj8Ei6L1xDh4mSVNkc8g4ZEqe8q4SNjndLuqmCtSJ4+jHExrtgy66R541pXkQlbXqfvBffMTIs6Q3Iu8p1WN1CikaF6Ema5Z0snlxNY7hdGoaeY7CkF6lWh+/NfXSiT647JG0kRXMBIpAl38Odkt7+U8LhJB+jcdy/ZwTH2mdeg8Qa4PKmoXTJUtUcsFHMSEvDxpXLSbUSIV4bnK3U3tWFEem1B0MRuF1ONLa2Y3h4GGPjk0hP8+q07I6ubvRLo+T3ByWMS7UkXd29GBiSMi7li/eRYGf50tEv5zxc8ddqlbi74XI4EBRS0NreiZFRqSfSmHhTPYkUnIM2rJJenzdVn8nnDQ0No39gEG6J7/iZs3j58BFUl5bAInG3tndIOkcwIWlJS02VtPnR2d2DYQ5VSDxdvX16nZohu92mzx2Saz1Cshw2mw619UiYQXlXu6QxLkT02z//BfKzslCQlzuVeyNyz3N79uGGDevQIeELcrLl/dwqf7gNyjNIQBx2qfeS/0wvn8fnDw1K+uUd3BLeJc/85bPP4Y7tW7WRL8zNwdjEBFo7OiXNo+juH9A4+P26mS7JR2q0+IwHdz6vM2dKCwvlffme3XJ9WJ4XQ6rHzeyTxArZsVrgkLrik+/W1tWD8bFx9A4MSNmIK6nhPfw+TCOJoFO+Jb8tv5dd8rRZ8jRD7t1z5BheOngQyxcuUM0QtTppnou/2aXA79gs73TwpJDBBGkJjI/h7L5X9Xim4ZT3KvamI9eTqlpKTueuXbcG+aWlU0TVhImZghKY3/38x99ANM8AokEEG36FUNuLqnmJ9J+Es/I6bYjDHXsQHWlH8NQv4ai5CYFTvxCi0At7ziJE+08j1CICafAsYkNnYc2qlsbeJfLHinDvMQTPPo2oXIv0nUSKyyeN5R7j3sJVCJz8pZ6PCokJt++GLX8ZgiceQKT3EOJClkhogicf0GdHeo9q4x8X0hI8+7jE2YBw60si6IQMxGOa9uhQA6LyTBVwQpDOz9MUJSPB049LvF6Emp5FuHu/hD+h6YMIhkj/CX13a1YNwm2vINxzWK7VS7xnJb2rMXnovxHtO4rocCtCZ38Fa/YChIXIBesf1nTFwwGEOiXtoSEhVO1C1EYQG22H1ZuHyFATIvKO1rRCWJxpiTTNPkiq+H1jkl7angxPRvHg/lGc6X57Kvd3CqahevVag8DIli7kYM2SJbDarPIF34jApOCfvv9D9HJoQ45JZJ7ftx890sCdll5/Zno6BoRIPP7iy+jo6UWbEAQ2ss0dHXj16DH93SfX8zMzNYzL6cRDO19ATXGxNqL//MMfY0llBV48eEgISAM6pWE+09qGmvJSaeTPXxGYz9995Aj6BobQ0tmJV4+dQM/goKTnAPKyMnG2vV22DiwoK8Ops004cOIkOoWMHD/biDJp2JuEIP38qWcwNunHiBCDJyQ9o5OTOCHXmQ9DQp6YjlNNzfBKOg+eOo365jZ9l2G5xkb8uVf3wS6kdJk03CQEzL2wEJ9jDQ3oEiJAorRi6pr8k/3+4yfQIO+Un5UtpKEb+yTdHqdL87Gzrw/7pSF3Oh2oLMzHY5KmbatX4bsPP4rltbXYLYRsb+I9h4VQkTwNCmHafeQoWiVvG9ralWydbGzCmH8SdZKXz0saT8lvfo9jZ89iRV2tpoMbv8WDz+1ESV4efvDYExgP+CUfjwtRmoTDasPOV/fjdEsLmju7cLatA6UFefiepGVpVSUyhDj+w/d/hJWL6iTcPnT296NWnse8OdPcqt/szTT3JErML+ZzOMKhbylXvT1oPXY0EWJmQXswEpiitHRVYkeFCC5cvwaF8m6z3oaYeNfB0JVr0ZtN9pwiBKRBNSjupR+GZ+3nYPHkKKOPR8Kwl1wDR/kWxDimHvYLsbkZtrwVsPoq5VYHHKXXwJ63WGOiNkV7AhxWCYzK5TTYi9arVsOaViTkYBFcC98j14XgdOxH6qbfh3fT7wmpEHLTdUB6FU6JexncK4TUWRywZtTAUbYZKTaPEIx62Rpgy1kK7+Y/hC13qeSgTQjNkyLwpLdWshG2AhKjX0g8l1jFmHYvahMge5tL0r0Fno1fgkXSlSLhbVkL4ay+RbVFkaFGeaelcFRsF4K2SzUz4fb98G7/U6Ru/KI0sFEjPnkPa2YVPKs+qWmkFobps+WugqvuXsTCEzosFe07Je8ipMqTyYRocmYfKapt0yE9rkYtyeoeiWA0MDv2LwSnUdM5F8FGjNoOahreTJZZ5XOMjk3gti3X4Pp1a7XRW7qgBmsXLUKWz6dDHWws1y1ZjE/ecxe2rl6JVmnwG9vaUF5UiDV1daqVaJfGltqHVLdbG8+u/gF0SgNLgpThTcODz+zExmVLsVIa7UEhSQ0trUaZT4BHTDsd8dE+IRIKo7qsBB+541YhY4tVy7K4ogLLampQWVyIh6SRXrVwIdYvlg6BhOfwC3V02ZLm+269WUlcqRCGT73nLqyVML2SntHRcSEWTtx73bWYCAZ0uGWJNNyrpcEmSSrNzUVhXi7u3LZZ00TwnUjuPC4X/EFqn5zyXn0YG5/QNFO7SVJBgjAwPIyjQtJqykrhFHJWUVggJKUGC0pLlERxFWQD9JYclnwf1fO/ce978J4d16IgO0uNsF1yb43cw7wdGTPSXCx5et26dXJfFPuEMK2QfNwg+XmquRndfdJxkbwjuFM7oahBZO+5bgdu3XwNuBL0SEITda18589+4L2S5nEldeqfRV6GhEydIsrxjRvWo6akFLXlZagqLcU1q1bo+74Z8JuTANMTL9PDYagxIUOzhZB8w0k14jXAsjU+PDrlP8mEiZmEQWCsDvljVNrZgKoipSFTzYlN0mJzyt6lSYqFRrQxjwycETIziRSuTaPCmvuI9OA7EeNQy0irkpspSDhrZjksrnREB+pVi8JhGZEEei0emoDFma7P4PCKxZUh58blp5CWdOkdhSd1qCYWEOHBZ7OR5XCMhNC08cgh91ucQpr65JqkRdLJBtnqIyGRiKmduWS+Sj/K5ta0paRQMElDroSEl4S0yTMlUYiOtqu2xZZZrWlPcWXyTg1jcfNYIATK6i007qf/WuaNvJ++f2qekDC7xNEi7zYKS2qODkUZI/9zAEL6ODTHoUGCwrp7OIIR/+wRGA4FTI6NaBljLtGBWJ80ukzbmwG1Axler/ROY9IID+lwSHN3t9pecDiDDXdOhg9xSwpysjJVC6FaDmnEO1Ur4dFhDB2qlG2LkJwTQnp27T+ILatWIiANJH3T9EkD39bXh/ycbDjsDilDhp3GhdAzcp7DTBabTTU+HKaidolpDEkj6xcCMjQ2hiZJJ0kLh2hsNiuyJJ2wWpQskEwxMmp6qBWgZ1iSKbcQggEhUSQnnYMD6BkaEoKQq+khGeJ78HlMRyAUVC3J8toFuG79Ohypr8euAwcNOxkplQybl5Ulz7MIketVIpMreTTp96v2p0WI3YCQSSM+xmjYhHDP5/Nb8T1tQiyYj5MBP8YnJtDPvJL4+FvTI+/OPYecOG2f2pHmrm5UFRfpO/KaAeMZ/O90OOHh8JK8O9NHQpEu347fm0OyNslbuVHDMk7W6TAdNCb+xaQ+M90Oh12+r2faM14fDMbhv+TwETWBo/0ib2YJYZEzk/K9klOp+d1GpdwG5PuYuAzgB3+jspG8LmWRdfvdDCUwKdIIzyrY2KYVS8M9hnDvcYQ7dqstCRvlUPOzqj2x5SxUgsOhETbasbEuHQqKdO7XIRcOp/DDxgPSWxbhqY2jxGFxZsBRvlmHWGgrIlJeiUaKXRqJaBDh7sOIDNYj0nMSdmpURNAoOYr4NRx/2/JXCFnxalIZdXS4EaGOPYj0HROiMw5b3hKkuLNgK1wFiycPjtKt8hwrAmee1plB5wokC6dBLozNKKwqzLhR6HMoxZUlW4688xIhL7Ww5S4RUlSBlOgkQm17EO58VcmNESWFMYWJ3E+hkognHiT56pe8q9WhKdrzWFILJT93qS3NXADfm8Nc/DaSaFjsKWgfDmN4fHYMFAkOHY31C4FkuyXCISCNYrc0cCQgbwTJeSUFbKj4RZYtWIA0afiXV1chXRqtlXW1yM3MwqFT9TjV0IhXDh/VaanUshRlZ6OysADVJcXISheCI3FQg1Ahjeqo9O5PNDVpw5+a6lZtSHFuLpZUVSDTm6qEgQ3+2dY2JTEUaUZamA6DQMj/qfSxvNilwR0YHoE/EJRnFOuw0vKaanhdLh1W0nt5g2wkK+1Cbo6dOYumjg5tREloNI0SV6mkO13SsbC0FEU5OVgi78swHD4602akSREXwiH3kGhQ+0FSQEJCLRfzWom8BKuilqWxETmZPh0647uTdCyprIRPyOHQyLBUS8nnBBEhGaNtEK/tPXoM9c2tOmREzQ6H5UgoK4oKlIhNCoHkc9p7+5AmhCQzLR3VRUVYVF6GHF8GCoUQJqHlk3VLEjWVlzyfyJi+oUGcbWlTjRUJFDVLTkkHn3/g9Gmdwca0cViSJGpUSCK1V6fk3d5UsyPP5EyuYbmPZJCwyncb7unR49kA39wfCevGz2qxSnq6euCXdzXxzsEZcrQ/Y7m5FHidBvhxIdEHn31uqly8W5Ew4v04UmLSC0oKmhkGn0p7k3gkiDgb18ikakQcBauUtNDYlkTB6pWenfy2ZVQhPtmnxIUam5g0gtTMkGTQQNaWXiwxirAJcfikS7UnvMahIasnUxr2ASEHdXLOrdoTGuNyyIpDUfGoX8hCgaaHvUhqYZTUCCGhZkW1M9Kzos0ONT9WXzEcxeuULKmhMe1rsuvkObnwH/kR7PlCbmy0yRFSwXhks/pKQHsaa6q8D4mR5L3Fk21oVULjattDxPx9kvY+vUYiwrQxj+i1luTKWbFduJxTSJpPtS0kfBYhKtZ0OZb0MQ+tvlK1MbFlLYC9cLkOb9mEDFnc0rueZVDzFRECSUJGmyWr3YKHD4xh18kJ6b0mAs0w6JwrPScXuWXl2lBxCCZTGtE1HF6RBuX1wIZxVHr1C2kPQGNHISa0UZmU3ulkOITFQhCo1eCQQCgYgksavKVyjr34vsFBbfDYOy/Mz0VIiE1xQb4QA6+U5DgyhdQsrqpUDQjJgw69TEzqcypLStAjJIu2I3w2G16CRMGXlqbGw1kZ6cj0+abO5WZnqT0Gh3lK5Tlt3b0YGxtHSOrRQnkOZQG1NdTwkMC1dHTCK88lCaAthy89XRvsrIwMjWtc0sL4hmh7IiSG5yhOxuXdq4UcMEU0ck6Ve1q7pPMh+ZqTlaXPJpnKycrQNDPtqpWSvOBz8oTYuYTojEkjHhDyker1ICKFY/nChfos5t+k5OWSBTWSLy4dfkuRh6Wne1FWVKhx6UwyOcf3KZJvQlskasKqhajROJqGwdRA8TvUSFoVkngSJGoamL9MP4f5qAlx2G2qhaKNDMMoCZQwJF4OITAjo9IRk7qYId9sSU2VfGenhi0pKMCE5BPthUhGSYpeD7za3deHVw4eVmNjEiEaXB955qlZm4VEeOV70AYm1Z7Q3Mt7VK9eiUwpt5roqwnUrLHzwo0Fmo0Vj+U7sDOsJ7gXuaG9W4LheJ3nGJaEl+eE1LMd0WNC40mE4b1yT1drK3rbO5DqS4eDWs/p1wUdLa1oEXJcKOX91Ct7ULlkscosYbaJcIm49fmJNPL81fZdEkgpKS2LN+75gTHckHz5WYDmr1T62OSAMYRksQlZSZULcm682yAUnIkTGFQ7D52R5EjTO3kPr1MzQ58i1LpIZFKvODRl9PBTpDHXISMpcHqv/JYWU4eWqMWwKumRHqCQA87k0YLG9JBQyTE1GMKiEOk9Bc5U4nBMuP1VOCq2wF6wUomFkQ4hUa5MTUvg+E/gXHC73C7xSd6yN2fEz1kmIoCYXhIbachJcOSCkK5ReS9qe+R4olfvswjRoc3M5N5vwJa7UMMF6x+Bd/uXmWIJy+DyDImTz+CwEYfASGIinFrddxyO8m1y72K57yEhMmuFYLGnObulOjoxAP+xHyN45tFEnqfg93/Qhf9+nrNxEoFmGGwgimrrsOne9yEsjX1UyOoyERZf+thHEKcgeB2w9tC3CRtSfjerfFPaRXAYIzszQ2ccscFT/ywSjkSCjSZ772z0dNYTBZc0tLRToY0FG1gOGdGehQ2nlgfZ+qQnz1kzJArMKhIY9tRpc5NsGKk5MVIVl9tSlCjwXPKYhMUhz9dhIGnE/QE/8oR8cDiEaaKWhMMlR0/X44wIzls2XyO/rUhLzGwi2eBvNub8zTg4RJIhBIHP4DALSQ3fnSnSlMg9nCXEd83kUJr85r3MG4K/eS8JBtPIuPm+1BaR9OQlCFVBdg5GJidUs0WCQnLFOGmvZJX66hXix/dmfo/S9iXxTUii7NKQjAmxIjlk/NSKMM/yc3M0DUnwXs4ackkeBUNhtdlhvvA5LW0dONvWpiQpX9KS4UtTcslZOYNDIzrTi4SDmiHarXA2l1PyeWxsQrVlq5csekMCw3zgdPqfP/mU2u8wPr9846f//d/UeHa2kOfxYkdZFaozsw0Nk5z7yJf/GIs3rGemaZirAexknN5/UF0rDMs3S5e6sfiajRgUktx05CjShFyX1Nagq+Eselvb4ZbytHz7VhHFNhx+7nnVSjmkXG9+z11SxsPY89AjGme63Lfi2q2YkDJ9dNdLRl2ROlAmZaLjTAPOvLofm++9G97MTLQcP6HxZObmonbjOuz84U/QLOfe/0d/gH2PPIFbP/UJjEr53f/UM1oXfVKG6yRcT0sbOuobMClyJT07E3Xr1yJD0i8VLPF2VwHkXVQD8/k7KqSHX3euMZwFsBLoOL4QBQs1FjaO6yfOCVFJIamhALJxyqU0NLSXIbGQjQ2+hhdCwHAGqJJmg+QSQuEz4pQTxr2Mg5NM43oviU3yWoowWeNaMj1u416etzpEiAZVSyISBJa0As03i0Pik+uc3UONiMbDRoN2Lp4c/a0p0vjtRvxMK/d8buI9jPfj/YljR6puPGaMxrCaEB8RktQm2TKlpy9CLXmvEQ/jlfC0a5KwsfEeCVcJK8PyfZhXfF8JO7vgcFmnTpfnjC9JHDqGwnho/xjqu2bPIJANKNNSvnwFf2mNoMaDWglqR94IJB+8n+DdJCje1FQlBVq75BqPOXWYwyw8x+9FbQwbWQohnmPjnfRHwz3Pn4sX2kCm0q5FrpG0stHOEaKg4RJQciEERPeJuKYfO512IUhGujjjKY0NeuJ+45lGOClZalNSXlKsBIVIpskom8Zv2u4wnnPnUrTR17KpZxLvKmH4/ryHv5kfyXuSe55LXieS9xBqiyLQvJ62Z10gEaLGg2lPppF5xandJBjJeDnUo3HLxniZl+dSaYDXSSJ1L/cRGifTJcckJ4XU6AgRY/4TDMs0ME3T34vPS5Ix2j6RmPLZrwUtAxL+5UOH0Sg9cpImPrv77Bl01dcb5XSWwGHDAk8ainUmUhwBIeg1a1ejoLxM03i1ICgdjT2PPIaQEPus4iIMdHZhpLcPA11dQmCOoXLlciUcQ0JuMkvkenunkP4wOpoaMdTVjZyKciE2rShauAD7n3hS8mkSWWUlem18eFi/4Uv3P6B519fWjpG+PnjS05R0kMx0StwRCZNZWIjDTz+LCnneYFcPJoXELtu6GY/88zew8e478NR3vgdvVhY8Pp88rw0T42MSX4cQmDMolmd3nW3U8lNUVUUBl3i7qwNa2sIdrxo9+LkAVuoL6/X0ij51fKlzxAU382cyzqlvNy2MXpv2+0JccN0uZMBRuhH2/OVwlm7SIakpTA8rldyWUc4D47eC187FdQ7Tz007nhZfSjwKV/UNcMhzuTklDUJp9NqloLcK+XEULIctV0gWSZiEt3rzlezNNmi4Tc0Yfd0wsVzEsaknhC4hMbONcDAgvSPDTogCmX5aaEsxZcvxFpFsxJLg74vOcXsL8U+Pg400jVfZw39rOPe8S6ZJfvP9OYyzoLz8DRvN14rjPEgcRjjj56XuIXhm+tnp4eQosb8Yl4pPz3Gf2Ijz4tPr59/zemB4asoqS0t1eE7jmXb7VLz61wDPMS9JvlTblAjzeuCQJZ0ZUgvE2DhcONjRMavkhQhGohgNBRCKUv6w02VDT3MLJselY3eVgDnMjXlesXwZ1tx4PQqkE9N87Lh+Sx7XrFqBPiEMHSdPY0hI5pAQm8aDh/X+UflubSdOwi2ExC4EetePf47xwSH0ST4NtLWhfo+0uSLz0nOyseKGHSiurdFFMVOlE0LSkVVUhLScHNW49Uv4zrNN0m+NIb+qAnlCFH1yjeFjEsfJ3Xux8a7bseq67ShaUI2Gg4dgk45TYXUl1t16MzLy85R4vZkyN6/AOsU9fa4YLuxnt2JcScQ5I4hDNpcUVHLuLbw6tSJWzuiZ0va8Ni5fkTESSLsZanXiKdLzlvfhfIzXgmpkqMHR906+4OvdMYOIhtReKE4bIwE7bk19IZ2FNNugen6ws1OFF0kLhyjUtuIqEgBvWNxJNGRHx2Vuu101SZcD1JLQIJpDOZcbNinvSe3SlQZJo91hv3IaB8l/+gzisCCHpbTo8Vx7+6zLaWoWR0NBjAuJYSGhdqvj9BlMSFqvqkZSXoVaRNqikOCSqBE21gchJfrtY3EU1C5A7cb1WHnT9brPLijEqltuQu3aNUI4hdQcPorQ5CQWbd6E2vVrseyG61C7aYPWBeadUYaM+kbjdH7fyfExtEuecripRuLxCrGh/OG15Pc3dnFEI2E4pPMS57T9RJqZRoeL6eYnkfuUbF590NoX80tPmLYgcxH8SokPNgX9PX1L4KJwyV2K+lIJde7H1FTrRBz8R6+6kYluOZWIT3eJm4nk4dRzBayoyXDJ628W06I5H5c4eV78cpAQEPR3M/nqt6Z+K6anWcHfF56bG+C0+chImyTPqFjhSBzNfWH0j82+VT0JzEB7K2w2QyvJtXt6OFU0EJQsnp38NASXsZ8O4/y5c6+XPgoyOmyjN93kGkUs/xrxBWA8NCD9zwcewv1PP4PegcHElTcJjfbieOnC/+GdL6jh64XXWZLp74aeapNk8VJxXHiOvzjVmg7r6AsmeVXf7QJMv/fC40s9a7ZAItYkJJpG0MmGa2J0FIGJcSY2EWr2MOifxIiQGDq2Y/p6m1swId9tLuXhOwVJC+1P9v/qKex94kmc3bcfFcuX6nAMDfxpL5dfWa4LWva3d+LU7j2wCqntk+/Wevyk9so4rMSSvPGeu3D8pVcwPjyi2pc02oVpPIl6KPlGmyub3M+4+ppb0d/aplPUOxsaJG9HdJiJMqn9xCkM9xuzdEmgypcsxtPf+yGOvvwKTry4GwvXrde4jBl0Uq4lnMTOp+izrgqwnEleqQ3MZ7c7tVdvz18mmT03XlJTYaEdR9DQIFDbIIlOsRqzkiB7w45DigcZbAqvywe1OrTA6G9+YGohaL9idxuGyo5UOScNUzQoXQfDFibUvlsNhe2cis3nUHjqs+T5LAQMn9BiqCaHvUf+1llFMXmUpImPpFZE/tGGhWE1nF6ZBrmmcfCQQzn8EAlhnQzPZRXkh15XA19O+ZZ/Gq+mT64y7ZxllJqj9xlPkXuYZ0yz5gf3tCNIpGeuQNIUHetCqOFxQwMj7988FMYD+8dwchaWELgQLGecHlq5cqUKAm5u6SlVFhfr0MFsgK7p+T1pyErnbMwz/qOhcFSEGG0qWGqYVnqJ5dfWqd8qyAztBMO88Op+2OVeGtbSKy1tGBiP3Wo5z6iURsZHTp7WWTxZaelo7OhAbUX5VCliiWXDldRA8Dhp40HbDY132rFDni3J1BlZe44e01k4LhFAjIdpTtr8vLj/oAr24vx8TT8NmJl2XlNhP/VM43n8VgxHmxefJ1V909DollYqhm2QYQvDd+T/ZBr5Iha5h8/n/RyuodEx85aGqcxvNs7ncmRmwTS9IA3mmZY2zR95CfQ2NaKr/rSWgdkGZ1mVpPlQ6DU88vonJ1C2aBHyykrU9udqQDgcQuORYyiuqWbBQVndQtSuXQuvz4csug6QOpRVUAiH24WxoSH1Rly+sBb5pSUISH4MCRmvWrkMC9euRunChVpWGa58cR3KF9XBnepBRl4esiUualCouSmUZzk8bvjyctVAmDY1GVIXFqxZhVRfBorookDKd25ZKXKKi1BaW4tieSa1X5xiTWNdzkxKTU9HpsSdJvLK6fZI2GKkZ2VRuCXebn6DbXSKlDOdhXToT1JhyaiE785/la/mV8Ezm+CHJvHwH/wOoqOdaivhrL0NjorrMPr0/4SVQyjSg3cufp8QryxM7v4H9Z3CmTf2wpXqzTbY8Bgi/WdEOkbgXHinaizoCI6zh4InfqbPoWv/tG1/hNHn/lgFvXfrHyPSd0INS2noas2shrPqBnX7z/PU3lh8perhVn3BtLwg58ZhyxTiQy+4Li8c5duBSBBju/4avtv+SaeEJ0FVcLTvJCYPf09nFpHw0BhXXlanUzsqtsK//9uwFW9Qo1v//m+B/mhigVF41n5G2n3Jk33fQiwchGfVryF4+ldI3fy7CAgR4NIDKc402PKXwll5PUKNTyHcJY2BvJez+iY4Sjfo8+YEhFAFO/ZhYuf/4Q8ReCl4/vQEvnJ/Lw40vv0Vii8nUjMzsf7ue0SQ5GulpxO6O67dhh0iIGhYN5Ngo/uSNOxs+NkYMy2fuOt2fOWb39ZZSBukV8jzT728W6c2l4rAu2XLNepldt+x41rZywsLsbiqAg88u1Mb5Y/ddSeOnjmDU00t0nBHUF1ainuv34EgXQQIuHryQd4vG+8tKsjHumVL5V7j3UmcnnrlFZ1xtFIEO5cqsMlz/CJE6W2YJIDedG+5ZhM2Ll+G/3zoYfT0DxjEwZKCT7/vvTjd3CyE6gAcDpumuVwE8mO7XtTZWe+57lp1esdlASaETN26dQvqqis1L0gu/uVHP8GONatRKaTqTGMzDpw8pR53aWhNuxR6PeZsr3zJn/VLl+oSCbXSuEbl+dTU3LV9q/qocch7jPj9uiQAbQw4m+jDt9ysiziOyv3vuWGH1NuZ/d4q/+SZ//i9H6g3YhICqxCrg489iuajh2d1CnUSbCG2lFRgY1GpDgeSVC2TPL3t07+us11mtwW5PBgXUvD4f3wXq6ReFEk5I8mghkQ9LEtBpk8eEmraonCBTbtc55AQzwWlTEXkPGch6XRoQcgfUPs6p5RRq106p9IeMN/4bdk26BI0Eqd6NZY4SLRpSGxLDDNxGIjPD3KGopAYaorttKcS0EA4JnXXJR0OhlXSy7pmk46DlBeW4KuFWCbRIfV3qkWLjQrTH+vRjJt9pChhYMPtXvkJeDZ9CZHeMwic/BnsdPO/7nNy/tfhP/QdIQghncLs2fBFIRu3IjY5jnB/g9wbhGvJ++Fc+mFj2rWQIE5h5vpFlrQSieOzcC28W4W7o2yHNPDbhUS4EWx6Gqnb/g/cyz8hJGlC1ymifZAtXxjwpv8BzoiKdB+R9JxWh3XeLX8k1wNKOILNz0vSbRLHLjgKV8v56doETt8eQqj1FbhX/BrcyyRd9N0SGk9sEyxtks5BJVPB+ieE3CxH6sbfhXvJfboOFMlIeLAJ3mv/CBZvEaKTfeqhl0bYqdv/D1yLP4i4X363vCyEbUCncDOfLF5phNWL8NxAVN43Otys30MlnWwn2wM42zX72pckwiI4+ltbVU1M0Bahs7fX8AUzgwSGT6IzvWf27MGHbr4Rv3Xve9TzrV8IBtdC+sAN16EwKxsvHziEj99+Kz4gwpZaBC7+x+UL7ty2FR+RBpnO4pjRXOdo26qV8g1C6vjuY7fchN/+wHvxypHDCHAJhUT9J0mgqrxNepF0trdyQY26y08aMnM3PuFXosMOD4fZAgG/+moRfoIP3XQDPvO+e/GDRx5Hl+RbW2cXvvDB9+OeHduUWISkZ8nZXR+86TrcLWnkbB9O5yYJ4bMYPk16jh++8QZ89NZb8JwQiog/qMWFU5lXSo/2xUNHYBWhf+DUKVQL+eEU9r6+PjS2tKK2tBiff+89Os26s6dHxIR0KsYndNkGTn9WgnbyNApyczTumzduwGclfL5POjny7utWLMf2dWtmpcPKPG5sb8eIlDk2RkwEv1d/e6s0RrOvfSGYLT1cPkG+JdPLhrdZCPak5PHcaEPeObg457rbb9FhIrc3VckDwdmDSl4I+Tbqm0lINwkO6wLfnrMKvb4MJTBaiGRzuJxITfepfQp1e/y2xjE7KYY3Zx4nZ8zxGR4hJPQtxGskLYzf5TH8MTFuhudGbU5qmnS65TzDcM90atxy79VGXqh9OfjEk+cIjNA3YzbSXOily4eNDjbCkl4Ci9MLm+w91/w2Qh1H4ajYZkyD9hSojxdWFq5jpMNDzjT5KR8rQ+5zp2Ji9z8IyflPIQdjSg5Y65yV1+oCh2NPfAnBxqclIzzQJQzsTsQnB9Sx2sQLX8HEK3+LyNAZJRQpdjrIy9Xp2HQaFB1rEzorrDg1R9PnWfNbul6SSHxplMMINT0FZ83N8jwOMSUkoJQkEhouXmjLWaSzgSxplXKO+S0Xjf9T4MKQwfoHMPbcn8B/9DuIjbTLu0mhTK8z/MLwO9FHzkQvwp0HMPH8n2Fy7z9Ivp2SvPFJ3hXKu/8XJvf8k5IZY7mIuQCpupx91HtI8t6o8IPjUZztCWN0FpcQuBDsVfW3tbJ4SZLp0ySqGgSuRmycnDnQbsQpPbYcISQuEVRf+uiHdZiEM48Kc1kWoBqI/3r4MXz7gYdwuKFB1cn0PfKjXz2F7z32OFq6OqVacdjFqosjcoXj1s5u/MvP78dXv/8jDA2P6mrT7P2zxLYL6Thw8iQ+fc9d6B0cxI9FWHD4icMq5yAh5WdSaPMve5Ll+fkqUOk0bjIU0GdVl5XCm56mpIrLBXBIia78v/vIY/jBE79SokSjRqtViIy8K/N6z7Hj+Ob9D+A7jz6mvlPiKUZd4pDU2iWLdO0irird1N6BpXULJTVxJSn1Tc14VtL61R/+GM/tO4Bx6bHmyjPpb0YXy5Rj2paMT07okOD7hcR9/9HH8Udf/yYmhOjYJQ2cLURNkGpDZhTSC5d8aBDyzAUplTDKNtjVpT14zfM5gl7/uM5G4vdnNg339aNPvjWNSq8GcFizlO4ThETwHV8TiW90HvRc4ng6XieaS+L1nnshXivo3CkylwUqoyRfju16ySAwWgBlrw7FbKmzUGkvgDw/xZ2hw0RCH9Ud/+Tub8IqDTNd6KuvE0Rkk+STmOiXkzQz2fIuMX+/ai98d/47XAtu03WUYhN0vx1HuO8UPOt/G757vg97zgIEGx7V+zmrR731Zi1E+i3fQPqNX4N76X1ChirkOoMwj+SfPEOd2kklVRsbqwv+w99FdKQZzqprETz9cyE3bkPrIWmLT5uerv5d5DeHhWjbEg8JOdIOfky9hzLfuTaQBFDS5F7+60i/6R/h3f5XcC6+R9Mg1coop5oQi/qw4aKP6bd+A2k3/B1cSz6kpIwLN6bf9g24V30C0eEGRLhWFO+bZTAP6UiQK4VLBmkBPNMVxIn2wJxIXxLUdk2OjqqTKOY1e+UdIqAbaUin32HmwJ4gHdtRtcEZQd/8yU/hDxmNBEslLTmqSorxPz/2YfzPj38UH7jherVL6BNCwqEmam3K84Xwy3skjfky0ryoKSvGH37s1/Dl3/wNvPf665Cdlalli3YnwyNjSkCWCzHYsW4N2vt61dssNVAspwynjas8iLVxcHhYHd9xocNx6ZVTg8O1gDj84vV41AiYwzVcyoArRLd3dePk2Ub89oc+oItEluVLB0RLgLHR7wuHiP7gYx/BH3zkPrxnx3ZwzSctI/Jc9ly5sOOv9r6KhZXG0BIvaqMjBOreHdfKe30Kn//Ae1FXVYGFFRVKkqi9WSvv9NLho8jLyJKXMNz8/+VnfxN/+7u/gxcPHFRiw7Wgkr3ZmQSrNbVYJH30bsyn03Czu+GMapHmEkbkOw9wqETylOBQ0pk9r8I/IfJthvPtikDegWUgqXV8q9B2lOUyefw60PyS75xCLY89YYf5DsFhXJL2mFFrrhowL1tPnVaPxWrE+5lt0juXl+VQhrPmRm1kZ7riXghLWjECp+5HpOsYAsd+BnvJarhq78LYU3+ks6aCJ3+pjTob8HDXPjirb0ZkuBWx0W65Nx+hhl8h1LpTGsoT4GrNKVLJUlxp8vYRIRzfR3SoHsHGnXAtv0+ERAz+Az+Co2q7EqTg6YcQbt8j8TXAXrweseE2JRRWiTfScwxWH12jhxA6+5wO9dCzrr1wNWz5yzH2zJ/As+rjsGYvxOD37tJVtNXglvmZImQrPInJfd8SUlUvaTsMu4STooagxBVq3Y2INOx2rq5Nt/+HvouwPC9w+Hvy/uuFDzkRaTsC54Jtqn0KN78E58JbdP2oYP1jCLW9gvhkN2wFy+X340LOnpT7j8DqLYCjYIU0wrOvhYmHJhFq34tw68uSbzbYHBY8dWICP35pGKHI3Kpo1FikZmQgs6hY68eY9IipPVhaWzNjIoG10Otyo7WzC0/t3oOXDx5UgbR15Qo8/tIruGXrFl0Ykt5+73/6WRytb0BzTw9WSSNd39KC3UeP4VRLG46caUBJTraUQyv2HD+uGowDJ+txpKEBz726H12DA0JUDPseGpCmCKO+/6lncOJsE063tCIshIkNfZ2QBXVmJxlA2xSuPL3rwAE0SYNbmJsjeWbBS4cOo1mEy8+efAY3btyAa9etxv3PPIcTDWfxolyjAFq1qE4Ng2nnwvhpg8I1i+gyv76tDStqF0jYQzhyuh6PvbQbBXm5KC8u1viZJ3TxnybE7hs/+jl+V4gbiVFzRxcyfelIT0vDYy++hENy7ymJt0TIW2VZCZ7ZsxdlBfnYIHl3/1NP44aN69Q53yPPPY99J0/pUgxd/YO46ZoNeOL5XZJPJ7Bi4QIlFTMBPody4kxzC/YcOapLS/C3RRq0o88+jUkhfnMNXocDBalew7CcZFAI/qqbr0cq/eMkwsw7yIdQwiFbsh3k7xSeI5Ln2EuYFoZQQ/PEOWoU97z8EuxC6lOlbGuG8B7B9HsY34AQ+if+87v4+d99TQjgJEoWLNBh1elIpomYul9+J06dnw452Sb17cBzL+iU7zTpnEwFFJz3/HkGkjzOuuptbjWMeA//KbUuckWIi2vpfXAvlV4810aaVRj9sdh4l2pGLE46jBPRHRHGP9ys9iO6/k8kKFtAPcxSq8GGhoSBtiFcvDHFwUUM8+S89BKkIHFmUXS8G1wDicsHcCYPCxBnxTA+PtfQ8gjz9hbqM5XcyT+eoz0MjWFJWqL+fo2XQ0maWKsLIw9+Aum3fE2em6bGwvby7cbQk9xDSCxCwAY1zZH+s4gHRuFacrd62aXGhssA6OwnXQ5gXBet5JAR1zvSWShCMq2cSSXgWk+0ydGVbsfot8QuYQv0fbhyd2ysQ+JxyHsUyKuz0ZnlIRpJV0S+ycRLf4fo4Bn5mYKxQBRfe7wf//j4QCLQ3AEbSy4rsP4996hgYm+Gywp84NabdZYMy8RMgTOIqMVgnuVnZ2uvl4u6pXoNjSk1eDSa5fm87Cz1sMvVl4fHxpUYsDfG9+HQ04iQnTSPR7UVbV1S7iVurtsUTvSkGR97ndQEcEozSQEXeaTdDYdQGQ/B+zgMRM0LyQTH3HcKoZGMQnVlhQ5x5WZmaL5RXLb39Oo6RPRgSxJEB21czDFT0iePQ1iEO73o8rm0h2E6uvsGdGkGGgsbs+rOCV6mcWJyUmdKMe3aeAiYVxwiovv9LHk+DZsZFxdGVG+8snE2FO0UeJ7aG671xFWx6ZyOtXRkZAwH6+uxY8M6DTMT4HPY2D347HP4lZBTLvvAnjiHMg88+ogQGC56Orfgc7pwe1UdKjMyhVTGVWv58b/6CpZuXK95PZ+gX1k6AyTm/VIe0th5yRXSLxc4TZ9LCHiEmGXm5GhZHBoYmHLzT1sVzg4doJYvFNKZRbQ9+dFf/18sXrsW6265SWf29Qg5d6e6kVNQKG2stFUsz1L+jgjhpufd6nVr0HXmLKqWLEYJZz8lIeG4PlqXEHIa9XKmEw3pWf57mpp1CYEsSQdrB+sVZzvxWd2NTVi8fh3yJPxgf79EY0FGdqbWfb7XfEREXvJvPvhxTI6NGhqYL+xwyAeRRo82G8ExOGtuStCHc8JitqD2J5xOnJyyLI08Fz2kHQxtQDjuzoabxY+FwZhaLYJMCAAXdqSNinHe6LnxGodYOHuJ3mm1UZeNpECvy7HFlS4ExCAJzAclLNx4TBIkxyzAnD5tEYIkP5SAjL/yLzoLijOLmM64nOP6Q0ZeJiBhdXFHIUC0a+GUUXtujRIMvqcRP8PJu/FddRkEak7kt0RjoW8SClQJc+69ZXNImu0e45jvyHicGcKp0iQMc2n2wTyLDjYgcOynkj66ZE/BoRY//vuFYXQOzf7MigvBBoVW/JmFRYZ1v3wY+i/hOjwVJUXTv+oVBwkIlxpIrsdD0JEa06hCUP7TZT7d4vM3w9Nwj+79jZWhDaM+BqRbe4L3cpkDDvFMn0Kt8Ql4f3IZBA4d8X7VgMh1bjplWxopkiJdUE7OtUlPkvZCdSJ8uT6Rxsv4ZONSBQzPb8/0kQDx2RT03Ox2Y8iGwpXgs0iCSGoUjGcaGDcbyWTaNW2y8RfP816mne/JMDxOppvHBK8xfJo0TLqGkxxTuzM8OoYF5Vzs0XivmQDTxrWzdu0/gJZO2iwJWRQievbVPRjoaJe+kvHd5xI4ay1XvmGuR+S0yEWuAxQU4rho00ZdZ2tegd99eAT//Buf03Kx75HHVOvlyszEz//q71S7dHr3HiUIbfUNeOGHP9F1kJoOH0VGUQFe/PkDOPLMs2g9ehx7H3gEBTWV2CP74b5eLN6+DV//zc8jKITjxAsvYVDOVa1YxkKsj+bf5uOnsO+xJ1BYU4XatavV3oxlgmkJS9r+63/9qXr+Pfbc8+ilxrK4GN/83BdV1h98/EkM9/fBV1iIh/7p6zj63E60STo4O6mwugqvPvYrHJAw9a/sRWdDI/LKynTtpnkFyQeSveO79+LAk09L3kh507WQbnYjGhZByMocC8OWVau99pmptq8NPj8pO/ghuSWPp3BeIs/9YJDzwhFT95+7Nj1eQn9zr//0jP41MD2csRnHElYIlaNgKezFayWUZLQQEK4ETQ3NRfHztxQ6i68E9uxy+X2xkDTCGfvEGf1vHJ4flhfOD2vA+J143hwAZ1oF6h9BdOC0VjpOaX32+AR+8sqI9KCNijzXwMbOKY14brmxyrPfH1D7kaoSY+XhmcL0b/hax0Ty90XfXH7zXxJT4fTvG+Oi+ASXOleSn6fDMrQhufD69F+Xund6iKn0XTKcgenXLhXuta5f6ph/9Vg2Eoc0r0F++HumwAbrSH099hw5plookrFwwI/6PbsxMTz3tC9JkNgXpfmQKqSRGiO61F967VbVYEzP6zkPqd80Ai+oqsCSzZt0lk/76XqULlmEs/sPYfP770XV6pXqB2aou1tEuBXXvPc9IhvK4BfS1iLfbd0dt2HNbTfj2MsvY/E1mzA0NoTNd92FdCHHex59Ats//EEs3nKNdIi8yC4oUNJEwtwuROj03lfhSUtD6eJFRlst7QKHf5iHJ4R40N3Brb/561h/5x26vMAhITKb7r4L133gvShdtgRP/ed3UbF0CZqPHcWnvvq3un4T11XiGkvRcETTtuK6bTizbz8yiwqRlW+4iJgvYNmKC0F++B+/juFeapPUChZ49fSEHAiBkQpDB2/Bxqek4hrTR68OqHhKbFcGmpnU9lBzIo/RTc/Ln0sUEp6mwaMOF70LwCyIBcYQat4pL27YWLUNhbGnyY/J0CwPbb0O6AKc689wVhJBh2lnpSdGm5TphOBqAhuk8+nOmwe1Ktxer+EiEbxwnzy+knjNZ8jpi6/N/LflUFtDS5vOdGP+UR53N55FYHxurzHUOjaC0SD9N1H7m6JDigefelaNwecVJL8nJO9f/Okv8PwPf6LDLzSRp9O65Tu24eWf/xJP/Ou/o6upGTXr1qo/l8e+8W3sfehRXY2aXnNfffhRPP0f39XZftSYabmS/zaPG9d/7CPY8+DDeOBr/4S2kyemSlh/ewfaTp3GpnvvwpLtW7D3gYex/8mnMDE2agSQsjA2OKDrJnEcgPacddu2YmygD5kFeYZmTiIjoaKht/qGkedyiMnmdCq56jhVj70PPoLnf/ATaeJDcEna5x3kHQc6OtF68txipkpg/vnxfljtieyMhhHtP6mO2lgc5zvYg45O9iMy3IQobU/k9zuGZF4sOIl45ELfKufyi8sTMP+i471qtzITAnouIx4LIdy5Ww2wldXJ/8aeEPbWn3P0N1cxNtCP7rMN2qBQW9bZ14uz7e0IhuaOb53LAZZQ1pfO7h5jyQERfJcbnPbMYSZO8+6SXhTrUt/AILrYS1SBnwh4mUH7gxHpjdKu5ELQBuZMS+usSjsSFhLjJilXSv5ko2MyljtdPmAOg/ZHTSNDmJC8ZdLpD+WQEBg6gptPci/FkoLTL+9G3daN2PKRD6oGI0SPutJokpzc9JnfwJJtW9Bztgl9QmLyKytw1+/9tnripdYut7QEK265Edfc934U1y2ELz8fTqcLfW1tmBgaQZeQlBt/61O49qP3oe34adW+JEHSHxFikVdaCl9BAWLhCBwOY+iUeUhvuzRa7WxuQcPhI0Kk/g01q1bj9J5X0SMdrM7TZ9R7rzM9DWF/AB0NDeiR8jQ5OIRseY/yFUux/JYbsPru21G1fo26Obhile1KQWTv7vsf0GQzvwkdQqpvGcA9G3xIdxnj2zRUhcUGe/E61ShoazMPoQJZyEvw9MM6q4hefa0Z5bDYp7NPed9YRN7bJu8tvWxqB+Ix45zkgeaW/GbmJSsjjYVDbQc0j6yeLDkj4RPGvZyOzYI5sefrcFbeIM99WX5HYfHmGXFxaQBqt4ShM14dgU88Y2ooSX5zKI/P1HNXAaKBYfj3/5u0YAEtfMOTUTy4bxSPHhxLhJi7oMdLqpPzyiuMzxMTAivfuLyoEJk+XyLUlQVrII1M2diq/Qj30nAkKzLTQ1B7QpKu1+SY9ZnXeD/v0+PEeZZnbtpgCnjfoAi87z70iJCKAV3AclltzZSNCTFVB7SOSP9Uns+eNmNIxstnhELhxDCSBtfz9GA6NDSkPmXo+ffw6dPIy8jA0y+/ogbKnGVEWx2mO/k+U2nTxxrpZY9Tp2nLc9W2RY4VfK42osYwkN7J8HL+bGureuyll156601qB/gsLq3w5X/5Jm7aull/R6TxiEqdpS3OuTe/kuCCfBHsPXIM+7mGjoC96YH2NrQePTrnNTCEPxJGeXom0hLG11wfKEMa1LLFC+U7JArBXId8bKeUx2PPPo/R3l4tB0x5ycKFaD95Cq3HjiMsRLhmzSpYbXaceXUfOk7XIyM3B8uE2FitdjQdOoTmQ4eRnpGNiiWLtE4df/4FrL75Rpx48RVwXaPBtg6JYzUKqyq1zDqlTE5OTODYrhfR09ikq03TmR2d53GpAaaBexrrthw/Iek4ga3vfx9q160VovgM+rs60d/Sji3vvxfZQpq4KviJXS/BPzIq5KVYlyGISH1s2Ldf11EiSSqSZyftwOYDWA+HpJPz1He/r4biFAs2uiXhLKTOjlb87u25+LO7c0FHjzFpvK2ZlUi79iuweLIlA2emGl9uMNWRgdMIdx3VGUeR/lNw1d6uTuSMq/JXCEuw4Qm5XoKYfwR0asdLJCnWtEKdph0d64Qte4EuQKhec8MTCJx+HPai1bAXLNdZS3HpLZGc0IiX6yqNPvYFpN/1H5KAoM6EooFtuFeEk/p4camfFnBG1eBZqO8dObZlSgPp8iE61KQzjCh87XlLYHHQXfQ8EQKXAJ2bhZqew8TLX5V3dWpP52CLH7//vS4caqFzrrmP7OISLL3uemQVFatQIvG875absW39WjVAvZJgg9AgvS9qEWjI2z86gm2rV2HP0eNYUVerxKSvf0AbZg5xtUqPkev6pIkA5GypXiEN1KbQIJUzcxZVVSE93Yv6phZkZfh0llGSeDRKD48ziXasXY0XDh7Gp0UocoyeYOPeI0SDzuA45ExvtrQDYuNLI9+FIhRJslq7ulT4c62hRdVVKiiPn2kQ4hFT3yavSKP8uQ9+QA1VnQ47XjxwSB3d0SmfT3qQ2dKInBZhnZOZgUz5zaI/MRFQEsKppXwXOqMbld5xWATWYnkGJVqjXOfwhVMa0aL8PF1rqb27V2ckdfX1KoFau3yZeg1mHJw1UpSTg2LZPvPnf4V//tM/0llZ9FNDcuaTfKksKT6PwF0JsGbzm/3sV0/pYpSGsbQVR597Bk0HD+islvmAG8prsCKvUMklSWZ6dhZ++9vfQKqQ/yQRnfOgJiQckroQ1yUAqM2wO+nqX8q7X2S03a4z6FgkWNapUWQ4NbgV0kzX/6yv9N3ECRokojxHWxbGwSnS/L4uuSeeINEsu7TvSJJqkhfeKzecl2/0PstlBOgRmC4eaAAcl2f6hfywzKsckvtijEvKDJ/NZ3HyB8s6XSEwPpvUIZ7Tl5gniIsseeb7P8Kun/0CYZE7zBVKJdXAjEiFbR8I4z3rffA6jB4dNQBcTJBO0uZJ0bs05CNzzaJwxyvqLZdTqnUWULJgWJ0Yfeg3VEMSnxyF/9h/6xTo2GinEJ6jsLjyhOA8LWRlhRCLRiEhR5XERAcadIkCToeO9p3SghM89YAQnWohOkMInf0VHKWbEWp9VQrjpGqCQo3PChlJR5jrKvkHEQsMIXD8Z/KMLPXhIrmupCbU+LQWXq6bRCJJ2xoW8vkIVmbm1+Sr/wwIKWMlp83Lr45O4IcvDvON5wUo1GjMmyVERht7+d5Me0Vxkc6uuZIYGBrGL56SMijCk15xf/jIY7hnx3b8w/d/iM0rl8MfDGLPwSMIBYLoHhjAgVP1krY46oX0OEWo0WHcPunZkyy8dPCQEAQfCqTR/vf7f4kqST9n37B8kaCEQhE8uHMnRkXQblqxHB4hRer3RcDrh06cxPOv7tfiyDibOVtGBOVO6Y3SsdzLQnq45AKF8MuHjuoimCy5P3r8V+rdlh51R6SHWJKfi8deeBHlhQU40diojuvoh4Wu8rOEODwq17KEvORkZmo+d3R24fvy3pxVdezMGRyqP6Ozn7hWEH3A0FvxS4eO6Cys00LCuOI2CdOL8r40iO3o7dNFIbl8wW5qNeRcrxAx+rlZUVuDx158GXdt34Zv/vTnKjMCoaCQiu6LNFBXAtSW7T92Eq8cPqLvyjoy2t8n5OUgJoR8zhcEomFU+DLU2SILyKiQ3bzyUpQsrJ03jSU7J9RuciOJYIeAaWcZpkaO5/VdZOMxz2mLyXOJe1UjmLiH8elvKVOcJEMCbvw2OgVJ8BpJEDclLjzH42kw4jI0izzWMIyTaWBYpoHnZOOQFM8pUeE52SffK3lu3kDeY6ivH09/9wdSpoY0X6hh3dfVbuQ90TcawQ9eHBJ2J68vAThjJNy5X/2jGJ9inoEfU3r+JAvUIinZiEaEKLysnn2Nz8ydfFAhMe5lH4F76T1y7IJn1cfgrL5WPQGzIRAaK+GEyfLjW+xCUhbCmr1EyEWNkI8MWNKLhBhlyj5PiYqjaJ2Ec8BRfI3mJQsvF1Z0LbwDrkV3wlGyEREhQ0wjVwB3L/+whF1npEmEsZIshwvWrAohW8L2jZTOU1iEPO4W8tesecFcJ1l+ZN8Is2XeILk20lhfn1YeCoj6llY1umRP7IogIZC4EGFNaTFu3rJJF1x0SgPBGQoquFgm5R/TMzw+hsb2DhTl5qBMiAEFZZ80gNSsrKxbgJs2bcSNsrX19KCprV2FIbUejEufJRun8G5ctkwbbb/0OPcePWYIVQH/UihWl5Xg9q1bUFtRpg7p7ty+FcV51N5GdPmBmzZuwI4N63H7ls1KII6cPo31SxbjnuuulWvrNS4aGDqFgHCxxUUVFVheUyOkKhsTAT+OCjkpyMpCrpAXrT8ML2ktzs/DHUIybt18jfp2ec91O7Bl5Qr5Bq3quXbbmtW4RfJoaXUVOnt60SnfKj8rEx+4+UZsXL4UGd5UHDt7Vt+DvnIWlJWirbtbh6IU8s5criFdCKlPyGqhpIdfgCT8SoFp6RHhzIU1SaoMGRBHV3292l7NJ3RPjKN1dMTQ2Ml3cwrZfOFHP1NfJfMF00nDhQTi7eByxJHE9JguZ7xzGVr3RMYdfPo5Xd2bdYOVMiAy90BPxzkCE4zEcf/eUXQKkWHeMIOiI+2qvdA75iE45EOtiV0IBR30hTv3ItJzRF4noio1BfdCUNRvi/xT/ynMFiESmllGZkggMnK5L8zKyEzkNQsiAycQG2vXISA61TNKGfMrcW8SHGIS8mMIQ6OC076FhGjqGTzHdZ2yqjX+6EC9EJ0mSUpCwM43yDvEIgH4j/9UXo32ECmYDMewp2kS++bIqtNvBSO9PehrbdHeD0FD1FePHEO/9OSvJEiQ6JiO+cnSo+VEigt7U1yhlhSGwyksW1y0kU63aLBKnytcuZplksaE9Ni7VIhClzSYu/btF/IhRFx6hLzOb8NFI/cJAeFCjNesWIan9uxVB2+MX5+bANXoFiFPPEdfNBwSVDB9smn65Go4EoZDwoXDUR1G4jXekwitewYnOChXVlSg9+w9ehy5Qjw4nJQEw1G7EqWPI/lHlXmyoeQQGjcOXfAZVNUzWiNu42m8h6CaPhAK63RZam0KhXipOl4QlbjqKit06ImarBNNzZL2K1v3GD+Hy+qbW1STxbwck2fTeV1IvuN8Aknvkb5u+KUM8vtTvvW2tWHfo0+QgSZCmTDx5kGlQX9nJ068+DICE/RMTbkHnOjvwVAwcI7AsLK3Sc/4J7uGJAArtGyJlY5pk8HGWkJp2PkCTlHmFu4+LGSszSAQQgbigRGpbQmnUCQqNKplBvCYREX2BtGQSw46zIsgWP+IaqR0fSYa/IYnJM5WRIclXqtbojDsXLjukqoWbG4lTEpSpPLaC5Yi1PQMgk0v6PIGtkwhKWyUCH2uAS7OyFXBrZ4iSYpTpGrISNt8A7NT8jvU+CRiwy3yLkZR6xyO4Oe7R4VBz793YoPS29ykfhVYsVQL09qqQzS0B7nskNrKpri2vAyt3d3qH+TZvft0aIRj36X5Bbq8wJ6jxzA4MooMafCrS0r0VqYtnUNeGT7V0hDMcW+qG9m+dDR2dun6QNTi6DUpY5z6Sa+2dPdPD7wuh1M1H3SuNgURC5QOTBeFCYumatLkB/cLysux+8hRTSvj4RDX4ppqHD7ToLYurx4/oWkjYUn2Ink7G7+yAiEw0qCTSGVnZigBSyL5PD6QtUWfrf+EnDkcukTA7mPHVePT0tWFUvmdn52paX92z6s40diEiUAAtRXl6mCP3oBpqMshLD6HecR6f1KIBDVcXPxxzJ/orFxBdPf3Y/+JkwjSPkF+kxx3NzYoWZ6P6BofRfPosJJIfiN6jd310/sxzDXFTJh4i2DHZP+Tz2CAbisS8mJC5MPB3i5DZtEGZnTUWGMjEo3r7JDtS1KR4TYYczw4pkanXBwxGcG8ANNqdQp5ECFIDYaQENrzcDjJmlYk72SsMKo9MyEw9pw64z7a/Qi50GuOVNiyaiSsEInQpC41YMuuVYNgXXjLmabXlYDE6QBQwtqcuufSBrzf6itRY2BrZoUEkR6VyEPOXHLQ4Z2uqp0FS2q+Ci9NW3qRkiPa1qS40uEoWinxGN6E5xO0UQoMYeLlv5MD+saxIBCJ4bGDY/i+kGQ5nJcgiaGzKZ+QB34TVjA2kosrK3WGy+UGy2c6lwuQY7pqT3W6cOj0adx1/Q5dImBkckKNd+lYr7y4SBtefzCMiJRJGsFyKIkeUXOyMpSccAiIXmbpzZfDPxzGSYJkhjYiE8EgnC4n6qSx5wKPtJGhvYm8sDb01Ixw9hWPqSlh+khKCvJyNB3jkkf8vNm+DKxZskjD6owhOcclDGory1GUn69efos49VOeRcNdaotOnW1CjhwvW1irxoYE85nP4nvy/Wis6PWk6pATz2dmpOuspmA4pIQqOzMTSxZUKwliuvxynrY0ZUVFqCot0dlRoYhh7LhQCBffh+Fqykp1PzI5qRojDpFx2Irk6krUPy5twCG6lw8f1u9CDcxIX6/avowKSZ6vGA8FsSArBw5qtuW9JsfGlOXWXbORKjBDNpsw8UaQctJWX4+Xf/kQhnv7tI5wpfi9XW04PdRv1EvOQmpva03cIQLGbcFvXp+FP7k7V1i09ACl4achqXvVp3WGDacYzy9IzyqxrpOSGUq45DtoRZJ3TE6ZFnDJAp3mLE2GLhfABRjZX6TGhuflHq1+Eo/2CqXXqmswqabFoSTFcE6XvF96v2x95D7V6sRCEpTDRoZGi+dUOGp8PC3xkXAxzRIumZZ5B8m38d3/gOCZx4x8FzQPhvGJb7TjWNv8mHn0WqBX3qXbhUAUFsq3MqYs33ntNty0dYu6+r8SYOUNhSPwCJH4zS//Bf71K3+imhiu+EwbFl7X8iMbe78kVjqNmb8TZYxhTjU148V9B7B+6WJ193/hVEqG45AVG1OuyxOVMjxVRgXJksi4aFvD89ySxzxPcsTNZXeopoVgreEUZ4eQkmR6GC/TTiNcnuM051ekMV+/bCmW1i64qNSfl44LjvX9Zc9ZSXxvQ6Ni1C/NC/ktN2h4/iWhYhgSFgmkYahtYn0N0hZFwnL464rVPHnm2dY2fPeBh3RIL5nehn17Ub/7FbW5mq/gt9hRXo21+cVT5Y++YT711b9G2QLp8ElemzDxRmA9fPw/voMDTz6js704MDQWDOEnp4+gn0PmEuY8DQxBLcyoP4aVFR4UZXHcWgRDUBi0NKQ0XrVYRUAbcmCegILOEEw8VlCQJYQZYVwzkBSKhHGcEMAah+z1l4DHievGNTkmYRGhn8RUXMkd7+H15HnBuTBGQ2DEJ8dCqKauzStIoyHkhatg+w/8u7wHmy5pFCJx/ODFYfxi70jyK8xbhPyTcNLQMy9PbUH4lWgzsaCsbGpK8uUG84yNHMuJL82LUiFPbBhIAC58Hn9r2ASmrss+KL1jX1oaasrL1I7kUuC9vMeg1NPuF/Ao+eu884lj3sFjEoMLv7PO6BAkw07f84j2OzSuLSsuOm/4KIlkeOKSx7I3SMj515L5Nh3Jd0wieUwSwbTTvuhKgquHc2jrSP0ZfRaHJAc7O9F0cD/GBwcToeYn+N2HAn4syMyCi5pqyVt6sh4fHFI3+iQ40/PehIkLQbOL46/swd7HnsDE8IjKOU4meKmjRZ0m0m0DcRGB4enxgPTspBd304o0PcFR53hgWGfyWLOqpgSYCRMXgoRXpDEmXvhzxCbpEt0wrDzdG8Kf/bQHI5Pzv/fFKdShST8yCgrhzcjgS+tU5knpNXO16ks1vpcTRSROb7MB4BBRQW7uFU/jWwUbNA5xcYhorqXtcoPlh55/H3jmOUNzJeSFGpfWY0fQdeaMavXmOwIROgOMoy47TxsbdvI4rdorBLW0bqFOUTZJjIlLQjq9w5xo8PNfou3kaS0nnLXYOT6GV7paMRE+Z294yW4G/XTsOjmBRw+MwmE1etD/f3vnAWbXVd37Nb330aiNuizJkpvccMc2xrjTQk0MNnmhBFI+SAIkJBgIH/nocSD4QYLLM2Ab2wh3q9mWLcnqvUsjTe+93Zm5M/P2b9275ct4ZLUpd2bWb3R0zz339LL3/6y19tr9rjLqPvaKNv/tV7eGYfwpCBXcY527fqetp0ItukKxGw+saNDm0+MFmriWH9irXboj2HiL3nngoGzevUfdJ4ia4UAtBG5bfJ4JankIj0cbE6FC46oRM/UCmVKdaOGYGehtuuLgQc36PF7YW18jpS1NoWN0lVK3O971T/9RasvKVbSd6T1sjF+4J2gpuP2VV6WIvEiu7qBU6Onr1diXZncPRd41J7STUtn8bl2zxi2EGiXFSE/1LukpWas5YgzjbTjB0lO3T7oOPsvt4u5GxG+/LN/VJs9tIafO+IG35PL9+6WhrMyNEx9FK5x++cPK1Zou34pm4224m4Jkg69t3KK5a3BVUZHT03T5/n3uc+wkrTsVunqDsrrkyFvJ1NwzQseFKx95VHrHv1Y1zoCY+Dg5snO37HztDelsCyU+JZ/V7toqKXFimMYJkZxQwPT09svmIx3y5IZm6iWFAN6uo6uckNnunkWqJsOA8J3Q2y0d2x+UvkCLuzuIMeiXdvfTvz9dK62B8Re419XeLsd27JDO5mYtnLGMtLppj7+8Uk+JvWEakSBwiyuqNPYFuGdwJ9UWH5PKQwfHhetoIOVtLbLJvTknqOWPYO9+ObJ1h2xfvkpiEydGT/zGqUF3Ck01dbLzlTVSVXTMPR80ThBp6OhQa1578O3WybfFwERCro7G9l6ZkZcg86bQSZeb2NPuKqgmzWMS6sjQCumJjt4X8SnSsfWX0lP6JsWUTk9NjJOv/rZSVu9pG7d3SWdri8QlJklmQYE27yU2hVT6qUlJmr+FSouKypjguPuAzMb/9ZvfaTcHGiTsBgJ3972xRu+j8QjPPbEL87JzJY1uJdyzgCupjlw95y6SDLIt2zNiOGgJuOGll2X9smdDYl5viRh5vfyoHGlq0N8H8o6h9k4sy+7SLvn9+mapb6G5ppvoVFGwapd0Fa2Uvs4mJui8xsSFZtI9Ja9L97HX3E2DSqY1SIys3Ncqj77RpPfReIU36KNbt2gXA4oriIkzeWrFKimtqQ1VVIbheOLllVJZV6cil/sk0N4mpXt3S2vd2M35cioEeoPy4tGDaoXxYqWupExWPfpb6eoKxQGZtXJiQ2LOQ9u2y5YXXtYm0zwfpD7YV1+t4qWbuMJBeEcLDHBflTcEJTU5Vt41PzUkqd3Kg7X7JT53rsRlzdQb0JiY4Ersa6+Vjo0/l762SndvhMx+nT198oEfFEtj+/gziw+E3pjbGupk8px5kpCcrM8HPXBv2bNX7rjmahn80TMmAlTMFMQbtu2Qp1eu0mSB+PUJ9K48fFAOrlurLZHGO5j/eauek52ndQpN9Jtr6zSH0vzLLyV/h9UjExRcR5XFJfLqbx+Xkn0HNTYMkV/b2S7rKkqkur01POfbOamAAVxJ9W29MqsgSc6Zkqh5iIiACdYfkPhJSyQ2JZ8y25hg+IKofcP9EqzZE74HYiQtLVY+/fNS2Xx0bCesOx06W1slPilRcqdM0wqKwrijMyDlrpC+6qKLtMKyAnriQUFc39Qs3/vfB7XzTJ4PWue11dfLtpdeGHP9HZ0pCLmajjaZmZklmUmIfNHcMIiY7IJJMmX2bNGKxZhwdLS3y8bnX5TNLy3X7NvESvFvXXmJHGioDQckDM4pCRioaQ5KlxMy581Iltx0MlQ6CdPVKr3urTth8nkSk5jBNo0JAuJF4hIksPP/SfexVyWmr8dV0PSQLPLwmgb5+XJ8lqF5JwoNFeWSM3WapOfk6LOAK6m4olKS3Emhk0B8uCZiJg5U2jHumv/L/T/XrKKa9dfdE11O7O5+dbU0VlSE55wYcP/XtLdpbhhcqyryW1ukpa5eps6fp/Ew9nRMLHrci932116Xl3/1oGb/pszEgr+tpkK2VVeo+/GdOGUBA0equiQ1JVaWzk6WpDi3FbfBvmaakXZJwqTF7nuSuynDMxvjG3ehiYMK7PuDSFezZk7k2m8pCciXfl0xLlsdnQwqrLqSYzJ90WKJT07WApqCem/RMe2naGpengX1TgDUyx4alZ88+lspKa+QhIQEnd7b3S1F27bKUTdMRDqCQWnqCsji/IKQwIul/6daaW9qkdlLFktySkp4TmO8QzclB7ftlOd//n/VGhdL3jD34BQ3N2nOlzrtTPWdOS0BQzDmwYouycuMk3OnJYdMouT+qNkjsUkZEpc773i/N8b4hEIY80tP5VYJ7PqN9LW5t8jYeEHPljcF5W8eLJejtaFO9SYiBKA1VVXKtPkLtJkoFRl9Yu3Yf1Cz9GalZ7xVuxnjEhxFfcFeeezZ52X9th0qXrRk7uuTyiOHZPerq8Zlk+lTAZdzW0+3no7CjMzQeXHUlJSqlWrGknMl0ZpXj3t4kSs9eFie/dkD0lBV7WQEXeeI1Hd0yPqKYjnWcmo5kU5LwEBnt9twfY/MnZQos92AuUdboVTvkLi0yRKbPZMJ/r40xhtOmAQbDknnzkclWH/IXWqaDvdLR0+/fOXRKll/uFN6+7j4MXoPYG04lWE80dnSIr3BHpk0a1YoHsZNIwbmUHGxLHLT0tPTQjMa4w6sCrRMW752vby4dp12lunv76aaGtn63DPSE+jS7xOVoBNvjV2dkpOUIrnJKZQUKmwaykMZeqfOmxsSfca4hA5eq8rK5IVf/I+U7j8Qintxz0ine/nbXF0uu+uqqWZOidMWMFDX2ivVLUGZPzVZpmYnaKAa9FRskdisGRLvhtCk8VUxTXQonHtbyqRzhxMvVVtdYRNSzXQ98bNV7XKoc6bMmHOOzHaV9OzZDLNllht/pyEvL08CgYDmyBhPNFVVSX5+geROn66tlHgS2tzbRambTqeP6WmpoRmNcQPXmDTob+7cLU+8+LK2rvBNptsaG2Tzs3/UrLtGqK+khkCnTEpNl8ykUOhBT1e31JSUSFJqihS48iPeRMy4A7tjXWWVLH/oUdm37k1J0Gsfo1mbd9RUyuaqchW4p0pM4YyZ/WWlJeGvp8cHL8uUf7xjkiyYEroBaTqKTzPtmn+WxOmX6zRjfHBcvOz6jfSUrnNTsJyExMvDrzfJoxv75ZP3fkk+9alPSWFhoQZjscyJ8G+lq1atkq997WuyZcsW/T7WSU5OlulOtMx0IuXaa66RnPMukNc2/+mxnTt3jvzFnbdJfm6uVm7G+CDYE5RNu3bL4y+9rC3QeAYI2sUit/Wl56WmqCg8pwGIu9mZ2fKe2edIXkpI0CP2s/Jy5Ya7PylLb7hekpKTKHz0N2Nsw1Wsr6mV5Q8+LNtWrD4uXrBO76mrlrUVxdLSdXrWyTOywHgOVXVpS5PF05IkMwW3EQmJ+qSncovmh4nLmKYFtBXRYxvKj97WcgnseUL7wgKudXewX5ZtbpWfvdQghytaZP369erHxvKSn0/T+rdcRAMHaG9vl+eee05+//vfS88Y7sQOczei7fzzz5frr79ePve5z8lXvvIVuf2OO2TxnNnqOqpsaDwu6hpchdbY0iqFUwq0B2ZjjOOuaTDYK5v37JWnV6yStvaO0H3urndXZ6fseWW1VBw8EJ7Z8FChtfZ0S4cbJrvnICU+Qc9bR1u71JWWSUpWpuRPn2aWmPFALD1M18uqR34jW5evCokX99fn9MLh5gbN99IUOP20G2clYKjY9lV0sW+ypDBJ0pMJX3OFdG+X9JRvltiMyeFEd0w3xiLHLS97n5SeY69geHHXO1a6nd5YuadNfvRCnRyuDnVvjvl848aNUltbK3PmzJFp05yAfQcqKirkmWeeka1bt2pCq7EChWxqaqrMmDFDLrzwQhUtn/zkJ+ULX/iCWqAQMikpKVJWVia7duyQY/v2ya4DByQzL18FPYnLahsapLG1VablT5JMi4kZsyDFu7q7Zeve/Spempw4pTkoluiujg45sPYNObZze2hm420QzNnSHZAu9/xPSnEixokVhF+7O4/Vx4olOSNN8gtNxIxp3PWsq6yWV37zmLz53IuSmByyvCBeCNZdV14sNR1n1kH0WQkYwAKzqyQg8fExcm5hsqQlOrHiKrj+YLf0Vm2X2NR8ic0s1AfaGDuo0ZY3y6bikOWleI2W1tx4PUGRV/Y58fJ8newp63pbwNXevXulpKREBQxxLsByA8HqgkDCWsOQnp4u3a4yICYm2iCHx6RJk+Tcc8+Vyy+/XG6++Wb5yEc+Ivfcc4/cfffdcsUVV+jvLa7g3bVrl6xcuVKeeOIJeeCBB+Tpp56UlpoaSc/JlbTsbDWda06MhkZpam2RKXl5TsSkc5LCWzPGAlytjs5O2bBztzz36hppbG5WKxspBejo89DG9XJky+bQzMYJ6XVlQKN75ulpeFJKuiTTpxgiprlFqo4clWT3bOQVTtcsxsYYwz0LVa4uWPHQ/5Oty1dKYlIovQRB28WtTZqsrqLtzPsBO6sYmEgykmPlszflyl/flCc5qbHa5JrKiebVyUs+Jknz3isxCWkYjcJLGNFMv7uAwcbDEtj9uPRUhHrPxdLW0yvaOeNPXqyTrUddofMOHR1dfPHF8uUvf1k++tGPamsMj4+N8aIGVxKC5+jRo7Jv3z4pLi6W8vJyHaqqqqS6ulpdU5HoQxBez9ky2LqSkpI0lmXy5MkqxIhpwaq0cOFCOeecc2Tq1Kk6DzS7iuvIkSMq3Hbv3i2bNm1SqxLTPWwja1KBLL7uepk8b55uj3NMKoIl8+fJLddeLXNnIPTNWjkW4M5tc/ftum07ZOWbG5x4adFrzItad0eHHHxznRRt3yK9qH3jlEhNSJDz86fIpVOma7ZerDO9wV7JKciXKz5wl1x2y82Smpaq594YAzjxUnLgoKx85Deyf/1GtaJpWev+Slua5fWyo1LaeubGExgyAQOImL+8IUf+9n35ku1FjPuLiUuR5IV3StLCOyQuJZfaMbyEEW1oNd7Xp83iA/ue1pZloabSsRLo6ZNX97XLfzrxsqmoU6/vySAe5utf/7p87GMfk8zMzONCAXFCJY8bhnmys7P15gYEDb+XlpbqJ66muro6dck0NjZKU1OTigPGsXhgyTnd/mR4w0NUZWRkaEuorKwsHRgnnoVPRAvihe8MBOgC7i7cZIiWAwcOyP79+2XPnj2yY8cOFVsncochTrILJsvCq66WqfMX6LPhToge9/yZM+RWJ2IWzZ3r9isudB2MqITrVd/QKG9s2Savb9kqTa2tYbeRe0bc/YjVpWjr5lCndMZpkRqfIEvyJ8tlUwolyz1viJi+3j5Jdc/pJbfeLNf+2Qckwz2nMeFyxIhO6JzxgHs21jz+pBzeuj0kXvRP1G30RtmxsxYvMKQCBlITY+Sed+fIV27L1y4HcDH19/dKTHySJM55jwqZ+OxZrpK0Lu6iDYoEygViXQL7/6j5XnijpMDu7OmXlbva5Gcv18u2YnK9hJY5GSyLJePzn/+8fPazn1VXEYKD2Jdvfetb+huWjfnz58tcV3kzzJs3T9LCwa0sj+jxogbhgmjxnwz81uHeehlojo0bCkHjRQ3rwAVEsC0ihPgV3FXEqSCqcnJy9JMBIYVo8dv3sL3Dhw9LUVGRfh46dOj4eE1Njcb/nApUclkFBbLwiqtkyjkLdN846RTUs6dNlfdedaVcuGiB7udQWZiMoQP3X3l1jaxcv0G27tkr7e5+45qSRbS9qUEOb9ooJbt3aWZR48xIcS8Wi/Mmy+XTCiU7KUXLpF5XX/D8XnTTDfLuj31U8qdO1hctI8pwzwfNoLevflXWPr1MKouOhdyqlMFOvhxorJX1FSVS3nrmbqNIhlzAQEpirHzoskz5pzvzZdakRFe4a9Xonv5ESZi61ImYuyRhykVukomYaKHf3VwEXwf2PyNdh1+SvrYqLZS58dq7++TZrS3yixUNsrc8cMrixcM6iA8h0BWXEjf09773Pfn5z3+uvyMusH4gHPyAZQYhw+e06dNk9qzZmqFTK/wIqOQRDz52BleTt8iom8YNLMM2KQBZB+KAQXs9ddMHggjC+sPgXVuRbq3KykppdW/dZyowqPAynZCbf+nlMn3RuRKXEK/uJNY3KTdXrrlkqVx3ycWSkZ6mwsYYfbjruKeKSkpl+br1sudwkXS7+ywkXmKlpa5WxUvZ/n0SNPFy1iTHxcuC3Hy5cvpMyUlOVZGvz7I71/MvXupEzJ/JvIsukH6zckUP7tp0tLbJhhde0s4Zm5zQ53pR/sbHxMqu2kptbVR7hgG7gzEsAgbi42Lkveenyz9/YJJcMCPZVTJUkhTGTonlznci5g5JmHG1xMSRbt0K6dFCC4W4BOltrZaOXY9KsGyD9HXhz48Xeopo7OyVx99sll+/0iCHqkKtjc4URMqHP/xhDYK9//77NWbkRODaKSgoUOsIA5YblsfdhNWGcawlDPzuLSqRmU8HwrHi3kHoIEAaGhrUguM/cVVhVcFFxbT6+nr9xF3U1tYWXsvQwD4S1Dtn6cUy8/zzJSEpWdPLYy7PcMdy6XmL5b1XvksK8vPs6RhlMHx3d3fJtv0HZNX6DVJSWaVB2F4Y04kn4qXqyGEJOiFtDA0J7gVqXnauXD19lkxSi2jIGkuumGnz58lVH7xLLnnveyTWi5sTPPfG8BPjyt3Ko8dk/TPPy+41b2jv/O6C6DXhqmyqLJMt1eXSGBjahKXDJmDAPdty9YI0+fvb8uR952Vob9YhEeN+S5ukLqWk+bdoS6UYs8aMKDzweoM58dJduU0CZNet2++uQ5+bzlulSH1bUP57RYMKmPKGoXnTwTWDhQXLxsDA3JOBBcW7ewig9ZYUhAuWFQamI2KoWLyYQbQwYJnBUsPAthEyPgsw372oYb4Rwe0bvv1Z518osy9aKilunDT0XJtEd6zzZhTK7ddfKwtmhbokMCEz8uAyam1rl1c2bJS127ZLfVNzqFBmcNcE0YJ4qS8vk16zBgw5ca4smuGe96umzZKZmdluSigIFBGTXZAvF7z7Orn+kx+TtIx06Xfi3yTMCOOeAwzyh7Zsk3XLnpGju3ZLsKs7ZHlx0/v6+uXV0iLtHqC9Z+jF/bAKGIiLjdEcMfdclyP33pCjXiMKaBUy8akhl9K5H5KE/IX84JawYnq4Cb2txLqbq1cC+56U7iMrpa+tUoULetndk1JU1y0/eKZWVu5uc0JmbIhLX7EgXo5XMm7geL1LyX9GE0mpqRrUO//yyyUzf1JoH8Nv+Hk52fKed10u1192qdBniD0dI0eMO9klVVXy/CuvyX73dkm8i95bbuhzFSjuoiNbNklLba0KT2N4QESSqffyKTPk/IIp4amEUfZJYkqSzFx8rtz0qT+XWectEfd2Ei7fTMoMO+45wGW0+eXlsmX5Kqkrr9BrEuvqfK5ZU6BTg3UPNNRpVwHDwVnngTkZ1BW1LUHZU96lFeGFM5MlNYmMpO4G6+2WvtZK9+a/T+elHyUxl9KwwpnFbdfbeEw6Nt4v3cdel/5AAxP5hXtSNh5pl3/9fY2s3tsmLZ1jK1DOixQGb3lhiEbh4uHNnb5yWuvqJDk9Q1KzsrQAgPaODjnmCoZjFRUyc+pUyUpPP+6+MIYJd24RJGvdW+XjL7wsR925J96FlkYM5HhBuBzZvEnaGhpUbBrDB09thzv/Ve2t0uWEY2FGlsS5a8QzQBr6xqpqKdm7T3o6AzJl/jyJT0wIVTzGsNHvREr54SJZ8cijsuXlldJSV89UFS/xrhI51twoq0qOSFFTg/QMY4OdYRcwwK3UGuiTfU7EHK7ukrlTEmVaToKrVNxNSN+UXc3SU7PHiZkKiaMjyORsEzHDQH8Mboh+bWHUsf3X0ttw2NWeXSpeyPESFxcjj65rkn95rFoFJ10FGCMDFWZna4s0VVVok8P0vPxQhekKaSrP2sZG2bZ3vyTGJ8g5M2fo02FXZ+iJc4UvTaQf+eNz2odVU0urTsfqgvUFkblv7eva0ihAMKJVlCNGt3tGyNha6YTMzKxsTXjHU4CUb29ulrIDh6T80CHJn1GoLf3cm4suZwwh7hkIdHXJ1hWrZcWDD0vx7r3S7b6ryygsKre5Muz18mMqOElSOJyMiIDxBHr6paimW7YdDUhmSqwsmBbqD0EPsbdbU9b3lL2p0+Jy57lSI96N8XZjb5tnhzvHsYkSrD8gHet/Ij3HVruL0Rj+LVYDrtt7+uTLj1bKr1Y3SGVT8JRyvBhDCxai7s5OqSsr1c/syZPd22Siu3whN1hnICB7jxyVXa6QJuldXkaGNlk0a8zZwzlMcIXwivVvyi8ff0rKqqulpyeoLdUonBEqxLvsXL1S6oqPWbDuKNHb3yfNXZ2yv75OspOSZUpauoRkSozm3akvr5SDm7ZoMkGsMfS5YyJzCHDPR597DiqOFMkLD/xK1juB39rYpOWSxhu639t6uuXVkiLZWl3urhEZ2of/vA97DMxg0Lplcla8fPzKbPn8TblS4MZxkWlkDDebOxnxeQsldem9klCwxFWmfa6aNc6I2ATp62yQzr2/l+6jr6i1i4edP/6lJMbIGwc65G8eKpejtT1mdYkS4tzbZdbkKXLe9TdKfmGhNqdGpuAK4xMrzY3vulzuvP46SU1JVlM6z41x+iTFJ8i+I0fkYVco1zQ0qMtRRaEb+KRZ9OHNGzVBXY8TkdHqipxoYIE5L3+y3Dhzvma01rd9vTTuWXGV6vRz5ssNf/FxWXDJUnU52VvZGeLOZXtbm6x9cpk2j+5sb3flUCjOiNOKlbi4uVHWlB2TyrYWfakaKUZFwIAWwu7N/6oFqfL1D0ySK+enqsWPW0wLiLCQSZzlCuhLvyAxyVnuBuzR5YyTwOmLjcMvIV0kpdv9mMYa+QIZEJFBN/rdJ6vll6sbpaObGBH9yYgSuFZxiYmy8IorZcHlV1JS6LNBFlL/nORkZsr7b7xeg3zpS8byxpwcPYeULXFxUufeIh978SXZtGuvulEjnxEqwaaqKtm5aoU2lbZA3egDYZKfkia3zD1HZmbkSE84yzvXmCHBPT+LrnyXEzKfkKmzZ9HjLG8Bep2Nd4b7v8edw92vr5UVDz4i9eUVoYzT4XOn7m13PjdWlsm2mgpp6357v3jDzagJmEjy0uPkL6/Plc/dnCt5afFOyHDz8Yv77KVpYr8kLf6opC29R2LikqS/r9uEzAnojyHfoUh3+Sbp2P6g9DUcUiuMuxtDN547rynJsbJmf5v83YMVcqi6215MxgCZkwrk0jvukJxphRr0q6nU3fXEWhDs7ZPCKQXy8VvfJxctWuiETNiSabwNzkqiE/dtHR3y9MrVmteFB4bYF9BnxI0TmHtg3Vo5sH6tCZcxAGL0ooKp8u7CuZIYH6fWGH0C3Gewp1sSk5Pl8ttvles+/hHJzssLCRnjhPQ74Ve0c5c885OfSemBA9pSkparYe2iWXVLW5vklZKiIekS4EyJCgHjuXROivzTXZPk2kVpkhTH22ZoOrdify8+51hJufBuSVp4p8QmZrgfwqZeI/SwuoK2p2andO76nQRrd7tzE/cnwoUyuqI5KD96rlYeX98s7V3WemKscc7lV8iia66RhPhEwt+PC3ltaeUeGHLHfODGG2TRvDnuenP9wzNMdNz9z6lobmmRlRs2yuo3N0pHIKA9HOspcs8IzxB9ftUUH1WrC82jjbED1zEvJU1umDlX5mU7kRJx7+PyQMikpKXJlR+8S951522SlZOjVgR7REJQfvQ58Xd0525Z/stfyxEnYBKTUzTGxVezfLR2d8vmylLZUVslncHRzX0UVQIGUhNj5a5LM+Xvb8+T2bmJkuCEjJYsfKBogk7IJKRI0oLbJPncD0tMUlbo5Goz4LcK9IkApwUR1+9uomD1Tgns/b0TMLv1XPg+jACLaVtPnyzb3Cz/+UKdFNf1HBeHxtgjOT1dFl/3bpl13gX6TPBmxN3AuG8uPm/mDHnf1VfJEidkMKPH4jOcgEW1npNgr9Q3Nspr4c4XaZo+sBsJCm8CP3e/ulpK97hnyBizYGGbl5MrV06bJZNT06Tf174O7gf6qUrNzJCLb75Je7nOzst19UyoibybITznxIG0DN19vXJoy3Z57TePyTEnXBJSEC6hFyB/9nAXHW6s1+4A6jqHrjuAsyHqBIwnJy1O7n13jtx9XY4UZMRKSgI99LqbK/Qv5FpyN2bSrGslcf6tEp93jqu0E9RdEnG/jkOwTAWdaOmWvu42CZaulcCB5yTYXCyx8cnu57dM4b3urYN+jF7b1y7/vbxeth0LSE+vKZdxgbu+2VOmyOKrr5W8GTNDTa6pkF0BzBVGyARdxT19SoFcd+nFctHChZKZkSGJCfFaeY/Xu4BHHzFC/1hdXd1SVlUtr23eLFv37dfm6Ilx8Xru9L3b/cNy1dMVkMMbN0jRli3uu7kWxgtpCYka5HthwVTJSkoOWRLcdEQMOiXY3aWV9AXXXyOX3XGbTJkzR5ITE7TlUshqPU6fEndstNjieWhraZEDb26SdU8uk2qnA5KccOHYQy3v+OeEvStLKlubZV15iZS0NoVXEh1ErYDxzMyLl/9zU67ccWGm5GfES0ZKrBMv7q3K/cb9FeMqc4jLnSsJc94jCVOWSlxKjsQkuAsRm6i/6ZUYyyBKnELuD3ZKX0+n9LaUS/eRFdJdtlb6e9o1LojSWG88N9bjhEtTe69sKw7IQ2saZM2+Dukwd9G4JDY+XibTm/cll0lmQYEkJCZpQa2FtPtd3zhdZZ6RliZLFy2Uy85fItPdfMmuoEpJCnWOOdaLae554Dg7A13S0toq+4uOytrtO6W4olJ/j4vzZnD3nxshjijQ3iaVhw7KoY0bJdAWyvdijD9ykpOdiJmmnUNmuOcjHuu0mx7SJ6H+0WgWX7hgviy9+SZZcNklkp6VJSluOW2GrbON4ackdONrLFdXIKC99lcdK5Hdr74me95Yr62K6KaF+XwdgnuapIE17hnZXlMp+xtq9cUg2oh6AeOZV5Aon7wuW+5YmiH5qfGSk47LKHRfUUhLvzvlfUGJScqQ+CkXSeL0KyQ+Z55+j0lMdQV9SuhChqPUoxsKWYRajxMobdLfHZDezjrpqdgkPSVvSG9zqau5cBO91XEhH/Q1VdMSlJ3lAXl8bbO8trdNEwga4x/yxRTMmSuzzr9AsidPkQRX+NIXVOhtM1TwUMFzoxROLpClCxfK4vlzJc8V1IgZmmLHY5lhfp07uiF2gX3tchVPR2entLd1SGl1tWzZt1/FC24i3xeWPiMMbv7uroATK+2a0+XY9q3S0dx8/PwY4xu6Izg/f4rMz8mTjIREbT6vtbWDW4A7P+jupSQn9s+5ZKksvOoKKTxnvqRlZkhqapokumckhqZqY6HVA/e7gz6jOt2z0NHWJg3VNVK0bYfsX79BaopLhWT4mucoPC+fve5FmazHDZ0dTrhUaDcAw52M7mwYMwLGMyUrXj56ZZa878IMmZWfoC2YkhPo10fvQC18ETLuFUtiU3MlvuB8iZ98vsRlz5VYMvwmprkh3Qkar6yjoILXG8gVyG6/+3s6nWBpU/dQX1u1BGv3SE/VVultOBqaNYHETDqqzT7x7zZ39Eplc48mCPzDhmZZf9jdsN3Re9MZwwdCJnd6oRSeu1hyp03TeBmsMqAVNYO7Z7q6nTh2f3MKC2XJ3DkaMzMp2711pqZKqnaQmawtc/R5GuUCTJ+OcCGLYOnsDGi/RG3uzbGsqkb2HC2Sg0eLpbm1VYNyKZTBixcK8S5ETlOTCpfy/Xuls6XFhMsEJdvd3wtzJ8n8rDzJduIdVxPNsSPvdeqT7kBA0p14mb/0Ipl14XkyZe5cycjJklT3TKU6kcNLgt6WoQV1uVGBTVMZuJ3ByhJoDwkW3ENNNTVSuu+AHNmyTSqLjqlrmTKC/T4uXNwQQOgEu6WqvU121lTJ0ZbGMfF8jDkB48lOjZU7lmbKu5ekyaJpSdo1QU5avN5InPjj557eIxE08SkSlzVb4iYtkvgcJ2ZSCyQ2KT0kZhIz1OVEP0y6oPaMPRwXL3STqUsIi1Ew4MRKu4oVFS2dDdLbUiG99Qe0f6j+zsbQ/ARThV8V9KurWHp6+6SisUeK64OywQmW5dtbZVtxp1PQOpsxwSEmhky+0xYslJyp0yQ1O0dS0tPU5x96PsL3t/skCR7m4dysLJnrBM2caVNl6uQCyUhzYsYJmnTcTclJ2ts3EVYsOVzmZBUdfLqB/QoEuqQdszeCxb1J0hs0cS1HysqkpLJKew7HchQZkIt1hgeFCohu/VvqaqXaiZzqoiPaj5FhQEp8glpj5mblSn5qmmTRw318oru/CYTn0eAe58WyV2NGaIo9efYsmb5wgUydN0dypkzW3uTT3MCzleyeFRJQKqEVhMaHGn+vu9VjUexsa1fB0umG1oZGqSktk4pDR6T84EEnYGr1WcLVHNkMmmeE4F2y57a4ddAU+lBDnZS3tYRmGCOMWQHjSU2MkfNnJjshky4XzU6ROXkJMt2JGY2V4R6iQteLFhY12hzbFZIJrjDPmCJx2TPd5wyJS80TScRCkxIKhiWGhsGNExwcE4e5kQBAX1AOdnOG7w5+o3UQAYF97k23t0v6e5xYCXaqhYU4FkGwBBq0F+je5jLtRkE7VSQ4OTa0HQpztsJaealEnFQ29EhpY1AOVnfJ2v3tsu5Ah5S5aYYxGNxDKRmZkj9rluTPnOneIHMlNTNLLTME6kV2REiB7QNgsWRkubfPKXn5Mm1SnuQ7AZSV6d48E5MkJTVFkl1hnuwETVJigiQmJKi7RoVEeF0nA8shBSjbImU/AYWB7m43dElnhyuUA53S3hmQBqwmrlCuqquX6ro6bfpM4cv2wL9FUjIzTgsT+pTqbG6WhspKbRLdXF1tqf+NExLnylq6JDjHiZnJaRmS6YRMZmKyJLl7TOuQcFnvx4mfYlJKRrrkOKGfP3OG5DrRn1NQoEKG6VhoEDRYaRLC4p/s2bxYhNem/w9O+J52G8R62OPuXR3cvd/V0SkBJ+Y7WlrUqtja2Cz17j6vd6KlobxCmmrrVGzFsS198Q3BY8Jzw/Pd7tbV0u2eLfeMkUH3aFOjEzIjn4RuKBjzAsbDBcKddOncVLlkboqcOz1JXUzTshMkOy3O3aQhAcBN4S8Ut0kfQcA0zUYwxCdJbOokN+RLDIHASVkSm+gK+oRUFTIS5wZNCkf8iSuqj4sZcOulMtAKISgxfd1OqDjR0tPhhnbp72pxgqVJ+judaGmvlT733Sma0HYJNuYAHKECuV9vNvytnd19UtXUI5UtTrRUdMmOYwHZVNQhu0u7dH7DOFUoPNPznBgpnClZ7u0x0xXYKVmZkuwKby1YtYRG6L9VlDFOaybERny8W94Vylhqsp24yXSFdJoroImfQdAgZugThVwqBM1SgGp2W11PyGrT595mWRct5OilNtDlREvYJdTqhhZ89U580Iki7iJM+Qluu94tBPqMuHWFnsEY7TcKS0u7K9RbaqqloaJMmlyhHjBri3GaJLn7bEZGtvZ4nefu9ZykVMlw4iPUcSQvlDwfoXkpp4Fm+uSY4b4kb0pmfp4OGbk5kuKekyRcTk7UJCclSxwtnNxDQVqDOOIYCS7X9bKit3rR13QIbr0qyDva9V7ubGlTN2ibE/RN1TXS5p4T5uU5IFWCT6fAfvKIAGun/6g29yy1OtFS70RLZVurlLU64dPZob+NZcaNgImEQnNqdrwsmZks505LknmTE2V2fqIU5tELdrwkJbkLTbcFrnDkckcW2CHcdy6sDm7c3Q2h2yIsWuLi3QdCJvw9PD+mRiwoGkzspuky/gbReV0h7O+sMP4NUl2Y8U4hu32qb+2VsvoeKa3vlqKaHjlQ1SUHygKyoyQQEmGGcZYgWLImFWh/SxlO1KRmZUuaEyapbtCsm24ehMbx0jr8Gf6mz4wWtu6TebmP/Sdiw1tk/HT3dEifu3lxCwV7g26cNYUsPoxR0NIV/1uuIJYC8tyEximo2W/eMDuam0KixRXo7Q0N6iZqcuKF2BbDOFu441IS3AtweqYUpKZJdlKKDjTHznAihFwzek/758J9hG9TfTZ0oH5xdQJlOqJF72M3cI9jjcHdhJBR4aHzh8QL9zef+kLs1tsfrkP0/neDCne+u3XpdvUL/0LPEMt0OEFFp5ct3V3S6EQLYqW6vU0/yfkyXhiXAiYSrmdmaqwKmPlOzMxyImZybrzMzkmQqVnxMiU3QfLT3ZuiEw+uNHY3G2+KoZsQ9OZw/1PMhsa5P/zYiQgt+za4ed0H919MONNwe6BXapp71cpS0tgjFY1BdQkVOdFyxA2VTU6FW+4WYxihQExOz1Ahk5mfr+Op7s0xOSNknUlxb5DxNLl2f/pmyMCC/hkJl9yRLwI6JfyfFrKMu5G33cnhZSPXpUO4oMaEjoWFZs6BtjbpaGlWX397Y6O01ddLW2ODvqUaxnDBHUr+oJzkFMlzA58ZCJnEJLXOpLvP1PgEiXf3q1oZ3a3snwX+11v/+DcP93lo7PjzwXjoIzRR4akLcXyKm8Az4l4PtH7rdM9IuxMsrU6sYGnBPdTingnESkOgQzPnjnVLy4kY9wJmMLKcoJmR5wRMdoJMyY5X11NeVoLGz9A8Oz0lViZlxLsbM1bSEmOcWkZxhBfmLnI3F7fVW7eYxxXQ+kXvsNB399YZ6BFp6+qTps5eaWjtlVb3SUr/ioag1LcGpbYl6ARMUErqu1XMmGAxRhPeCJPx49PE2gkY4mWwyhBLExIzyfqdHBlxruDmTTJkCufRCN27/K+Pgvvux31GVEQ8435+NZmHff1kwyWxnLqFWpxoaW+VLjcNAdPZigm90eJZjFEnyQmaLASMewa8gOEz0w0EB+NyonUTvWQnxMSpuOFJwLqCFRJLYrxa8t1TEFGRhJ4QR/j5AF4a6N8Mlyu5WWjmjBWl1T0niJb2YI/GtTCOxYVPbxka70xIATMYmU60IGiy0pxoSY7TuJnUhBgVMOkpcZLsPunmIM0NSfExkugGetMO6xRV3T3BPuly4oMmzO1u6OzGx98nrQGmuU833tzeK+2BPhUtdU7MdAcnxo1mjG0ocBEt5MiId4U0LTJojomA4VNN4hTYiZjF3eDN41oquwEh494Cg+4ZoesLLCvEDRAITNxMdXV1KGAxEFCLCp9YXMiWGmnZMYxoBVGDRYbgX8YRMgiXhNg47WwyyT0jH/vwhyU/N1ca6upl9cpVmlhOHw+3PPc5wgNrSY8TLbQ0DTqh0u0ED4Il6KYxHnDPD9+xumBxmShiZTBMwJwEVwZrf0wMKlycqGE83ilnd2+qCY/7BwFDYGKwV9xN1q9J5bpdYc13MuNaGWyMS1zp6/3yiBy1xjBOgKJ7OELupbCAcX/EwRAX4K0uSxYvlosuvFBWr14tpaWloXUaxjgCER/nnoVcJ1zeeO01ycvOkY0bN8q999wj3V0E/4bmQ8BQT/S65yQU6B6KMetzgiaak8mNKggY92GDDTbYMOLD1Vdf3b9s2bL+b3zjG/05OTmDzmODDWN9cCK//8Ybb+zv7u7ub25u7v/hj3406Hw2nN4Ql5mVdV9LS7MbNwzDGFlmzpwpH/zgB8UJGXEFu+zfv1+T0xmnD9Yu+rTJzs6WKVOm6LmdPXu2zJ07V+bPny/nnHOOfs6bN0/mzJkjhYWFMm3aNMnPz5f09HRdVlvBBIPhNRpDBVbKe+65R66//nppbGyUBx98UHbvtl7PzxZzIRmGMWpcc8018v3vf18uu+wyFS/f+c53ZNmyZeLeVMNzGCcCwYJbYvLkyTogWjQfT1K4mxQHFafv74Zxj8Zb9IXyjjB4EI+dnZ1ayVZUVGhsUn19vV2PswRxuHPnTlmwYIHs3btXbrzxRqmtrQ3/apwpJmAMwxg1EDA/+MEPVMBQkW7fvl2+9rWvaUyM8XYQIVhOsKLwmZaW9lbeHQKn3e+IlVA8RWgIxSENDr+DFzh+GSwxiBk+ETQ1NTVy5MgRjVOiN2Pj9OD+XrdunVq3HnvsMfnMZz5z/NwbZ465kAzDGDVmzZolN998s7oyqEALCgpk0qRJsmfPHn37N0Lk5eXJxRdfLDfccINcdNFFMnXqVMnIyFCLS6RwAYSgFyLAp5/mLS4DK08/v5/OurAaYM1JSUlRSw+iadGiRbovWGQQMqzLODlf+MIX1H3U0tIi//Vf/yW7du0K/2KcDWaBMQxj1Lj22mvlhz/8oVxyySVaCQOV45NPPin33XefHD58WKdNRDgfCLylS5fqJ3h30ECxgZDg7Z4B0YG4yczM1E+sNAgdBAnL+3kDgYBaV6hUiT9qa2vT76xPO+4MX4/I7URuF6sMFjMsMyxnnBjOFcKvrKxMlixZoufaOHtMwBiGMWpcd911xwUMFaSHCvb+++/X36qqqsJTJwaIDIJvr7jiCo1r8ecF4eBFBHCOECNZWVkasEtgLpYsAnIRIBBpbfHLR44zeKHi3UVYvo4dOyZHjx6VhoYGnY6Vxy/rP4Fx4mU2b96sMUyIIuNPIUD9tdde0/P429/+1txHQ4gJGMMwRo13v/vdKlKwMviKFHwF+6UvfUkeeeSRCfPGimuICg8BA/488MmAIOnq6tL5EH0LFy5UAeOtKp5IkXE6+IoVEcXQ3t4uxcXFsmPHDikqKtJtYMnhWkVuA4GD8FmzZo3OH7kvE51f//rXcu+990pra6t84hOfkOeffz78i3G2mIAxDGPUQMD86Ec/0riOwQQMFoHPfe5z8tRTT41bNwXHiQhBkFx44YUqEHhbB38eEAS4hPj90ksv1flHKpiW7SNQEE5YWbZu3fq2+CTmYcB9tW/fPnn99de19ZI/jokI54NrhjWLTwTgeeedp+fRGBosiNcwjFEDt8f73ve+P3GVAOPe/UGhjwmeOAJvIRgPcIy4esjPcsstt2iOFoh0+yDqaCJNoDPnCVcR00Y6Vw77xP6yL4gorhvuIqwK/AbsM4KFWA+uGfuIC2oiW2OwvLz//e/Xc/eLX/xCVq5cGf7FGArMAmMYxqhBqxosMBdccMGfWGCo9EpKSuSZZ56Rp59+WjZt2jSu3lw5VqwoiAHcZ1g4vBAAL1ze9a53aesfKsBoE2/sY2VlpWzYsEGvlb8+7CtgSTp06JC88sor0tTUNOGsMVijVq1apbFMWMtoSn3gwIHwr8ZQYALGMIxRg4ReP/7xj7V5Lq1hiLsgCBX3w1/+5V/K8uXLx13Fh1ghhuWqq65SSwZiDXHCwG80WUbU0Fol0p0UjSBWuGa0RELI4FrySe/8b4HOgLz40osaGzOR3CdY1Z544gltCYYL9M/+7M/CvxhDhbmQDMMYNaZPn65WCOIDHn74Yc3/QqU+Y8YMrQy3bdumgaTjBd7KcRlheULERLpXEG64XvgtMog32sFyhOgiyyyCC7cS7iX2nd/iE+Ll3HPPVZcSlpiJkNUXIfrtb39bryfn4e///u+1VZcxtJiAMQxj1MC6sGXLFvnVr36lcS7kyTj//PM1HoS4GLKXMm0sVOQng4RwWFUIXCaok8rdW11o/nzllVdqsjpytoy142V/sbiQrwbXF63GEJ4INO/+In6HYyMuZrznjeEe/sY3vqHXmT6PvvrVr4Z/MYYSEzCGYYwavK3T5453LVC5UZnTKgkrDDlgsMKM9QqPZHLE+ZCNNTLehQqdptDkw/HJ6sYqCBWOC5cJ1hjGsbhgjfHxTWRaplKvq6sbtyKGwOx//ud/1vgljptxmqEbQ48JGMMwogoSo+FWohdl3trXr18v5eXlxyv9sQaWF5o+E8wJ3rqCywiLCxUdPUiP1eMbDMQMbjCOHRGDUGUaQ05OjgYwI1bHk3vQg/Xln/7pn9QSRZPyr3/96+Pe4jRamIAxDCOqoGKjPyRvhaGSI0B0LHYiSMzL5ZdfroN3pQCVOIKGY+SNfay5jE4FBBluQJpVI2AQpl7EIGAQcEwbTyKGa/nlL39ZLW3EA333u9/VnDjj8fpGA2+1WzQMw4gCKOyfe+457WeHwM8PfehDWtHjehlLUIHRmojYFvCVWH5+vmbbxcpEK53xCkKFGCdEKHlsiGvy5wDXChY2rE8InPECFrVbb71VxRmxL6QAGE+WtWjDBIxhGFEHzXL/8Ic/aEskYmI++9nPauzEWIHKm5gXrCxU4lTcDFTW11xzjca9TJSKjePH4kSTeWJj/PlAxNDijEp/LF3bE4G77NOf/rQUFhbqdxLXEetjDB8mYAzDiDqo4J599lnZuHGjBoHyVksmWqwaYwEqatxG7K8XL7hNaIFEYrqJhHedEefjxZvPfYPLhXNF6ywCmscyuI0YsL4Qt/XCCy+MeMbkiYYJGMMwohKsL+SGIYCXVjzEFhDUG+0QvInbiH324oW384koXgZCvhifwA9LDFao1NRUDXwlP85YdamR0+fuu+/W+5OYngceeEBqa2v12hvDhwkYwzCiltWrV8uLL76olQJxMGTnjeZKDqGC24g4Fy9eGGgmTQVNpT3RQcRwjhB6XsRgnSLpG0G/Y5HbbrtNRSvX/6WXXtKcRtZp4/BjAsYwjKgF4fLf//3fcvDgQXVF0DneTTfdFP41+iCew+dzQbiQdRaLAy4S4BgmOsS+kIEZFxs5Y7zIw4qBiEHMjCUI1P7IRz6isVrkNPrf//1f7SOKYzKGFxMwhmFENXSAd//992tfSby1//u//7u+xUcbCBdS5hPXAVgXfEsbKm0TL2+BFQ13GoLPCxim0VIJ99JYaXFG8PGf//mfq/WF6/7QQw9px6MW+zIymIAxDCOqwcVAi6QVy1doxYAr6b777gv/Gh0QrHvJJZccb01DhYw7AWvRWAk8Hml8AC9BvZHxMIhAMvaOBQguv/3229WStHbdWlm2bJnmtjFGBhMwhmFEPVhfvvGv39AO8bBm/MVf/IW++UYLuIiI32DfEC8Irfe85z1qKZoozaXPBFomEcDLefKWGJohY4UhCWA0g/WI+xBLEr2nP/CLB7QzUrveI4cJGMMwxgTkhvmXf/kXbYJLnMQ3v/lNzbUy2lAJYzXAekAFjDWBgF0sC7iNzHV0Yjg3CBZiXxjn/AHnM5oDeskU/clPflKbTeP6+s1vfqMB59ZlwMhiAsYwjDEBb7bkhvnZz352PAkasTHk3RhNECo+mywVMALrhhtuGLNNgkcaXGzECiFkEH+cQ84n02iKHm0Qn0N2aCyA7B8tjn73u99px6PGyGICxjCMMQOterDCvPnmmyoQCJAl4+louRvIMEtFS7yLt77Q6ohYGLO8nDq0QFq0aNHxxH+cR75HYzcDJFT8m7/5Gw0op9UROV82b95srqNRwASMYRhjCjLzfuxjH9M3XoQLQZT0/jsaEP+AiPGuDypg3FpD1YrGr3cgkdMHm+dkvw8G80UOgxH5W+Rn5PQzAcGCBYaWXIwDbkKaW0dThl4CyL/4xS+qi4vORWniT54iv8/GyGICxjCMMUdpaancc889WokQg/L5z39ePvOZz6hraaRAPNFRoc9lguuICs5n4D1TsNywLqxNg62H36kwmYfPgZYelqEPnr179+qA0GPeyBiTgSC4mpubNc7oyOEj0tbaJvFx8YPOj6WBfQOsYARYsxzX4myOm7gSMtlyXlkP+4xQ4PpGA7gsv/SlL8ktt9yi+/fkk0+q64ieto3RIS4zK+u+lpbm8FfDMIyxQUlJiZSVlalJHysILYH4fvjw4REx52N9If4F9xHbw/pCh4VYDs7GfcSy9KPz+OOP6zrJ6ovA8OtENPzxj3/UAdHAPlChsg+ck6eeekrWrFmj54EEgNu2bZNdu3ZpkDEuGS/yWIZxWnY99thj8vrrr2vOnX3798mGjRukuLhYRYUXaGwfkbNixQq1OnDcbOOZZ57RnsNnz56trYnO9NjZBsdJi56mpibdN8QLYpVp/D4acDwEFH/hC1+Qv/u7v1PRSLbd//iP/5B9+/aF5zJGAxMwhmGMSaiwqUCp2C699FKNSaBJLpX4sWPHhtWsj4hgW7yVA/tAyyPiNs42Hod1FxUVaV86iCQqz0gBQ8XOcSMmiB0h+RvnAqsLYoLsxUzDlYVFg3wrzMs5QWB4kcGwf/9+XQaLCutavHixipa+3j7tiwrLCqLHd43AfPRNhdUBkcE460EcIaTOVrxhvUKsYDViewwcG9sZjdT8HAvn46/+6q+Ouym3bNkiP/jBD+SNN97Q78boYQLGMIwxCxWqty5ggfFNcknljgVhuDKiUqmxHZ+/hO3QWSPTz6YCB5ZHoHAMCKTBBAyWEip6RBtihcr90KFD6jJChHz0ox/V+BEEDOfFiwDiSUgSh8gi4drzzz+vy9Ic+K677lLBRHI5xBkiBesHLiKOFTjfTMPSxTiC7Y477tBWV5yLs4Vjw3WEeMK6BAREcz7a2tr0+0jhxcunPvUp+cY3vqHWMPK8IF6wfhmjj8XAGIYxpqEi//73v6990GBpoLL913/9V62QfWbcoQbhgNsKYYCAwUKBpYJKbjTA2kQFjwAA8pEwjf1jwL1D4jX2mYoZKw9uH0QCogULFsIh2BMaWM/VV1+twhCLDtabSGHGOhE6dMqI1UWXdcPZwj4TV8S59OeWfcA6hIgbKThWtonl5bvf/a4KPkTjj3/8Y419MaIDEzCGYYx5eGP/yU9+Io888oi6UnCf8Nb88Y9/XMXFUEJFirWB/DPexYEIoJJjfDRAkBAvwv4gNmhmjsWloaFBBQiCCysJHSiy3+wnTYCxomC1whrT1NikbiEGhCAiiHOHdammpua4OAIqeCxDfpt+2tnCOoitYbveFcf2aZ10tq65U4V9oGn83/7t3+o9xHdcbeQc+u1vfztq19h4O+ZCMgxjXICrY/fu3SowqIAYcIUAbg8sFL6yPRuw6uA6wb3A+qjgfAzOUFXip+JCQqjxG+KJ36j4ESucB5bHnYRIQYzQ9Lw32CvxCfG6POIECwzzB3uDGjdEMG/R0aLQUFSk3xE2iBwsIriqWI5zybaJ+aEH5qGu0L0orKyoPO5GwgpDwOxwZ7rlPHLPfPWrX5W//uu/1n3BbfTTn/5UHn744WGNqzJOHxMwhmGMG6i8qbh5a0fA8OZO02bcHFTmVMhnWwnhWiBg1TeXZt1UenwOBScTMFhbqMyxrngBQ4VPfAvuF/aLcQYEABYZ5q+sqlSRg9WEc0DsEL9nZWapqOFYIgdgXbidOGbECkIIAYNFhu0Oh4ABAo+LS4r1erFvWF8QVYgxv29DDdskjolEicQQcQ+RoO6HP/yhttIyy0v0YQLGMIxxBZYWLBRUfgSyUqnjUuITgYMwwKpwpiAqiP9ASFCpEV9CZT5UCddOJmAY37Rpk1pPCMjFEuJFB5UwooL9wTWElQjBwjJYTRi8yMFaxfmgx2x60uaYIgdEGuvG8oJ1CSFBwG+kgOH8DkfFjmBhO8Q3AdtGsHFOhmN7uKw+8pGPyLe+9S2N/UG8rFy5UsULAbvDJZqMs8NiYAzDGHfQBPnRRx+V73znO9rJHpXeBz7wAbnvvvvks5/9rFa+CJDTBRFB5Y9Lg0oNSwYiAcvGUMO2CIxlO168MI6I8BW7B0GGS2jnzp1qpWB+LCe4umhh5FtIIWCwuiC2OAaCjpnGeOTAMSJ6yCPDgFgaSdh/3FYIGY6Z6+eF3FDCPUBw81e+8hUNBCcAHAFM54z/9m//pvlujOjFBIxhGOMSKiKaCfNWTYXE2/vSpUvla1/7mgoZMqqervCg4qdy94KCCpCYGCwfQwnrY0CIIZKwQDAgOBApA+N5EDBYVOhYkNgVX9FT8TOw3yzL/vp1YTlCIOBeosk0v3Fc/MYnrifE32j088MxI2DYby9gTrclkj+WE8H66ZDx29/+tnz5y1/W7zS9p6UR4oV8L0Z0Yy4kwzDGLVR85CyhksbSgCsEF8qFF154PBAXiwUukUhBcCKwauBS4ZP5qWDJszIUOVA8VLxYSRBcWFqozHFpMI41ZP369RpvQ0Crj4FhX5gP1xNxKlT0HDvjHBuBqAgSXD6k52e/WQfbYPDBslh8aIVEThmEC8tzrsgtwzYGupAQFcMhbtgW4oPjQaxxThCOiAr26WQwL1YnXGAk44sEYXjllVeqJY7surjPEHcvv/yyipcHH3xQ7xUj+jEBYxjGuId4GCpxKmYsDYgYgnypvKjQqczJ/oqYeSd8axyaIgPxJcSLDGW+GSpv1o/bhn2iOTSfWFao0KmUEWIIEgQE++MreCp7WhSxDMKEeRA9fCK66L2buBnEAdYXprEM89AUnUBntkEMEWIF9woDlT7bQDywLvaH7Q5XEC/bQlSwH94lxv5yDdnfd4J4Fjr7/Id/+AcVqDQp51xy3Ynruffee+Vzn/uc3HnnnXouOJb/+Z//kf/8z/9UEXM28VHGyGICxjCMCQEVEy1ZqAQRA1ReCBkEAVYGWishSLDYnKiS9EGz3rXBd4QQcSNDCYIBqw4VMCIDccI4MRrsJ0IKEUMrKy+eWIZpzM84Fhn2kWNin3GfYYFBGHgQbqyXSt9bbTgW3EvMj5WKvpA8CB/EFQHCZPnFBcc2hgP2B+sJ4hMBw3euG5aoE22T46PDRQSKj2ehLyiOGXcR02lhxHFxLPRpRBPpRx55RIWbMbaIKZwxs7+stCT81TAMY/yDIKDp82233Saf/vSnVcgA4oVg2FdeeUUDOElgFgnWGjpspOLG3UIlSauVoWpCHQmVNoICVxEuJCwI7DfTPVTkkd+B/cIlxDL8TsXP/mLBGAyWZxmsFCzjrTPvJMoG2+5Qw/FyDWgWz3lAhNCRJIIEcRYJ83It/vEf/1FuvvlmFWTsI66ujRs36jEh/BB4nI8dO3ZoT9LLly9X9yLWJmPsYRYYwzAmHFTUiBUf+IpIIKaDmBJvkbnqqqv0TR0xwFs/y+Cy8S2YqPSxgPgOE4cDRAIVN4LCu3EiGUxERAoQBA/WIirtd8Iv4+ePtNIMxnCLF+Ac4w4jkBkBwzZx93DdIt1W7CvxLrQ4e+9733tcTDI/wg1rEm4+LFOs75e//KVm1aXHb75zHY2xiQkYwzAmLIgTKjGsLqtWrdK8KFR23r3EWz3NkK+99trjrWJw2VDhU/HhPkLAUNkOJ1TGIyEaogmO18f/eIsLQhI3khcwiLpPfOIT8r3vfU8tLAOtTFwnxBvX+KGHHpIf/ehHmteFmJ/hzuprDD8mYAzDmPDQjJhKjpY3zzzzjFaciBgsLMSIYHUhAJZxLABApUqiOeIuhlvATEQQHz4YGesXkMyOOCYEDOKF5vDkcMHKcqJrQOzTAw88oOIFlyDX+kQxNMbYwvLAGIZhOKgUcVds3bpVAzs/+MEPyt13361xGLS+wb1EYG1k5UclO9EsIyMF5xlR4q1P/jsgJEnv/8UvflGvC7+dSJRggfGtxsxdNL4wC4xhGMYACOqk9Qtv7MRK/OEPf9AWMbRqYUDsUBl6CwxCxhhaOKdYu7DCYIFBxOBOIpaFXqFx6xHn4wUOw2AwHQFK8K+3nhnjA2uFZBiGcRKoBAkWpeUSFSeWAEQOwaOXXXbZsAXxRloVTlRBj1c4x2vXrj2evI7jJ+ia2CREDL8Tk4R1hbgkxhE0DATvMhCUzO8ITrLrkpH5RJYaY+xhAsYwDOMUQcDQjBq3BLEVV1xxhcbGvFOT47OBShuhNFwCKZrhHNOVAU2effNuktKRiXhgM2rPO4k8hIsP/jXGB2b3NAzDOEWoOBmoKLEAIGJOVJkOBVS4tJqhddTJKudI+O6nDfab/xw4zzvNOxgnmj5UcH696OB8Y4nh+4kGf30GG/jdGF+MuoChiSIPQeTANMMwjGgDSwCVKiAoSP7G93cSF2cD62XACkOqf5r+YomgNQ5lJZUyTcHZB+Zpa2/T2B2/X/TpQ6UPVOL0c8Q0fmM9pOlnHQQv89vAfDFsg+kkhGP9fl9oycN2hzMolv3yggUQMBw/+2QYMOpBvHScRRO4SPj+8MMPh78ZhmFEB8RUELRLXAWVOa4dmlpHptsfamgVRfApQoJMtMTgkPqefDWIEH5HUJRXlMurr76qQofm4DQLp8kx4oQMtMxH/hMEDOPsNwHK9A+FkGH8ggsu0Fgfjg2RQ+ArAxYgliVJHJ8rV65UQUQsCrEnwwHChZ63EWscJ+KKrLon66/KmDiMqAUGYYJg8ZYWhsGsLZFWGZIWDSZyDMMwRhpv6aCCB1ok+RYywwHrpRy89dZb5f3vf78Gpvp4ECwS/M44Q0pyipy76Fy5/fbbVYjQ7QHL0RcS4ocylHgdMgyDd63ccMMNcsstt2injbT4AdbLcSKA7rrrLp0HwYN48cHMBDCz7uGAY8aKxD5EYjlcjEhGTMDw8CBG7rnnnvCUU4PlWIa+SUzEGIYxmlCpIlq8q4XvuDW8m2M4wMJBpY3YQLT09YbS6gPCBVHlhQzzInCYj31kGZbF1UMv0m+88YZaVHD/sAz7jVWJ+RAmLOvx28TK5Nfv98FbaYZTTOAKixSHnGvL42JEMmIC5pvf/KZ+YuIkdwI35akMzMsyiBcsMYZhGKMFFT8VKWUTUKHiXoms+IeSSIHgx/v6+7TZcGlpqbqDSK/v9wf8fHz6gX1mH5csWaIDQscLr8j5IteDAMI1hvAhGy7WD5LGDadY8yCSGuob/sTaxT4goAzDM2ICxruKvvWtb+kDcaow77333qvjZoExDGM0ofJGDCBkAKsEAmK4+tVBVNCBpFpe3LZnzJyhn5dccokm2duzZ4/Gt/h8Jwgb5uWTaYgQ3DxkrvVihN6XmcYxTJs2TQUC26GvJ5+xlu/0K0RfUGznwIEDui76fmIeYmGGS8h4IVVXHwpAZpzzTBI7s8AYkYxYHhhuSohU+KfD2S5vGIYxFMyfP1+uu+66490K8HnbbbcdT2k/lHhx4fHlH58ICD6p3L2YiCwnGffzg18GgQP87udnOuvx4345v24G3EZ8Ru7PcMD6sRY999xzmv2Y/WVYtmyZHD582KwwxnFGNIj3ROBe4qYlRsa7mgzDMKIRAmIZfCVPKxnfvcBQM1As8J3BV+Jsk/GBwsKP+/kZ/P5hxWAZBv+bFzx+3OPnQcj48eGG7dNyinPq9wVXEueZfTAMz6gLGAQLPYoCLiLGLdbFMIxohZgXBIyv7KlUcW/4fCsjga/YB36eCqezDPOczrqHAqwtxLtEJu+jafjAFkmGMWIC5kQPwmCtkiyRnWEY0QqtfrAGRMbB0Nx4JAXMaIAFJ3I4HSj7T8V6wzycXwSLP7/E3hQXF5uAMd5GVLiQBjJYsO6JBJBhGMZIg4uDhGqIF8olLDDeKjNUvNO6In9j/EQDQsPv62Dlp59v4LjHf0eckSOG4ySpHgJj4Preafm9e/dqDM3J4HyyDd+yigFBw7b5NIxIRl3APPTQQ+Gxt/AuJcMwjGiE5suk18d9RCWLUCDg9FSsMFTqNEmmkmZ5Km2CVvnuE7UxMA0rBPlQ2AYxIX7c/+7dWayDffDbZ5xYF5Znv3DJANNYh281xboYZ7mBFg4EA+KHdbCfjLN/5IXBKsKyLBeZr4VlaObt94v5aLVFB4ynIkA4LpqH+2NinQgmBBi/GUYkI9aVADcfwoRm1JFgGuRmxerC509/+tO3zWMYhhFNUKGTFZcmzDQ3pqKl0p43f56kpabp98FgORorkNGW+RFBCALS+SOKEBpU9Kxz65atao2oqKjQchKhwCcihDiRVatW6TjWEMQFTaNpVp2fn6+ihHVR8bMM+0OP2TSJJr/KseJjahGhqTXrYR00s+Y7sPzrr7+u+4L1A0HEvrNdxv3xchyU24gOmm4jNg4eOCitLa1y8NBBPTZED8nzyOnFPO8Errldu3bp8SBg2MctW7boetm+YUQy6hYY8hIgWLi5GSLFC7EwPOwMFhdjGEY0QaWNqPCWAiwkRUeKVFScCCwWuFNmzpypfSohKqicES+Uf4gPxAQVeUNjg4qSwsJCFSPkgyFvC3lcEBaIG/KyMI3mxVhKqPip6PndW2sQJuRtoW8kfps5a6YKr0OHD+l8TOcF0osLb03CesI+FRQUqBUFWJ71Yi2qrKiUhPgEbVbO77rPbgj2BGXqNLev06fJ7t27dXng2N7JisK+ci44LsaBbfEdC49hDGTEBIxPXnc6QoQWSjxYDNYyyTCMaALLAhUuwoEKFyFD54O+sh8MKmKWQxggPM455xxdFksDeWQQKQgILCBYQ6j0mY7QQQgw7t0/fGdAjCA2fNZaX/kDlhyWZV2IAYQQYgfBJE5LsM9k5aWfIyxKLIvIwOqCOCK5nRdJ4I+TfWhqbtIOJElyh7BhOT4LJof2a0bhDLXSIMJY5p2sL6wXSw7WIn8+sfawbvbb3EfGYIy4gEGUnIk1xS9vGIYRDVCpIga8pYMBlw1WByrywaAiR2xgiUEE4NLxOWRYHvFDxY2o4LuH5XwlzqffFutiWx3tHSpU/Hw9wVB8TOQ6WCfCYvHixSpImJ95Wcbj143YwJrCvuDC4jgj14XgYkBw0XEkVh6+Mw/L+PXw6ccjtzMQfsei5ct5viP0vKAxjMEYMQFzb7g7AMQLHTP6GztyGAjuJPpB8m4mwzCMaAJXCi4YBImvpDdt2nRCKwxWjoULF8rTTz8ty5cv1/lwwSBCHn/icVm3bp2KB6wWwDq9uKGMZD7GAQH02GOPyQsvvCALFi7QFP8MrHvDmxt0OfaHZRBKiBdEAWXq5s2b9Ttiw68b/DHQkzWuqieeeEJ27Nihgof1MR+fHAfTEDcvvfSSiiW2jaDy62K7cbGh9WMJoiNJv++RMA2LECLJn0f2CzcWLrHB6gbDgBHrSgBwBX3605/W3C+MD2Swm9swDCOawc1y++23qyuHypYYmEWLFsmdd96pvw8s1/jdu3uwWlDpE4vCgHigsmca7iYqcqbxm7dwIFywvrz55ptyyy23qFDwyzAfyzHOsjfd/2sAAAa5SURBVAxsD9HB8vzGPEzHIsMn60OQRAoFxhETLMe6CMb1v/tP9iVyHvaBfWF/GZiPbbFub1liPQMJ9gZVJK15bY2ui/VilVq5cqWKmMj9MoxIRlTAGIZhjDeocC+77DK5/PLLtbKmEqYi/9CHPqTWFSpg5onEfx9YOTM9UiAMNs4ngb5btm6Ru+68S7cXuZ7IbTE9clt+PSdadyQDp/v1wMDpkeuCgeseON3DdFxHK1asUGsW3xFaiLMNGzaouDKMEzFiLiTDMIzxCJUyFgSCUIFKGGsDrhWsH77yjoRlBlbmEDntRONAMO+tt9yqQmngb3z3Q+R3Px75CZHjkQycznc/RBL5feDvfnzgdA+WFlpl4SriPGG5IdCYlqcmXoyTYQLGMAzjLMElRIwHFTIVMQNuk6eeekpdNUMJ60YMeDfNWAXLEV0wbN26VQUfx4XgI5cNVhnDOBkmYAzDMIYAGhuQkI5KGIgLITB17dq1WkEPJVT2kZ9jEZpqr1mzRs8TIMg4XwyIG8M4GSZgDMMwhgjECu4QQFwQ2EqmW5oDw1i2mAwVnBeaaL/22mvaRNoH/RLXQxN074ozjJNhAsYwDGOIIG6D5tF8UlH7yhlXEt0GMD7Rock14gULjD8fnC9cR8S+GMapYk+TYRjGEIJQIR7Gd45IJU1z4mXLlmnSu4kMFpeNGzdqhl1cR4g8XG4E8mJ9MYzTwQSMYRjGEEOrJDol9LEciBiSyD377LPqPpmIriTEC02jSaLnc9pwfrC60NkjOWUM43QYsd6oDcMwJhK0pCGjLv0ZUVkz0EqJZsIkvaN/IqZNBGiRtX79es1STDI7jhsRR19SxA1p30yGcZqYgDEMwxgGqKDpZmDSpEkqZLxYQcTQwzIZfEm/P9QtlKIJLE9YnNavWy9btmz5E/GCkCNhHbEwhnEmmIAxDMMYJkg0h4jJyck53iszYJFAxJC5FxGDS2U84ptK06+SdxuBFy8WtGucDSZgDMMwhhH6H6Iix2WUm5t7PGkbMSFU5Fgj6M15qBPejRYcGwHM9GO0evVqPXYfsMux0gEknVb6nqcN40wxAWMYhjHM0AoJsUJeGCwx3hpBRU/+E8QM1hhEzlh2KbHvtMLauXOnihQCl71gAywuWF6wShnG2WICxjAMYwRAxCBWcCtlZmaqWAG+E8RKAjxa5TAdoTOWwDVGKyKy6NJMmmbRvh8oBo6LVlm0QkLIGcZQYALGMAxjhMCdhFDB4pKamqpCBnCtYK1A4DQ3h8pj3Eo+zX604t1CtCbavn27BuoS2+OFC9YXjov+jhA2/tgMYygwAWMYhjGCYHGhZQ5J7ajgvUsJEDhYY1TINDWrZQORw3wIhWjBByOzn7iLyONCzAsuMX5DvHBMxLkgXLC++MR+hjFUxBTOmNlfVmr+SMMwjJGEij4rK0sWLFggixcv1nwxXqQgcrC+0HppypQpMn/+fJk1a5YG+vLbaME+4xrCDYRgwfKC4MI9Fml1oZUVXQPQ+giLjGEMByZgDMMwRhFEydSpU2XRokUqVAjm9Rl8ESuIBqw0uXm5Uji9UOfxYsfPN5x4YYIrCIsKHVMiWrAiYTHyFhcGIFAX8cK89HFkGMOFCRjDMIxRBhFAzMv06dPlvPPOk5kzZ+o0b23xlhnEDfNhmWHe2bNna1ZfxAOWET+/FxOng98Gy3qXFjErtBhiQLQgYojfYTt+G+wnVhesMvRnhMDBPTaaliJjYmACxjAMI0rAbUTMC+JkyZIlMmPGDBUKWFoQGH5AMGC5obUSnwUFBSpk+MRaQ4Cwt4xA5LLAdD8A04lRQXjU19er24fm0AgWrCxYUhBI4Jfx6ycoGYsLIgerDO4kwxgJTMAYhmFEGQgZMvQiZIiRmTt3rk6LtGpEihJS9GM1QdgwH98RMYgbPzCd3xFDrIdmz4gWxAlWFca9FQfRwsC6I4UOIFyYjsWF5tLEwTQ1NR2f3zBGChMwhmEYUQqiwye/Q8TgXqIPJawc3o3jRYYXD/47QsMPA+F3Hz/jBY1fbjAQPggk+nE6cOCAHDp0SC0v3jJjwsUYDUzAGIZhRDkICwQElhXfcmnOnDnqMkKgYP1AiEQKEC8qTiRKBooOP58XMmyP8ZaWFo1rQbTgWsJS47dnGKOJCRjDMIwxBOICi4iPg6F5NU2tcTdhqSHQFxAfiAz/GQnrGGxAmOAOIv6FPotKS0s1LsZbaUy0GNGECRjDMIwxjI9JQYAwjoDBzURLJVos+VgYLCrMw7w+BgYXEG4hRAsBuLQ68iKF+RgMIzoR+f+7Eop0CN9gXAAAAABJRU5ErkJggg==;" vertex="1" parent="1">
          <mxGeometry x="900" y="340" width="560" height="268" as="geometry" />
        </mxCell>
      </root>
    </mxGraphModel>
  </diagram>
</mxfile>
